<svg xmlns="http://www.w3.org/2000/svg" width="1220.979" height="868.809" viewBox="0 0 1220.979 868.809">
  <g id="undraw_swipe_xh98" transform="translate(0 -0.004)">
    <path id="Path_648" data-name="Path 648" d="M947.016,518.008c0,131.321-76.346,244.806-187.073,298.5q-2.89,1.411-5.833,2.747a328.425,328.425,0,0,1-83.338,25.715q-15.445,2.594-31.361,3.743-11.867.853-23.954.854a332.928,332.928,0,0,1-58.532-5.154,329.071,329.071,0,0,1-89.1-29.457C358.8,760.658,283.9,648.07,283.9,518.008c0-137.723,83.973-255.836,203.52-305.92q7.96-3.348,16.14-6.27c.734-.274,1.467-.525,2.2-.788.9-.317,1.795-.624,2.692-.93a329.785,329.785,0,0,1,44.273-11.73h.011c.788-.143,1.576-.3,2.364-.438q7.124-1.314,14.367-2.32c1.7-.23,3.392-.459,5.1-.656,2.648-.339,5.307-.624,7.978-.9q16.233-1.592,32.915-1.608,10,0,19.85.58,7.025.427,13.963,1.116h.01q8.29.854,16.436,2.09c.383.055.767.12,1.138.175a327,327,0,0,1,36.472,7.813C843.8,236.73,947.016,365.316,947.016,518.008Z" transform="translate(-54.033 19.247)" fill="#3f3d56"/>
    <path id="Path_649" data-name="Path 649" d="M349.652,145.143c23.109,5.789,37.749,26.826,37.749,26.826s-22.828,11.652-45.937,5.864-37.748-26.825-37.748-26.825S326.543,139.355,349.652,145.143Z" transform="translate(-49.988 10.486)" fill="#6c63ff"/>
    <path id="Path_650" data-name="Path 650" d="M263.878,63.725c18.71,14.747,44.307,13.468,44.307,13.468s-4.737-25.188-23.447-39.935S240.431,23.79,240.431,23.79,245.168,48.978,263.878,63.725Z" transform="translate(-62.906 -13.962)" fill="#6c63ff"/>
    <path id="Path_651" data-name="Path 651" d="M271.174,49.206C294.787,52.361,311.7,71.62,311.7,71.62s-21.374,14.143-44.987,10.988-40.523-22.414-40.523-22.414S247.562,46.05,271.174,49.206Z" transform="translate(-65.813 -8.862)" fill="#3f3d56"/>
    <path id="Path_652" data-name="Path 652" d="M333.682,74.54c-7.484,22.617,2.444,46.245,2.444,46.245s22.064-13.041,29.548-35.657-2.445-46.244-2.445-46.244S341.167,51.923,333.682,74.54Z" transform="translate(-44.441 -10.875)" fill="#3f3d56"/>
    <path id="Path_653" data-name="Path 653" d="M399.917,210.105c-16.645,17.044-18.083,42.633-18.083,42.633s25.548-2.044,42.192-19.088,18.083-42.633,18.083-42.633S416.562,193.062,399.917,210.105Z" transform="translate(-34.042 20.18)" fill="#3f3d56"/>
    <path id="Path_654" data-name="Path 654" d="M333.851,442.847l2.041-.792a56.816,56.816,0,0,1-2.778-32.946c3.709-16.054,14.985-29.116,25.89-41.747,2.024-2.344,4.042-4.682,6-7.03a178.714,178.714,0,0,0,21.305-30.939c21.858-41.293,22.026-95.846.451-145.931-17.116-39.732-47.412-77.968-92.619-116.892l-1.428,1.658c44.95,38.7,75.055,76.679,92.037,116.1,21.316,49.482,21.176,103.329-.375,144.042a176.625,176.625,0,0,1-21.049,30.559c-1.957,2.338-3.967,4.667-5.983,7-11.079,12.833-22.535,26.1-26.366,42.685a59.026,59.026,0,0,0,2.871,34.231Z" transform="translate(-52.233 -5.224)" fill="#3f3d56"/>
    <circle id="Ellipse_82" data-name="Ellipse 82" cx="20.791" cy="20.791" r="20.791" transform="translate(123.772 0.004)" fill="#3f3d56"/>
    <path id="Path_655" data-name="Path 655" d="M931.17,313.39c-18.137-15.445-43.764-15.136-43.764-15.136s3.779,25.349,21.918,40.793,43.766,15.136,43.766,15.136S949.309,328.834,931.17,313.39Z" transform="translate(69.156 42.068)" fill="#6c63ff"/>
    <path id="Path_656" data-name="Path 656" d="M1049.152,332.3c-22.873-6.659-36.705-28.235-36.705-28.235s23.25-10.78,46.125-4.121,36.705,28.235,36.705,28.235S1072.025,338.958,1049.152,332.3Z" transform="translate(94.681 41.97)" fill="#6c63ff"/>
    <path id="Path_657" data-name="Path 657" d="M1054.264,322.318c-16.287-17.385-41.789-19.958-41.789-19.958s.908,25.614,17.2,43,41.787,19.958,41.787,19.958S1070.553,339.7,1054.264,322.318Z" transform="translate(94.688 42.908)" fill="#3f3d56"/>
    <path id="Path_658" data-name="Path 658" d="M997.584,281.082c-14.059,19.232-39.059,24.88-39.059,24.88s-2.205-25.535,11.852-44.767,39.059-24.88,39.059-24.88S1011.643,261.85,997.584,281.082Z" transform="translate(83.65 29.426)" fill="#3f3d56"/>
    <path id="Path_659" data-name="Path 659" d="M847.105,309.8c-4.2,23.449-24.189,39.488-24.189,39.488s-13.182-21.98-8.982-45.43,24.191-39.488,24.191-39.488S851.307,286.349,847.105,309.8Z" transform="translate(53.991 35.152)" fill="#3f3d56"/>
    <path id="Path_660" data-name="Path 660" d="M741.949,492.862l-.54-2.121a56.814,56.814,0,0,0,28.428-16.882c10.911-12.347,14.99-29.113,18.936-45.328.731-3.009,1.46-6.01,2.23-8.972a178.749,178.749,0,0,1,12.8-35.317c20.906-41.781,65.207-73.616,118.507-85.159,42.282-9.156,91-6.714,148.951,7.461l-.521,2.126c-57.616-14.1-106.019-16.532-147.967-7.448-52.658,11.4-96.4,42.8-117.015,84a176.732,176.732,0,0,0-12.642,34.887c-.766,2.952-1.492,5.94-2.222,8.939-4.007,16.474-8.151,33.507-19.421,46.261A59.03,59.03,0,0,1,741.949,492.862Z" transform="translate(39.357 41.133)" fill="#3f3d56"/>
    <circle id="Ellipse_83" data-name="Ellipse 83" cx="20.791" cy="20.791" r="20.791" transform="translate(1179.397 382.558)" fill="#3f3d56"/>
    <path id="Path_661" data-name="Path 661" d="M872.746,261.859c17.459,16.208,20.148,41.7,20.148,41.7s-25.617-.791-43.076-17-20.148-41.7-20.148-41.7S855.287,245.651,872.746,261.859Z" transform="translate(57.373 31.17)" fill="#6c63ff"/>
    <path id="Path_662" data-name="Path 662" d="M836.758,150.29c9.287,21.938,32.334,33.153,32.334,33.153s7.986-24.353-1.3-46.291S835.457,104,835.457,104,827.471,128.352,836.758,150.29Z" transform="translate(57.903 2.417)" fill="#6c63ff"/>
    <path id="Path_663" data-name="Path 663" d="M850.54,139.406c19.17,14.144,24.705,39.168,24.705,39.168s-25.543,2.092-44.713-12.052-24.705-39.168-24.705-39.168S831.37,125.262,850.54,139.406Z" transform="translate(52.506 7.162)" fill="#3f3d56"/>
    <path id="Path_664" data-name="Path 664" d="M898.08,190.767c-17.459,16.211-20.143,41.7-20.143,41.7s25.615-.794,43.072-17,20.145-41.7,20.145-41.7S915.537,174.557,898.08,190.767Z" transform="translate(67.224 16.657)" fill="#3f3d56"/>
    <path id="Path_665" data-name="Path 665" d="M889.914,340.2c-22.8,6.912-36.389,28.641-36.389,28.641s23.369,10.521,46.168,3.608,36.391-28.641,36.391-28.641S912.713,333.288,889.914,340.2Z" transform="translate(62.241 50.151)" fill="#3f3d56"/>
    <path id="Path_666" data-name="Path 666" d="M739.454,516.093l2.17.289a56.82,56.82,0,0,1,13.442-30.207c10.987-12.279,27.161-18.29,42.8-24.1,2.9-1.079,5.8-2.155,8.649-3.266A178.7,178.7,0,0,0,840.1,441.964c39.051-25.647,65.489-73.367,70.721-127.65,4.15-43.062-3.97-91.165-24.823-147.057l-2.05.765c20.734,55.573,28.812,103.358,24.694,146.082C903.474,367.733,877.4,414.847,838.9,440.134a176.631,176.631,0,0,1-33.171,16.633c-2.841,1.106-5.725,2.178-8.619,3.253-15.891,5.906-32.324,12.012-43.671,24.7A59.023,59.023,0,0,0,739.454,516.093Z" transform="translate(38.957 15.329)" fill="#3f3d56"/>
    <circle id="Ellipse_84" data-name="Ellipse 84" cx="20.791" cy="20.791" r="20.791" transform="translate(838.403 79.348)" fill="#3f3d56"/>
    <path id="Path_667" data-name="Path 667" d="M568.438,53.771h0c55.443,0,100.39,49.88,100.39,111.411v78.175H644.786l-13.921-28.965,3.479,28.964H479.8l-12.653-26.331,3.163,26.331h-17.4V181.975C452.915,111.17,504.636,53.771,568.438,53.771Z" transform="translate(-19.533 -7.836)" fill="#2f2e41"/>
    <path id="Path_668" data-name="Path 668" d="M404.679,523.191s-25.563,74.561,8.521,72.431,31.954-80.952,31.954-80.952Z" transform="translate(-31.257 86.245)" fill="#ffb9b9"/>
    <path id="Path_669" data-name="Path 669" d="M455.727,233.373H432.293l-21.3,206.639s-23.434,2.13-12.782,25.563,10.651,14.912,8.521,31.954-4.261,25.564-4.261,27.694,10.652,0,0,14.912-17.042,21.3-17.042,29.824,10.651,29.824,10.651,29.824,51.127-34.084,55.388-6.391l27.693-144.86,8.522-102.254Z" transform="translate(-33.309 28.825)" fill="#6c63ff"/>
    <path id="Path_670" data-name="Path 670" d="M544.12,240.75h17.042l-8.521,234.332-42.605-89.473Z" transform="translate(104.11 49.142)" fill="#6c63ff"/>
    <path id="Path_671" data-name="Path 671" d="M544.12,240.75h17.042l-8.521,234.332-42.605-89.473Z" transform="translate(104.11 49.142)" opacity="0.1"/>
    <path id="Path_672" data-name="Path 672" d="M718.437,718.849q-.1,5.729-.711,11.349-.312,3-.777,5.975c-.152.962-.307,1.915-.48,2.866q-2.89,1.412-5.833,2.748A328.443,328.443,0,0,1,627.3,767.5q-15.444,2.594-31.361,3.742-11.868.855-23.953.854a332.918,332.918,0,0,1-58.531-5.154L496.883,595.8l72.265-11.118,43.979-6.773,51.649-7.943,19.466-3,6.5-1s25.781,23.932,27.7,127.875Q718.65,705.647,718.437,718.849Z" transform="translate(-10.557 96.716)" fill="#6c63ff"/>
    <path id="Path_673" data-name="Path 673" d="M718.437,718.849q-.1,5.729-.711,11.349-.312,3-.777,5.975c-.152.962-.307,1.915-.48,2.866q-2.89,1.412-5.833,2.748A328.443,328.443,0,0,1,627.3,767.5q-15.444,2.594-31.361,3.742-11.868.855-23.953.854a332.918,332.918,0,0,1-58.531-5.154L496.883,595.8l72.265-11.118,43.979-6.773,51.649-7.943,19.466-3,6.5-1s25.781,23.932,27.7,127.875Q718.65,705.647,718.437,718.849Z" transform="translate(-10.557 96.716)" opacity="0.1"/>
    <path id="Path_674" data-name="Path 674" d="M694.383,737.306a328.522,328.522,0,0,1-83.337,25.715l-22.017-101.3-7.693-35.354L576.5,604.1s7.431-2.681,18.175-5.865c18.91-5.6,48.094-12.737,65.164-9.521,4.4.821,7.987,2.332,10.395,4.738,1.456,1.456,2.9,4.409,4.313,8.6,3.468,10.23,6.806,27.838,9.869,48.9C688.211,676.924,691.6,708.153,694.383,737.306Z" transform="translate(5.694 101.197)" fill="#ffb9b9"/>
    <circle id="Ellipse_85" data-name="Ellipse 85" cx="66.039" cy="66.039" r="66.039" transform="translate(495.914 84.318)" fill="#ffb9b9"/>
    <path id="Path_675" data-name="Path 675" d="M530.15,169.683s8.522,53.257-40.475,68.169S594.061,467.924,594.061,467.924s68.169-189.6,51.126-206.639c0,0-61.778-8.521-55.388-44.736s10.652-40.476,10.652-40.476Z" transform="translate(-14 15.825)" fill="#ffb9b9"/>
    <path id="Path_676" data-name="Path 676" d="M449.883,653.767l146.99-38.345L518.052,419.434Z" transform="translate(91.832 85.617)" fill="#3f3d56"/>
    <path id="Path_677" data-name="Path 677" d="M733.243,674.626V806.7c-.219-2.068-.448-4.136-.711-6.2a402.383,402.383,0,0,0-17.06-74.759c-5.308-16.359-11.358-32.083-17.705-46.856Q694.369,671,690.9,663.5c-3.754-8.119-7.551-15.889-11.314-23.231-22.946-44.886-44.328-74.289-44.328-74.289l-7.321,82.233-2.2,24.807-2.244,25.233-3.4,38.255-9.346,105.037q-11.867.853-23.952.854a332.921,332.921,0,0,1-58.532-5.155,329.052,329.052,0,0,1-89.1-29.457L484,444.549c-17.038-21.3-2.124-40.476-2.124-40.476l-5.437-15.713L424.347,237.911a9.887,9.887,0,0,1,.635-2.123c8.775-20.769,86.468-12.66,86.468-12.66,53.017,47,89.718,191.6,89.718,191.6,50.686-84.487,20.232-174.084,19.708-175.617l-.012-.011v-.011c11.183-7.342,69.77,24.38,69.77,24.38L679.986,329.51c8.523,46.867-21.3,87.344-21.3,87.344L682.47,488.21l18.821,56.463,12.781,44.733s14.914,29.829,10.646,44.743S733.243,674.626,733.243,674.626Z" transform="translate(-25.364 26.415)" fill="#6c63ff"/>
    <path id="Path_678" data-name="Path 678" d="M524.381,79.02c10.079-12.979,24.945-21.2,41.541-21.2h1.972c38,0,68.808,34.387,68.808,76.805H623.968l-2.057-15.652L618.9,134.626H543.375l-6.327-13.242,1.583,13.242H523.773q-10.4,51.645,29.884,103.29H528.349L515.7,211.432l3.163,26.484H470.613L461.123,177C461.123,131.382,487.63,92.7,524.381,79.02Z" transform="translate(-17.857 -7.009)" fill="#2f2e41"/>
    <circle id="Ellipse_87" data-name="Ellipse 87" cx="18.062" cy="18.062" r="18.062" transform="translate(222.763 776.364)" fill="#6c63ff"/>
    <circle id="Ellipse_88" data-name="Ellipse 88" cx="32.511" cy="32.511" r="32.511" transform="translate(0 374.187)" fill="#3f3d56"/>
    <circle id="Ellipse_89" data-name="Ellipse 89" cx="20.47" cy="20.47" r="20.47" transform="translate(1047.588 601.766)" fill="#3f3d56"/>
  </g>
</svg>
