<svg xmlns="http://www.w3.org/2000/svg" width="105" height="60" viewBox="0 0 105 60">
  <g id="Group_790" data-name="Group 790" transform="translate(1959 2648)">
    <rect id="Rectangle_854" data-name="Rectangle 854" width="105" height="60" transform="translate(-1959 -2648)" fill="none"/>
    <g id="about" transform="translate(-1949 -2648.004)">
      <path id="Path_686" data-name="Path 686" d="M329.694,209.346a22.9,22.9,0,0,1-12.919,20.615q-.2.1-.4.19a22.681,22.681,0,0,1-5.755,1.776q-1.067.179-2.166.258-.82.059-1.654.059a22.99,22.99,0,0,1-4.042-.356,22.9,22.9,0,0,1-4.8-43.668q.55-.231,1.115-.433l.152-.054.186-.064a22.786,22.786,0,0,1,3.058-.81h0l.163-.03q.492-.091.992-.16c.117-.016.234-.032.352-.045.183-.023.367-.043.551-.062q1.121-.11,2.273-.111.69,0,1.371.04.485.029.964.077h0q.572.059,1.135.144l.079.012a22.586,22.586,0,0,1,2.519.54A22.907,22.907,0,0,1,329.694,209.346Z" transform="translate(-268.025 -172.24)" fill="#3f3d56"/>
      <path id="Path_687" data-name="Path 687" d="M306.889,143.642a5.1,5.1,0,0,1,2.607,1.853,4.395,4.395,0,0,1-5.779-1.448A5.1,5.1,0,0,1,306.889,143.642Z" transform="translate(-286.194 -132.891)" fill="#6adbbd"/>
      <path id="Path_688" data-name="Path 688" d="M242.051,26.522a5.1,5.1,0,0,0,3.06.93,5.1,5.1,0,0,0-1.619-2.758,5.1,5.1,0,0,0-3.06-.93A5.1,5.1,0,0,0,242.051,26.522Z" transform="translate(-228.171 -23.082)" fill="#6adbbd"/>
      <path id="Path_689" data-name="Path 689" d="M229.295,48.778a5.1,5.1,0,0,1,2.8,1.548,4.395,4.395,0,0,1-5.905-.789A5.1,5.1,0,0,1,229.295,48.778Z" transform="translate(-215.113 -45.989)" fill="#3f3d56"/>
      <path id="Path_690" data-name="Path 690" d="M331.083,41.345a5.1,5.1,0,0,0,.169,3.194,5.1,5.1,0,0,0,2.041-2.463,5.1,5.1,0,0,0-.169-3.194A5.1,5.1,0,0,0,331.083,41.345Z" transform="translate(-311.108 -36.945)" fill="#3f3d56"/>
      <path id="Path_691" data-name="Path 691" d="M383.083,192.336a5.1,5.1,0,0,0-1.249,2.944A4.395,4.395,0,0,0,386,191.018,5.1,5.1,0,0,0,383.083,192.336Z" transform="translate(-357.816 -176.43)" fill="#3f3d56"/>
      <path id="Path_692" data-name="Path 692" d="M295.559,92.555l.141-.055a3.924,3.924,0,0,1-.192-2.275,7.117,7.117,0,0,1,1.788-2.883c.14-.162.279-.323.415-.485a12.343,12.343,0,0,0,1.471-2.137,11.823,11.823,0,0,0,.031-10.078,22.869,22.869,0,0,0-6.4-8.073l-.1.115a22.725,22.725,0,0,1,6.356,8.018,11.671,11.671,0,0,1-.026,9.948,12.2,12.2,0,0,1-1.454,2.11c-.135.162-.274.322-.413.484a7.227,7.227,0,0,0-1.821,2.948A4.076,4.076,0,0,0,295.559,92.555Z" transform="translate(-276.111 -62.329)" fill="#3f3d56"/>
      <circle id="Ellipse_90" data-name="Ellipse 90" cx="1.436" cy="1.436" r="1.436" transform="translate(8.548 0.004)" fill="#3f3d56"/>
      <path id="Path_693" data-name="Path 693" d="M890.428,299.3a5.1,5.1,0,0,0-3.022-1.045,4.395,4.395,0,0,0,4.536,3.862A5.1,5.1,0,0,0,890.428,299.3Z" transform="translate(-821.346 -274.748)" fill="#6adbbd"/>
      <path id="Path_694" data-name="Path 694" d="M1014.983,300.157a5.1,5.1,0,0,1-2.535-1.95,4.395,4.395,0,0,1,5.72,1.665A5.1,5.1,0,0,1,1014.983,300.157Z" transform="translate(-935.989 -274.306)" fill="#6adbbd"/>
      <path id="Path_695" data-name="Path 695" d="M1015.361,303.739a5.1,5.1,0,0,0-2.886-1.378,4.395,4.395,0,0,0,4.073,4.348A5.1,5.1,0,0,0,1015.361,303.739Z" transform="translate(-936.015 -278.513)" fill="#3f3d56"/>
      <path id="Path_696" data-name="Path 696" d="M961.106,239.407a5.1,5.1,0,0,1-2.7,1.718,4.395,4.395,0,0,1,3.516-4.81A5.1,5.1,0,0,1,961.106,239.407Z" transform="translate(-886.436 -217.96)" fill="#3f3d56"/>
      <path id="Path_697" data-name="Path 697" d="M815.456,267.506a1.717,1.717,0,1,1-.62-3.137A5.1,5.1,0,0,1,815.456,267.506Z" transform="translate(-753.227 -243.68)" fill="#3f3d56"/>
      <path id="Path_698" data-name="Path 698" d="M741.447,307.427l-.037-.146a3.924,3.924,0,0,0,1.963-1.166,7.116,7.116,0,0,0,1.307-3.13c.051-.208.1-.415.154-.62a12.349,12.349,0,0,1,.884-2.439,11.823,11.823,0,0,1,8.184-5.881,22.87,22.87,0,0,1,10.287.515l-.036.147a22.725,22.725,0,0,0-10.219-.514,11.671,11.671,0,0,0-8.081,5.8,12.2,12.2,0,0,0-.873,2.409c-.053.2-.1.41-.153.617a7.228,7.228,0,0,1-1.341,3.195A4.076,4.076,0,0,1,741.447,307.427Z" transform="translate(-687.49 -270.546)" fill="#3f3d56"/>
      <circle id="Ellipse_91" data-name="Ellipse 91" cx="1.436" cy="1.436" r="1.436" transform="translate(81.449 26.423)" fill="#3f3d56"/>
      <path id="Path_699" data-name="Path 699" d="M832.646,246.034a5.1,5.1,0,0,1,1.391,2.88,4.395,4.395,0,0,1-4.366-4.053A5.1,5.1,0,0,1,832.646,246.034Z" transform="translate(-768.412 -225.795)" fill="#6adbbd"/>
      <path id="Path_700" data-name="Path 700" d="M832.576,107.2a5.1,5.1,0,0,0,2.233,2.29A4.395,4.395,0,0,0,832.486,104,5.1,5.1,0,0,0,832.576,107.2Z" transform="translate(-770.79 -96.647)" fill="#6adbbd"/>
      <path id="Path_701" data-name="Path 701" d="M808.915,128.086a5.1,5.1,0,0,1,1.706,2.7,4.395,4.395,0,0,1-4.794-3.537A5.1,5.1,0,0,1,808.915,128.086Z" transform="translate(-746.551 -117.96)" fill="#3f3d56"/>
      <path id="Path_702" data-name="Path 702" d="M879.328,174.938a5.1,5.1,0,0,0-1.391,2.88,4.395,4.395,0,0,0,4.366-4.054A5.1,5.1,0,0,0,879.328,174.938Z" transform="translate(-812.664 -160.61)" fill="#3f3d56"/>
      <path id="Path_703" data-name="Path 703" d="M856.039,338.011a5.1,5.1,0,0,0-2.513,1.978,4.395,4.395,0,0,0,5.7-1.729A5.1,5.1,0,0,0,856.039,338.011Z" transform="translate(-790.283 -311.05)" fill="#3f3d56"/>
      <path id="Path_704" data-name="Path 704" d="M739.455,191.347l.15.02a3.923,3.923,0,0,1,.928-2.086,7.117,7.117,0,0,1,2.956-1.665c.2-.074.4-.149.6-.226a12.343,12.343,0,0,0,2.319-1.163,11.823,11.823,0,0,0,4.884-8.816,22.87,22.87,0,0,0-1.714-10.156l-.142.053a22.724,22.724,0,0,1,1.705,10.088,11.671,11.671,0,0,1-4.817,8.7,12.2,12.2,0,0,1-2.291,1.149c-.2.076-.4.15-.6.225a7.227,7.227,0,0,0-3.016,1.705A4.077,4.077,0,0,0,739.455,191.347Z" transform="translate(-685.697 -154.643)" fill="#3f3d56"/>
      <circle id="Ellipse_92" data-name="Ellipse 92" cx="1.436" cy="1.436" r="1.436" transform="translate(57.9 5.483)" fill="#3f3d56"/>
      <path id="Path_705" data-name="Path 705" d="M460.893,53.771h0c3.829,0,6.933,3.445,6.933,7.694v5.4h-1.66l-.961-2,.24,2H454.772l-.874-1.818.219,1.818h-1.2V62.625C452.915,57.735,456.487,53.771,460.893,53.771Z" transform="translate(-422.985 -50.595)" fill="#2f2e41"/>
      <path id="Path_706" data-name="Path 706" d="M396.112,515.259s-1.765,5.149.589,5,2.207-5.591,2.207-5.591Z" transform="translate(-370.323 -473.168)" fill="#ffb9b9"/>
      <path id="Path_707" data-name="Path 707" d="M390.282,233.373h-1.618l-1.471,14.27s-1.618.147-.883,1.765.736,1.03.588,2.207-.294,1.765-.294,1.913.736,0,0,1.03-1.177,1.471-1.177,2.06a7.8,7.8,0,0,0,.736,2.06s3.531-2.354,3.825-.441l1.913-10,.588-7.062Z" transform="translate(-361.11 -215.262)" fill="#6adbbd"/>
      <path id="Path_708" data-name="Path 708" d="M512.389,240.75h1.177l-.589,16.183-2.942-6.179Z" transform="translate(-467.622 -220.727)" fill="#6adbbd"/>
      <path id="Path_709" data-name="Path 709" d="M512.389,240.75h1.177l-.589,16.183-2.942-6.179Z" transform="translate(-467.622 -220.727)" opacity="0.1"/>
      <path id="Path_710" data-name="Path 710" d="M512.184,576.53q-.007.4-.049.784-.022.207-.054.413c-.011.067-.021.132-.033.2q-.2.1-.4.19a22.685,22.685,0,0,1-5.755,1.776q-1.067.179-2.166.258-.82.059-1.654.059a22.991,22.991,0,0,1-4.042-.356l-1.144-11.819,4.991-.768,3.037-.468,3.567-.549,1.344-.207.449-.069s1.78,1.653,1.913,8.831Q512.2,575.618,512.184,576.53Z" transform="translate(-463.298 -520.203)" fill="#6adbbd"/>
      <path id="Path_711" data-name="Path 711" d="M512.184,576.53q-.007.4-.049.784-.022.207-.054.413c-.011.067-.021.132-.033.2q-.2.1-.4.19a22.685,22.685,0,0,1-5.755,1.776q-1.067.179-2.166.258-.82.059-1.654.059a22.991,22.991,0,0,1-4.042-.356l-1.144-11.819,4.991-.768,3.037-.468,3.567-.549,1.344-.207.449-.069s1.78,1.653,1.913,8.831Q512.2,575.618,512.184,576.53Z" transform="translate(-463.298 -520.203)" opacity="0.1"/>
      <path id="Path_712" data-name="Path 712" d="M584.641,598.233a22.681,22.681,0,0,1-5.755,1.776l-1.521-7-.531-2.442-.334-1.538s.513-.185,1.255-.405a11.894,11.894,0,0,1,4.5-.657,1.346,1.346,0,0,1,.718.327,1.641,1.641,0,0,1,.3.594,22.024,22.024,0,0,1,.682,3.377C584.215,594.063,584.449,596.22,584.641,598.233Z" transform="translate(-536.293 -540.322)" fill="#ffb9b9"/>
      <circle id="Ellipse_93" data-name="Ellipse 93" cx="4.561" cy="4.561" r="4.561" transform="translate(34.248 5.826)" fill="#ffb9b9"/>
      <path id="Path_713" data-name="Path 713" d="M483.481,169.683s.588,3.678-2.8,4.708,7.209,15.889,7.209,15.889,4.708-13.094,3.531-14.271c0,0-4.266-.588-3.825-3.089s.736-2.8.736-2.8Z" transform="translate(-447.836 -156.868)" fill="#ffb9b9"/>
      <path id="Path_714" data-name="Path 714" d="M449.883,435.618l10.151-2.648-5.443-13.535Z" transform="translate(-412.472 -384.553)" fill="#3f3d56"/>
      <path id="Path_715" data-name="Path 715" d="M445.68,252.856v9.121c-.015-.143-.031-.286-.049-.428a27.791,27.791,0,0,0-1.178-5.163c-.367-1.13-.784-2.216-1.223-3.236q-.235-.544-.475-1.062c-.259-.561-.521-1.1-.781-1.6a42.4,42.4,0,0,0-3.061-5.13l-.506,5.679-.152,1.713-.155,1.743-.235,2.642-.645,7.254q-.82.059-1.654.059a22.991,22.991,0,0,1-4.042-.356,22.727,22.727,0,0,1-6.154-2.034l3.1-25.085a2.259,2.259,0,0,1-.147-2.8l-.376-1.085-3.6-10.39a.686.686,0,0,1,.044-.147c.606-1.434,5.971-.874,5.971-.874,3.661,3.246,6.2,13.232,6.2,13.232a15.556,15.556,0,0,0,1.361-12.128h0c.772-.507,4.818,1.684,4.818,1.684L442,229.023a8.657,8.657,0,0,1-1.471,6.032l1.643,4.928,1.3,3.9.883,3.089s1.03,2.06.735,3.09A5.21,5.21,0,0,0,445.68,252.856Z" transform="translate(-396.793 -204.439)" fill="#6adbbd"/>
      <path id="Path_716" data-name="Path 716" d="M465.492,59.285a3.636,3.636,0,0,1,2.869-1.464h.136a5.051,5.051,0,0,1,4.752,5.3h-.879l-.142-1.081-.208,1.081H466.8l-.437-.915.109.915H465.45q-.718,3.567,2.064,7.133h-1.748l-.874-1.829.218,1.829h-3.332l-.655-4.207A7.11,7.11,0,0,1,465.492,59.285Z" transform="translate(-430.511 -54.308)" fill="#2f2e41"/>
      <circle id="Ellipse_95" data-name="Ellipse 95" cx="1.247" cy="1.247" r="1.247" transform="translate(15.384 53.619)" fill="#6adbbd"/>
      <circle id="Ellipse_96" data-name="Ellipse 96" cx="2.245" cy="2.245" r="2.245" transform="translate(0 25.845)" fill="#3f3d56"/>
      <circle id="Ellipse_97" data-name="Ellipse 97" cx="1.414" cy="1.414" r="1.414" transform="translate(72.347 41.561)" fill="#3f3d56"/>
    </g>
  </g>
</svg>
