<svg id="Logo" xmlns="http://www.w3.org/2000/svg" width="152.208" height="50" viewBox="0 0 152.208 50">
  <path id="Fill-2" d="M0,50H50V0H0Z" fill="#c80000" fill-rule="evenodd"/>
  <g id="Group-31" transform="translate(3.312 20.303)">
    <path id="Fill-3" d="M36.526,7.788H33.868a.165.165,0,0,0-.137.073,2.776,2.776,0,0,1-2.445,1.486,3.049,3.049,0,0,1-2.933-3.226,3.008,3.008,0,0,1,2.92-3.166A2.755,2.755,0,0,1,33.74,4.478l.016.03a.168.168,0,0,0,.137.071h2.663a.164.164,0,0,0,.163-.163.167.167,0,0,0-.005-.041c0-.008,0-.016-.007-.023a5.64,5.64,0,1,0-.031,3.665L36.681,8a.159.159,0,0,0,.008-.051.165.165,0,0,0-.163-.164" transform="translate(-14.961 -0.516)" fill="#fff" fill-rule="evenodd"/>
    <path id="Fill-5" d="M64.21,7.788H61.552a.165.165,0,0,0-.137.073,2.776,2.776,0,0,1-2.444,1.486,3.049,3.049,0,0,1-2.934-3.226,3.008,3.008,0,0,1,2.92-3.166,2.755,2.755,0,0,1,2.467,1.524l.017.03a.166.166,0,0,0,.137.071H64.24a.164.164,0,0,0,.163-.163.135.135,0,0,0-.005-.041c0-.008,0-.016-.007-.023a5.64,5.64,0,1,0-.031,3.665.081.081,0,0,0,0-.013.16.16,0,0,0,.009-.051.164.164,0,0,0-.163-.164" transform="translate(-30.815 -0.516)" fill="#fff" fill-rule="evenodd"/>
    <path id="Fill-7" d="M7.256,7.966l-.006-.019-1-3.348a.1.1,0,0,0-.1-.075.1.1,0,0,0-.094.072L5.044,7.952l0,.013a.072.072,0,0,0,0,.019.1.1,0,0,0,.1.1H7.16a.1.1,0,0,0,.1-.1A.131.131,0,0,0,7.256,7.966Zm.807,2.414a.165.165,0,0,0-.152-.1H4.355a.167.167,0,0,0-.152.1l-.5,1.368h0a.163.163,0,0,1-.15.1H.915a.164.164,0,0,1-.165-.163.151.151,0,0,1,.012-.059l0-.007L5.007,1.108,5.012,1.1a.165.165,0,0,1,.15-.1H7.138a.163.163,0,0,1,.146.092l.009.021,4.194,10.5.009.022a.144.144,0,0,1,.008.05.163.163,0,0,1-.163.163H8.678a.165.165,0,0,1-.152-.1l0,0Z" transform="translate(-0.75 -0.79)" fill="#fff" fill-rule="evenodd"/>
    <path id="Fill-9" d="M85.687,7.966l-.006-.019-1-3.348a.1.1,0,0,0-.1-.075.1.1,0,0,0-.094.072l-1.01,3.356,0,.013a.074.074,0,0,0,0,.019.1.1,0,0,0,.1.1h2.026a.1.1,0,0,0,.1-.1A.134.134,0,0,0,85.687,7.966Zm.807,2.414a.165.165,0,0,0-.152-.1H82.787a.167.167,0,0,0-.152.1l-.5,1.368h0a.164.164,0,0,1-.151.1H79.347a.164.164,0,0,1-.165-.163.15.15,0,0,1,.012-.059l0-.007L83.438,1.108l.005-.012a.165.165,0,0,1,.15-.1h1.976a.163.163,0,0,1,.146.092l.009.021,4.195,10.5.008.022a.144.144,0,0,1,.008.05.163.163,0,0,1-.163.163H87.109a.164.164,0,0,1-.152-.1l0,0Z" transform="translate(-45.664 -0.79)" fill="#fff" fill-rule="evenodd"/>
    <path id="Fill-11" d="M139.575,12.027h1.033l.057-7.645h-2.338l-.058,1.455h-1.434l.057-2.625H146l.057,2.625h-1.435l-.057-1.455h-2.295l-.058,7.645h1.162V13.2h-3.8Z" transform="translate(-78.679 -2.057)" fill="#fbfbfc" fill-rule="evenodd"/>
    <path id="Fill-13" d="M159.691,10.708h.846l.057-8.63h-1.076V.909h2.74l-.042,3.552a10.6,10.6,0,0,1-.187,1.641h.029a2.572,2.572,0,0,1,2.625-1.812c1.75,0,2.6,1.1,2.6,2.867,0,1.184-.043,2.368-.058,3.552h.975v1.17h-3.428v-1.17h.846c.014-1.084.058-2.182.058-3.266,0-1.041-.488-1.812-1.507-1.812A2.046,2.046,0,0,0,162.2,7.884l-.057,2.824h1v1.17h-3.457Z" transform="translate(-91.669 -0.738)" fill="#fbfbfc" fill-rule="evenodd"/>
    <path id="Fill-15" d="M183.633.508a1.1,1.1,0,1,1-1.1,1.1A1.093,1.093,0,0,1,183.633.508Zm-1.808,9.97h.975L182.83,5.4H181.7V4.231h2.74l-.029,6.247h1v1.17h-3.586Z" transform="translate(-104.37 -0.508)" fill="#fbfbfc" fill-rule="evenodd"/>
    <path id="Fill-17" d="M192.637,15.238h.846l.029-5.078h-1.047V8.991h2.654a10.127,10.127,0,0,1-.143,1.641H195A2.572,2.572,0,0,1,197.63,8.82c1.75,0,2.6,1.1,2.6,2.867,0,1.184-.043,2.368-.058,3.552h.975v1.17h-3.428v-1.17h.846c.014-1.084.057-2.182.057-3.266,0-1.041-.488-1.812-1.507-1.812a2.046,2.046,0,0,0-1.965,2.253l-.057,2.824h1v1.17h-3.457Z" transform="translate(-110.535 -5.268)" fill="#fbfbfc" fill-rule="evenodd"/>
    <path id="Fill-19" d="M214.653,10.708h.9l.058-8.63h-1.3V.909h2.912l-.057,6.776,2.64-2.026V5.631h-1.062V4.461h3.5v1.17H221.5l-2.668,2.2,2.884,2.882h.846v1.17h-3.586v-1.17h.875l-2.683-2.6v2.6h.9v1.17h-3.415Z" transform="translate(-123.045 -0.738)" fill="#fbfbfc" fill-rule="evenodd"/>
    <path id="Fill-21" d="M248.757,5.466a6,6,0,0,1-.258-.913h-.029a5.347,5.347,0,0,1-.273.913l-1.1,2.824h2.654Zm-5.523,6.561h.861l3.644-8.815h1.779l3.371,8.815h.889V13.2H250.1v-1.17h.918l-.86-2.482h-3.529l-.932,2.482h1.033V13.2h-3.5Z" transform="translate(-139.608 -2.057)" fill="#fbfbfc" fill-rule="evenodd"/>
    <path id="Fill-23" d="M269.677,10.708h.846l.057-8.63H269.5V.909h2.74L272.2,4.461a10.606,10.606,0,0,1-.187,1.641h.029a2.572,2.572,0,0,1,2.625-1.812c1.75,0,2.6,1.1,2.6,2.867,0,1.184-.043,2.368-.057,3.552h.975v1.17h-3.428v-1.17h.846c.014-1.084.058-2.182.058-3.266,0-1.041-.488-1.812-1.507-1.812a2.046,2.046,0,0,0-1.965,2.253l-.057,2.824h1v1.17h-3.457Z" transform="translate(-154.652 -0.738)" fill="#fbfbfc" fill-rule="evenodd"/>
    <path id="Fill-25" d="M297.22,11.872V11.73a1.7,1.7,0,0,0-1.764-1.74,1.8,1.8,0,0,0-1.879,1.883Zm1.219,4.193a7.206,7.206,0,0,1-2.625.514,3.622,3.622,0,0,1-3.931-3.851c0-2.2,1.248-3.908,3.658-3.908,2.238,0,3.372,1.626,3.372,3.923v.214h-5.336a2.354,2.354,0,0,0,2.553,2.368,5.305,5.305,0,0,0,2.4-.57Z" transform="translate(-167.467 -5.268)" fill="#fbfbfc" fill-rule="evenodd"/>
    <path id="Fill-27" d="M314.074,15.324A1.847,1.847,0,0,0,316,13.441v-.3c-1.664.014-3.113.085-3.113,1.183C312.884,14.882,313.314,15.324,314.074,15.324ZM311.593,9.49a6.451,6.451,0,0,1,2.955-.67c2.209,0,2.911,1.084,2.911,2.838,0,1.2-.043,2.383-.058,3.58h1v1.17H316.04a9.539,9.539,0,0,1,.13-1.54h-.029a2.393,2.393,0,0,1-2.482,1.711,2.113,2.113,0,0,1-2.381-2.126c0-1.954,1.994-2.21,3.214-2.267l1.535-.086v-.556c0-.913-.33-1.555-1.649-1.555a3.921,3.921,0,0,0-1.349.257V11.33h-1.434Z" transform="translate(-178.573 -5.268)" fill="#fbfbfc" fill-rule="evenodd"/>
    <path id="Fill-29" d="M335.857,5.859a2.836,2.836,0,0,0-1.421-.314,2.455,2.455,0,0,0-2.309,2.739c0,1.383.6,2.424,1.808,2.424,1.291,0,1.923-1.056,1.923-2.781Zm2.582,6.02h-2.525a9.476,9.476,0,0,1,.143-1.512h-.029a2.5,2.5,0,0,1-2.481,1.683c-1.793,0-3.113-1.313-3.113-3.523,0-2.454,1.464-4.237,4-4.237a6.784,6.784,0,0,1,1.478.171l.029-2.382H334.58V.909h2.912l-.058,9.8h1Z" transform="translate(-189.544 -0.738)" fill="#fbfbfc" fill-rule="evenodd"/>
  </g>
</svg>
