<svg xmlns="http://www.w3.org/2000/svg" xmlns:xlink="http://www.w3.org/1999/xlink" width="105" height="60.096" viewBox="0 0 105 60.096">
  <defs>
    <linearGradient id="linear-gradient" x1="0.5" y1="1" x2="0.5" gradientUnits="objectBoundingBox">
      <stop offset="0" stop-color="gray" stop-opacity="0.251"/>
      <stop offset="0.54" stop-color="gray" stop-opacity="0.122"/>
      <stop offset="1" stop-color="gray" stop-opacity="0.102"/>
    </linearGradient>
    <linearGradient id="linear-gradient-2" x1="0.503" y1="1" x2="0.503" y2="-0.002" xlink:href="#linear-gradient"/>
    <linearGradient id="linear-gradient-3" x1="0.927" y1="1" x2="0.927" y2="0" xlink:href="#linear-gradient"/>
  </defs>
  <g id="Group_791" data-name="Group 791" transform="translate(1765 2648)">
    <rect id="Rectangle_853" data-name="Rectangle 853" width="105" height="60" transform="translate(-1765 -2648)" fill="none"/>
    <g id="blog" transform="translate(-1756.995 -2648.008)">
      <path id="Path_723" data-name="Path 723" d="M80.115,82.154c3.019,3.839,1.846,9.447-.072,13.939-.643,1.5-1.369,3.095-1.1,4.707.331,1.972,2.091,3.414,3.939,4.178a11.724,11.724,0,0,0,10.5-.865c2.675-1.664,4.59-4.37,7.311-5.958,4.553-2.658,10.348-1.654,15.291.177,3.5,1.295,7.322,2.979,10.8,1.626a9.5,9.5,0,0,0,5.057-5.729,10.181,10.181,0,0,1,1.617-3.411,6.07,6.07,0,0,1,1.839-1.291c6.163-3.056,13.946-1.419,19.932-4.808,4.042-2.287,6.631-6.606,7.776-11.108s1.016-9.223.722-13.859c-.207-3.3-.578-6.813-2.683-9.356-2.227-2.69-6.05-3.691-9.5-3.179a20.474,20.474,0,0,0-9.342,4.48c-3.443,2.683-6.636,6.023-10.863,7.114-2.88.74-5.907.339-8.877.195a91.988,91.988,0,0,0-14.866.857,66.793,66.793,0,0,0-13.988,2.685c-3.185,1.084-5.738,3.059-8.746,4.435-1.961.9-4.1,1.148-5.956,2.293-2.287,1.411-4.384,3.865-3.8,6.737C75.652,78.747,78.512,80.116,80.115,82.154Z" transform="translate(-75 -47.08)" fill="#6adbbd" opacity="0.1"/>
      <path id="Path_724" data-name="Path 724" d="M174.543,400.212s-.279-8.28-4.759-12.958a12.55,12.55,0,0,1-3.442-7.155,21.111,21.111,0,0,1-.105-3.859" transform="translate(-158.475 -348.355)" fill="none" stroke="#535461" stroke-miterlimit="10" stroke-width="2"/>
      <path id="Path_725" data-name="Path 725" d="M132.606,316.186c.307.925,2.869,3.049,2.869,3.049s.785-3.236.479-4.16a1.764,1.764,0,0,0-3.348,1.11Z" transform="translate(-127.649 -291.264)" fill="#6adbbd"/>
      <path id="Path_726" data-name="Path 726" d="M114.455,379.118c.762.61,4.065,1,4.065,1s-1.1-3.143-1.863-3.752a1.763,1.763,0,0,0-2.2,2.751Z" transform="translate(-110.564 -348.159)" fill="#6adbbd"/>
      <path id="Path_727" data-name="Path 727" d="M140.374,477.519c.964.142,4.015-1.186,4.015-1.186s-2.536-2.158-3.5-2.3a1.764,1.764,0,1,0-.516,3.489Z" transform="translate(-133.464 -437.848)" fill="#6adbbd"/>
      <path id="Path_728" data-name="Path 728" d="M188.016,549.964c.926.3,4.158-.493,4.158-.493s-2.135-2.555-3.061-2.858a1.764,1.764,0,1,0-1.1,3.351Z" transform="translate(-177.335 -504.218)" fill="#6adbbd"/>
      <path id="Path_729" data-name="Path 729" d="M174.5,384.863c-.45.864-3.317,2.556-3.317,2.556s-.261-3.319.189-4.184a1.763,1.763,0,1,1,3.129,1.628Z" transform="translate(-162.977 -353.889)" fill="#6adbbd"/>
      <path id="Path_730" data-name="Path 730" d="M219.71,464.763c-.688.69-3.93,1.446-3.93,1.446s.744-3.245,1.431-3.936a1.763,1.763,0,1,1,2.5,2.489Z" transform="translate(-203.862 -426.627)" fill="#6adbbd"/>
      <path id="Path_731" data-name="Path 731" d="M261.259,555.725c-.561.8-3.629,2.089-3.629,2.089s.185-3.324.746-4.121a1.763,1.763,0,1,1,2.88,2.033Z" transform="translate(-242.168 -510.052)" fill="#6adbbd"/>
      <path id="Path_732" data-name="Path 732" d="M705.3,591.254a1.679,1.679,0,0,0-1.992.729,2.161,2.161,0,0,0,.029,2.081,3.055,3.055,0,0,0,2.964,1.677,2.125,2.125,0,0,0,2-2.149,2.207,2.207,0,0,0-2.931-2.363Z" transform="translate(-649.869 -545.019)" fill="#6adbbd"/>
      <path id="Path_733" data-name="Path 733" d="M703.64,593.77a2.161,2.161,0,0,1-.029-2.081,1.677,1.677,0,0,1,1.992-.729l.069-.025a2.188,2.188,0,0,1,1.58.036,2.189,2.189,0,0,0-1.863-.178l-.069.025a1.679,1.679,0,0,0-1.992.729,2.161,2.161,0,0,0,.029,2.081,3.215,3.215,0,0,0,1.524,1.44A3.333,3.333,0,0,1,703.64,593.77Z" transform="translate(-649.888 -544.618)" fill="#fff" opacity="0.1"/>
      <path id="Path_734" data-name="Path 734" d="M721.36,599.64s.5.392,1.709,0" transform="translate(-666.623 -552.835)" opacity="0.2"/>
      <path id="Path_735" data-name="Path 735" d="M720.1,566a13.282,13.282,0,0,1,.783,2.92l.678-.071s-1.14-2.033-.854-2.849Z" transform="translate(-665.47 -522.044)" fill="#6adbbd"/>
      <path id="Path_736" data-name="Path 736" d="M720.1,566a13.282,13.282,0,0,1,.783,2.92l.678-.071s-1.14-2.033-.854-2.849Z" transform="translate(-665.47 -522.044)" opacity="0.2"/>
      <path id="Path_737" data-name="Path 737" d="M732.732,564.558s-1.345-.688-1.948-.119a3.768,3.768,0,0,0-.694,2.021A2.349,2.349,0,0,0,732.732,564.558Z" transform="translate(-674.614 -520.41)" fill="#6adbbd"/>
      <path id="Path_738" data-name="Path 738" d="M732.732,564.558s-1.345-.688-1.948-.119a3.768,3.768,0,0,0-.694,2.021A2.349,2.349,0,0,0,732.732,564.558Z" transform="translate(-674.614 -520.41)" fill="#fff" opacity="0.1"/>
      <path id="Path_739" data-name="Path 739" d="M730.1,570.181a2.725,2.725,0,0,1,2.641-1.9" transform="translate(-674.623 -524.131)" fill="none" stroke="#6adbbd" stroke-miterlimit="10" stroke-width="1"/>
      <path id="Path_740" data-name="Path 740" d="M236.984,327.347s.274-4.477-1.9-7.228a6.8,6.8,0,0,1-1.488-4.033,11.433,11.433,0,0,1,.142-2.086" transform="translate(-220.166 -291.387)" fill="none" stroke="#535461" stroke-miterlimit="10" stroke-width="2"/>
      <path id="Path_741" data-name="Path 741" d="M218.983,280.8a7.564,7.564,0,0,0,1.39,1.791,7.459,7.459,0,0,0,.472-2.217.955.955,0,0,0-1.863.423Z" transform="translate(-206.77 -259.925)" fill="#6adbbd"/>
      <path id="Path_742" data-name="Path 742" d="M205.672,313.511a7.571,7.571,0,0,0,2.14.749,7.546,7.546,0,0,0-.81-2.117.955.955,0,1,0-1.331,1.369Z" transform="translate(-194.345 -289.439)" fill="#6adbbd"/>
      <path id="Path_743" data-name="Path 743" d="M214.9,368.151a7.6,7.6,0,0,0,2.225-.434,7.57,7.57,0,0,0-1.768-1.419.955.955,0,1,0-.457,1.854Z" transform="translate(-202.392 -339.229)" fill="#6adbbd"/>
      <path id="Path_744" data-name="Path 744" d="M236.879,409.694a7.566,7.566,0,0,0,2.266-.053s-1.016-1.487-1.5-1.694a.954.954,0,1,0-.762,1.75Z" transform="translate(-222.651 -377.305)" fill="#6adbbd"/>
      <path id="Path_745" data-name="Path 745" d="M236.669,320.02a7.549,7.549,0,0,1-1.919,1.207,7.555,7.555,0,0,1,.317-2.245.955.955,0,1,1,1.6,1.038Z" transform="translate(-221.225 -295.548)" fill="#6adbbd"/>
      <path id="Path_746" data-name="Path 746" d="M256.863,365.875a7.5,7.5,0,0,1-2.193.578,7.559,7.559,0,0,1,.974-2.048.955.955,0,0,1,1.219,1.47Z" transform="translate(-239.458 -337.322)" fill="#6adbbd"/>
      <path id="Path_747" data-name="Path 747" d="M274.333,417.04a7.559,7.559,0,0,1-2.063.94,7.58,7.58,0,0,1,.614-2.182.955.955,0,1,1,1.45,1.243Z" transform="translate(-255.568 -384.257)" fill="#6adbbd"/>
      <path id="Path_748" data-name="Path 748" d="M218.983,280.8a7.564,7.564,0,0,0,1.39,1.791,7.459,7.459,0,0,0,.472-2.217.955.955,0,0,0-1.863.423Z" transform="translate(-206.77 -259.925)" fill="#fff" opacity="0.5"/>
      <path id="Path_749" data-name="Path 749" d="M205.672,313.511a7.571,7.571,0,0,0,2.14.749,7.546,7.546,0,0,0-.81-2.117.955.955,0,1,0-1.331,1.369Z" transform="translate(-194.345 -289.439)" fill="#fff" opacity="0.5"/>
      <path id="Path_750" data-name="Path 750" d="M214.9,368.151a7.6,7.6,0,0,0,2.225-.434,7.57,7.57,0,0,0-1.768-1.419.955.955,0,1,0-.457,1.854Z" transform="translate(-202.392 -339.229)" fill="#fff" opacity="0.5"/>
      <path id="Path_751" data-name="Path 751" d="M236.879,409.694a7.566,7.566,0,0,0,2.266-.053s-1.016-1.487-1.5-1.694a.954.954,0,1,0-.762,1.75Z" transform="translate(-222.651 -377.305)" fill="#fff" opacity="0.5"/>
      <path id="Path_752" data-name="Path 752" d="M236.669,320.02a7.549,7.549,0,0,1-1.919,1.207,7.555,7.555,0,0,1,.317-2.245.955.955,0,1,1,1.6,1.038Z" transform="translate(-221.225 -295.548)" fill="#fff" opacity="0.5"/>
      <path id="Path_753" data-name="Path 753" d="M256.863,365.875a7.5,7.5,0,0,1-2.193.578,7.559,7.559,0,0,1,.974-2.048.955.955,0,0,1,1.219,1.47Z" transform="translate(-239.458 -337.322)" fill="#fff" opacity="0.5"/>
      <path id="Path_754" data-name="Path 754" d="M274.333,417.04a7.559,7.559,0,0,1-2.063.94,7.58,7.58,0,0,1,.614-2.182.955.955,0,1,1,1.45,1.243Z" transform="translate(-255.568 -384.257)" fill="#fff" opacity="0.5"/>
      <path id="Path_755" data-name="Path 755" d="M504.5,20.39V49.521h42.763V20.39Z" transform="translate(-461.778 -18.656)" fill="url(#linear-gradient)"/>
      <rect id="Rectangle_794" data-name="Rectangle 794" width="41.675" height="27.282" transform="translate(43.357 3.055)" fill="#fff"/>
      <rect id="Rectangle_795" data-name="Rectangle 795" width="41.675" height="2.007" transform="translate(43.357 1.758)" fill="#eee"/>
      <circle id="Ellipse_98" data-name="Ellipse 98" cx="0.487" cy="0.487" r="0.487" transform="translate(44.455 2.244)" fill="#ff5252"/>
      <circle id="Ellipse_99" data-name="Ellipse 99" cx="0.487" cy="0.487" r="0.487" transform="translate(45.794 2.244)" fill="#ff0"/>
      <circle id="Ellipse_100" data-name="Ellipse 100" cx="0.487" cy="0.487" r="0.487" transform="translate(47.132 2.244)" fill="#69f0ae"/>
      <rect id="Rectangle_796" data-name="Rectangle 796" width="15.53" height="0.647" transform="translate(44.954 6.98)" fill="#6adbbd" opacity="0.5"/>
      <rect id="Rectangle_797" data-name="Rectangle 797" width="15.53" height="0.647" transform="translate(44.954 8.274)" fill="#6adbbd" opacity="0.5"/>
      <rect id="Rectangle_798" data-name="Rectangle 798" width="15.53" height="0.647" transform="translate(44.954 9.568)" fill="#6adbbd" opacity="0.5"/>
      <rect id="Rectangle_799" data-name="Rectangle 799" width="10.177" height="0.647" transform="translate(50.306 10.862)" fill="#6adbbd" opacity="0.5"/>
      <rect id="Rectangle_800" data-name="Rectangle 800" width="8.177" height="0.647" transform="translate(44.954 12.157)" fill="#6adbbd" opacity="0.5"/>
      <rect id="Rectangle_801" data-name="Rectangle 801" width="6.294" height="0.647" transform="translate(49.365 13.451)" fill="#6adbbd" opacity="0.5"/>
      <rect id="Rectangle_802" data-name="Rectangle 802" width="18.295" height="10.53" transform="translate(62.543 11.51)" fill="#6adbbd" opacity="0.5"/>
      <rect id="Rectangle_803" data-name="Rectangle 803" width="18.295" height="10.53" transform="translate(64.719 12.51)" fill="#eee"/>
      <path id="Path_756" data-name="Path 756" d="M849.466,288.31H839.23v-1.926C841.731,285.215,845.578,284.559,849.466,288.31Z" transform="translate(-774.511 -265.273)" fill="#6adbbd"/>
      <g id="Group_775" data-name="Group 775" transform="translate(70.131 20.197)" opacity="0.1">
        <path id="Path_757" data-name="Path 757" d="M915.9,288.034v.273H903.13v-.058S909.412,282.135,915.9,288.034Z" transform="translate(-903.13 -285.467)"/>
      </g>
      <path id="Path_758" data-name="Path 758" d="M917.286,288.034v.273H904.52v-.058S910.8,282.135,917.286,288.034Z" transform="translate(-834.271 -265.27)" fill="#6adbbd"/>
      <circle id="Ellipse_101" data-name="Ellipse 101" cx="0.941" cy="0.941" r="0.941" transform="translate(65.896 13.451)" fill="#6adbbd"/>
      <path id="Path_759" data-name="Path 759" d="M948.361,208.208c-.108,0-.228,0-.309.007a.376.376,0,0,0-.108.022l-.554.2c.447.011.914.008,1.371,0l2.57-.02c.262,0,.538,0,.756-.02.146-.01.254-.026.389-.038.486-.043,1.2-.035,1.829-.033a9.992,9.992,0,0,0,1.621-.078h-1.359c-.147,0-.3,0-.43-.008-.152-.008-.244-.025-.377-.037-.22-.019-.523-.021-.806-.022C951.405,208.179,949.875,208.216,948.361,208.208Z" transform="translate(-873.51 -194.529)" fill="#f4f4f4"/>
      <path id="Path_760" data-name="Path 760" d="M974.59,221.942h-.067a.084.084,0,0,0-.023.005l-.12.043h.3l.556,0c.057,0,.116,0,.163,0l.085-.008c.1-.009.259-.008.4-.007a2.159,2.159,0,0,0,.351-.017h-.388c-.028,0-.052-.006-.085-.008-.047,0-.114,0-.174-.005C975.249,221.935,974.918,221.942,974.59,221.942Z" transform="translate(-898.215 -207.12)" fill="#f4f4f4"/>
      <path id="Path_761" data-name="Path 761" d="M928.05,241.384h-.067a.085.085,0,0,0-.023.005l-.12.043h.3l.556,0c.057,0,.116,0,.163,0l.085-.008c.105-.009.259-.008.4-.007a2.158,2.158,0,0,0,.352-.017H929.3c-.028,0-.053-.006-.085-.008-.047,0-.113,0-.174-.005C928.71,241.378,928.378,241.386,928.05,241.384Z" transform="translate(-855.616 -224.916)" fill="#f4f4f4"/>
      <path id="Path_762" data-name="Path 762" d="M899.284,244.451h-.439s-.138-4.838.442-6.331h.111S899.007,243.594,899.284,244.451Z" transform="translate(-829.064 -221.933)" fill="#6adbbd"/>
      <path id="Path_763" data-name="Path 763" d="M885.066,208.93a3.044,3.044,0,0,0-.193,1.44s.249-.912.539-1.05.593,1.05.593,1.05a2.28,2.28,0,0,0-.138-1.355,2.4,2.4,0,0,1,.912.967s.055-.415-.663-1.27a2.859,2.859,0,0,1,1.05.553s.138-.3-.719-.8c0,0,.111-.359.774-.193,0,0,0-.47-1.05-.387,0,0,0-.3.691-.249,0,0,0-.387-.8-.249a1.291,1.291,0,0,1,.276-.3.556.556,0,0,0-.387.111.748.748,0,0,0-.387-.691l-.055.691s-.465-.548-.359-.442a1.212,1.212,0,0,1,.085.525.861.861,0,0,0-1.05.028s.719.055.829.3a2.088,2.088,0,0,0-.746-.028s.47.169.442.276c0,0-.829,0-.94.3a4.2,4.2,0,0,1,.912.193,5.853,5.853,0,0,0-1.05.912,7.936,7.936,0,0,1,1.186-.608c.163,0-.746.885-.691,1.106C884.127,209.761,884.873,208.874,885.066,208.93Z" transform="translate(-815.15 -192.991)" fill="#6adbbd"/>
      <path id="Path_764" data-name="Path 764" d="M967.695,258.467h.339s.106-3.7-.339-4.837h-.085A34.772,34.772,0,0,1,967.695,258.467Z" transform="translate(-892.018 -236.13)" fill="#6adbbd"/>
      <path id="Path_765" data-name="Path 765" d="M953.547,231.353a2.339,2.339,0,0,1,.148,1.1s-.19-.7-.412-.8-.454.8-.454.8a1.76,1.76,0,0,1,.106-1.035,1.836,1.836,0,0,0-.7.739s-.042-.317.508-.971a2.141,2.141,0,0,0-.8.423s-.106-.232.549-.612c0,0-.085-.274-.593-.148,0,0,0-.359.8-.3,0,0,0-.232-.528-.19,0,0,0-.3.612-.19a.931.931,0,0,0-.211-.232.423.423,0,0,1,.3.085.571.571,0,0,1,.3-.528l.042.528s.355-.418.274-.339a.927.927,0,0,0-.063.4.659.659,0,0,1,.8.021s-.549.042-.633.232a1.593,1.593,0,0,1,.57-.021s-.359.127-.339.211c0,0,.633,0,.718.232a3.175,3.175,0,0,0-.7.148s.762.549.8.7a6,6,0,0,0-.908-.465c-.126,0,.57.678.528.847C954.266,231.987,953.7,231.311,953.547,231.353Z" transform="translate(-877.639 -214.043)" fill="#6adbbd"/>
      <path id="Path_766" data-name="Path 766" d="M1015.782,269.836h.209a13,13,0,0,0-.209-3h-.052A21.552,21.552,0,0,1,1015.782,269.836Z" transform="translate(-936.063 -248.221)" fill="#6adbbd"/>
      <path id="Path_767" data-name="Path 767" d="M1006.971,252.993a1.44,1.44,0,0,1,.091.678s-.118-.432-.254-.5-.281.5-.281.5a1.092,1.092,0,0,1,.065-.641,1.137,1.137,0,0,0-.432.458s-.026-.2.314-.6a1.327,1.327,0,0,0-.5.262s-.065-.144.339-.379c0,0-.052-.169-.366-.091,0,0,0-.223.5-.183,0,0,0-.144-.327-.118,0,0,0-.183.379-.118a.574.574,0,0,0-.13-.144.263.263,0,0,1,.183.053.354.354,0,0,1,.183-.327l.026.327s.22-.259.169-.209a.573.573,0,0,0-.039.248.407.407,0,0,1,.5.013s-.339.026-.392.144a.978.978,0,0,1,.353-.013s-.223.079-.209.13c0,0,.392,0,.445.144a1.989,1.989,0,0,0-.432.091s.471.339.5.432a3.687,3.687,0,0,0-.562-.288c-.079,0,.353.418.327.523C1007.419,253.385,1007.066,252.966,1006.971,252.993Z" transform="translate(-927.111 -234.491)" fill="#6adbbd"/>
      <path id="Path_768" data-name="Path 768" d="M913.136,261.165h0l-.044-.235a.128.128,0,0,0-.04-.092l-.2-.1h0a.232.232,0,0,1-.036-.061v-.005a.124.124,0,0,0,.024-.048.084.084,0,0,0,0-.014h0a.075.075,0,0,0,.085-.061v-.005a.075.075,0,0,1-.069.057.208.208,0,0,0,.092-.169v-.008a.075.075,0,0,0,.035-.051v-.005a.076.076,0,0,1-.036.047.21.21,0,0,0-.013-.057h.005a.075.075,0,0,0,.075-.075v-.005a.075.075,0,0,1-.075.07h-.009a.124.124,0,0,0,.085-.1v-.005a.076.076,0,0,1-.015.041.076.076,0,0,0-.15-.022l-.014-.008a.075.075,0,0,1,.069-.055H912.9a.076.076,0,0,0-.073.051.208.208,0,0,0-.262.075c-.016.012-.036.029-.036.043a.143.143,0,0,0-.018.022.288.288,0,0,0-.024.157.169.169,0,0,1-.054.144.072.072,0,0,0,.056,0,.214.214,0,0,0,.049-.029.111.111,0,0,0,.035-.033h0a.171.171,0,0,0,.031.016c0,.036.005.076-.01.089h0v-.007a.192.192,0,0,1-.133.038.169.169,0,0,0-.137.085l-.063.272h0v0h0v0h0a.02.02,0,0,0,.015.015l.019.005a.41.41,0,0,1,0,.13,1.17,1.17,0,0,0-.023.2c.005.034.014.208.017.291q-.011.042-.017.085l-.095.568s-.07.455-.067.593l-.013.08s-.192.241-.135.275.143.049.226-.08a.207.207,0,0,1,.053-.08.078.078,0,0,0,.026-.066l-.006-.056h.016a1.96,1.96,0,0,0,.085-.528,2.415,2.415,0,0,1,.309-.723h0l.013-.006.029.6-.029.667-.006.04s-.192.241-.136.275.143.049.226-.08a.207.207,0,0,1,.052-.08.078.078,0,0,0,.026-.066l-.008-.085a1.73,1.73,0,0,0,.085-.623l.058-.4a.42.42,0,0,0,.051-.235,2.161,2.161,0,0,0,.057-.478l.012-.188h.036l0-.005h0v0h0Zm-.164.382a.4.4,0,0,0-.018-.039h-.005v-.014a.158.158,0,0,0,.007-.019.075.075,0,0,0,.011-.041.385.385,0,0,1,.008.113Zm-.018-.161-.012-.126v-.01l.016.16Zm-.558.017a.044.044,0,0,0-.01.034h0a.143.143,0,0,0,.005.038l-.019.079V261.4a.335.335,0,0,0,.031-.051.084.084,0,0,1,0,.051Z" transform="translate(-841.069 -242.139)" fill="url(#linear-gradient-2)"/>
      <path id="Path_769" data-name="Path 769" d="M917.9,262.436a.277.277,0,0,0-.023.151.16.16,0,0,1-.053.139.07.07,0,0,0,.053,0,.2.2,0,0,0,.047-.028.1.1,0,0,0,.033-.032.125.125,0,0,0,.008-.064.684.684,0,0,1,.01-.114c0-.024.026-.085,0-.1S917.907,262.417,917.9,262.436Z" transform="translate(-846.445 -244.142)" fill="#72351c"/>
      <path id="Path_770" data-name="Path 770" d="M912.408,292.354l-.018.116s-.185.233-.13.265.138.047.218-.076a.2.2,0,0,1,.051-.076h0a.076.076,0,0,0,.026-.064l-.018-.18Z" transform="translate(-841.346 -271.561)" fill="#333"/>
      <path id="Path_771" data-name="Path 771" d="M919,292.9l-.018.116s-.185.233-.13.265.138.047.218-.076a.2.2,0,0,1,.051-.076h0a.075.075,0,0,0,.025-.064l-.018-.18Z" transform="translate(-847.378 -272.065)" fill="#333"/>
      <path id="Path_772" data-name="Path 772" d="M914.344,275.9a.439.439,0,0,0-.119.282l-.091.547a4.843,4.843,0,0,0-.063.593l.154.053a1.893,1.893,0,0,0,.085-.508s.185-.66.315-.706l.027.583-.029.657.132.026a1.793,1.793,0,0,0,.091-.639l.069-.47a.7.7,0,0,0-.03-.468Z" transform="translate(-843.012 -256.468)" fill="#4d8af0"/>
      <g id="Group_776" data-name="Group 776" transform="translate(71.202 19.381)" opacity="0.1">
        <path id="Path_773" data-name="Path 773" d="M916.165,279.51v-.01c-.13.047-.315.706-.315.706a1.855,1.855,0,0,1-.08.5l.017.006a1.89,1.89,0,0,0,.085-.508A2.3,2.3,0,0,1,916.165,279.51Z" transform="translate(-915.77 -279.189)"/>
        <path id="Path_774" data-name="Path 774" d="M922.127,275.83h-.018a.7.7,0,0,1,.03.467l-.069.47a1.773,1.773,0,0,1-.09.635H922a1.791,1.791,0,0,0,.091-.639l.069-.47A.7.7,0,0,0,922.127,275.83Z" transform="translate(-921.454 -275.83)"/>
      </g>
      <path id="Path_775" data-name="Path 775" d="M915.9,271.106a.019.019,0,0,0,.015.019.3.3,0,0,1,.117.056c.065.051-.069-.1-.069-.1l-.045.01Z" transform="translate(-844.687 -252.102)" fill="#f55f44"/>
      <path id="Path_776" data-name="Path 776" d="M915.9,271.106a.019.019,0,0,0,.015.019.3.3,0,0,1,.117.056c.065.051-.069-.1-.069-.1l-.045.01Z" transform="translate(-844.687 -252.102)" opacity="0.1"/>
      <path id="Path_777" data-name="Path 777" d="M923.42,271.887a.409.409,0,0,1,.184-.073.017.017,0,0,0,.017-.017h0a.147.147,0,0,0-.2.09Z" transform="translate(-851.57 -252.746)" fill="#f55f44"/>
      <path id="Path_778" data-name="Path 778" d="M923.621,271.767a.147.147,0,0,0-.2.09.346.346,0,0,1,.192-.073" transform="translate(-851.57 -252.719)" opacity="0.1"/>
      <circle id="Ellipse_102" data-name="Ellipse 102" cx="0.201" cy="0.201" r="0.201" transform="translate(71.47 18.139)" fill="#72351c"/>
      <path id="Path_779" data-name="Path 779" d="M919.047,264.047s.029.118,0,.142-.085.069-.042.1.2.093.247.065.109-.02.1-.079-.125-.047-.128-.339Z" transform="translate(-847.515 -245.566)" fill="#fdb797"/>
      <path id="Path_780" data-name="Path 780" d="M915.954,271a.731.731,0,0,1-.012.191,1.125,1.125,0,0,0-.022.192c.006.042.019.323.019.323s-.022.246.1.223-.019-.279-.019-.279l.006-.339a.313.313,0,0,0,.061-.15C916.089,271.085,915.954,271,915.954,271Z" transform="translate(-844.706 -252.028)" opacity="0.1"/>
      <path id="Path_781" data-name="Path 781" d="M915.924,271a.736.736,0,0,1-.012.191,1.118,1.118,0,0,0-.022.192c.006.042.019.323.019.323s-.022.246.1.223-.019-.279-.019-.279l.006-.339a.313.313,0,0,0,.061-.15C916.06,271.085,915.924,271,915.924,271Z" transform="translate(-844.678 -252.028)" fill="#fdb797"/>
      <path id="Path_782" data-name="Path 782" d="M922.867,271.19l-.016.262a2.091,2.091,0,0,1-.055.46s.012.254-.108.254.02-.282.02-.282a1.157,1.157,0,0,0,.031-.378l-.031-.314Z" transform="translate(-850.857 -252.202)" opacity="0.1"/>
      <path id="Path_783" data-name="Path 783" d="M922.887,271.19l-.016.262a2.085,2.085,0,0,1-.055.46s.012.254-.108.254.02-.282.02-.282a1.155,1.155,0,0,0,.031-.378l-.031-.314Z" transform="translate(-850.875 -252.202)" fill="#fdb797"/>
      <path id="Path_784" data-name="Path 784" d="M916.256,267.092s.1.045.15-.085l.2.1a.123.123,0,0,1,.038.089l.042.227a.145.145,0,0,0-.189.085l.012.128h0a.137.137,0,0,1-.006.1.021.021,0,0,0,0,.017.063.063,0,0,1-.057.085,1.2,1.2,0,0,0-.158.012c-.042.012-.169-.025-.213,0s-.132-.019-.132-.019l.025-.1s-.016-.051,0-.069a.441.441,0,0,0-.01-.221s-.073-.069-.115-.057l.061-.262a.159.159,0,0,1,.132-.085.184.184,0,0,0,.128-.036S916.114,267.076,916.256,267.092Z" transform="translate(-844.633 -248.358)" opacity="0.1"/>
      <path id="Path_785" data-name="Path 785" d="M916.3,266.978c.026.007.1.015.14-.091l.2.1a.122.122,0,0,1,.038.089l.042.227a.145.145,0,0,0-.189.085l.012.128.008.025a.072.072,0,0,1-.01.064.022.022,0,0,0,0,.024.063.063,0,0,1-.057.085,1.2,1.2,0,0,0-.158.012c-.042.012-.169-.025-.213,0s-.132-.019-.132-.019l.025-.1s-.016-.051,0-.069a.441.441,0,0,0-.01-.221s-.073-.069-.115-.057l.061-.262a.159.159,0,0,1,.132-.085.184.184,0,0,0,.128-.036s-.047.085.078.106Z" transform="translate(-844.669 -248.248)" opacity="0.1"/>
      <path id="Path_786" data-name="Path 786" d="M916.266,267.018c.026.007.1.015.14-.091l.2.1a.123.123,0,0,1,.038.089l.042.227a.145.145,0,0,0-.189.085l.012.128h0a.137.137,0,0,1-.006.1.021.021,0,0,0,0,.017.063.063,0,0,1-.057.085,1.2,1.2,0,0,0-.158.012c-.042.012-.169-.025-.213,0s-.132-.019-.132-.019l.025-.1s-.016-.051,0-.069a.441.441,0,0,0-.01-.221s-.073-.069-.115-.057l.061-.262a.159.159,0,0,1,.132-.085.185.185,0,0,0,.128-.036s-.047.085.078.106Z" transform="translate(-844.633 -248.285)" fill="#f55f44"/>
      <path id="Path_787" data-name="Path 787" d="M919.919,264.05l-.169.108a.56.56,0,0,1,.01.056.169.169,0,0,0,.062.012.174.174,0,0,0,.112-.051A.672.672,0,0,1,919.919,264.05Z" transform="translate(-848.211 -245.667)" opacity="0.1"/>
      <circle id="Ellipse_103" data-name="Ellipse 103" cx="0.166" cy="0.166" r="0.166" transform="translate(71.438 18.216)" fill="#fdb797"/>
      <circle id="Ellipse_104" data-name="Ellipse 104" cx="0.073" cy="0.073" r="0.073" transform="translate(71.777 18.109)" fill="#72351c"/>
      <path id="Path_788" data-name="Path 788" d="M922.793,261.848a.073.073,0,0,1-.073-.068v.005a.073.073,0,0,0,.146,0v-.005A.073.073,0,0,1,922.793,261.848Z" transform="translate(-850.93 -243.589)" fill="#72351c"/>
      <path id="Path_789" data-name="Path 789" d="M922.436,262.58a.073.073,0,0,1-.059-.08v.005a.073.073,0,1,0,.144.026v-.005A.073.073,0,0,1,922.436,262.58Z" transform="translate(-850.615 -244.248)" fill="#72351c"/>
      <path id="Path_790" data-name="Path 790" d="M921.766,264.64a.073.073,0,0,1-.059-.08v.005a.073.073,0,0,0,.144.026v-.005A.073.073,0,0,1,921.766,264.64Z" transform="translate(-850.001 -246.134)" fill="#72351c"/>
      <path id="Path_791" data-name="Path 791" d="M922.793,261.4a.073.073,0,0,1-.073-.068v.005a.073.073,0,0,0,.146,0v-.005A.073.073,0,0,1,922.793,261.4Z" transform="translate(-850.93 -243.177)" fill="#72351c"/>
      <path id="Path_792" data-name="Path 792" d="M922.279,260.882a.073.073,0,0,1,.069-.072h-.005a.073.073,0,1,0,0,.146h.005A.073.073,0,0,1,922.279,260.882Z" transform="translate(-850.518 -242.701)" fill="#72351c"/>
      <path id="Path_793" data-name="Path 793" d="M923.216,269.79a.264.264,0,0,1,0,.109s-.01.1.006.112" transform="translate(-851.381 -250.921)" opacity="0.1"/>
      <path id="Path_794" data-name="Path 794" d="M917.4,270a.262.262,0,0,1,0,.109s-.01.1.006.112" transform="translate(-846.054 -251.113)" opacity="0.1"/>
      <path id="Path_795" data-name="Path 795" d="M917.38,274.624a.073.073,0,0,0,.048,0,.1.1,0,0,1,.058,0" transform="translate(-846.042 -255.341)" opacity="0.1"/>
      <path id="Path_796" data-name="Path 796" d="M917.67,272.716a.423.423,0,0,0,.169-.026s.207.051.266.014" transform="translate(-846.307 -253.575)" opacity="0.1"/>
      <rect id="Rectangle_804" data-name="Rectangle 804" width="0.128" height="0.079" rx="0.039" transform="translate(71.213 20.012)" fill="#fdb797"/>
      <path id="Path_797" data-name="Path 797" d="M915.9,283.53h.069l.059.009h-.021Z" transform="translate(-844.687 -263.497)" fill="#f0e4e4"/>
      <path id="Path_798" data-name="Path 798" d="M921.33,279.65h.069l.059.006h-.021Z" transform="translate(-849.658 -259.946)" fill="#f0e4e4"/>
      <path id="Path_799" data-name="Path 799" d="M921.33,279.82h.069l.059.006h-.021Z" transform="translate(-849.658 -260.102)" fill="#f0e4e4"/>
      <path id="Path_800" data-name="Path 800" d="M921.33,280h.069l.059.006h-.021Z" transform="translate(-849.658 -260.266)" fill="#f0e4e4"/>
      <path id="Path_801" data-name="Path 801" d="M921.33,280.15h.069l.059.006h-.021Z" transform="translate(-849.658 -260.404)" fill="#f0e4e4"/>
      <path id="Path_802" data-name="Path 802" d="M915.9,284.19h.069l.059.007h-.021Z" transform="translate(-844.687 -264.101)" fill="#f0e4e4"/>
      <path id="Path_803" data-name="Path 803" d="M915.9,284.11h.069l.059.007h-.021Z" transform="translate(-844.687 -264.028)" fill="#f0e4e4"/>
      <path id="Path_804" data-name="Path 804" d="M915.9,284h.069l.059.007h-.021Z" transform="translate(-844.687 -263.927)" fill="#f0e4e4"/>
      <path id="Path_805" data-name="Path 805" d="M915.9,283.94h.069l.059.007h-.021Z" transform="translate(-844.687 -263.873)" fill="#f0e4e4"/>
      <path id="Path_806" data-name="Path 806" d="M915.9,283.42h.069l.059.009h-.021Z" transform="translate(-844.687 -263.397)" fill="#f0e4e4"/>
      <path id="Path_807" data-name="Path 807" d="M915.9,283.28h.069l.059.009h-.021Z" transform="translate(-844.687 -263.268)" fill="#f0e4e4"/>
      <path id="Path_808" data-name="Path 808" d="M920.825,261.949a.4.4,0,0,0,.023.183.218.218,0,0,1-.01.174.058.058,0,0,0,.052-.013.2.2,0,0,0,.037-.044.118.118,0,0,0,.023-.046.181.181,0,0,0-.012-.077,1,1,0,0,1-.025-.137c0-.028,0-.109-.031-.117S920.831,261.925,920.825,261.949Z" transform="translate(-849.193 -243.674)" opacity="0.1"/>
      <path id="Path_809" data-name="Path 809" d="M920.875,261.947a.4.4,0,0,0,.023.183.219.219,0,0,1-.009.176.057.057,0,0,0,.052-.013.2.2,0,0,0,.037-.044A.117.117,0,0,0,921,262.2a.18.18,0,0,0-.012-.077,1,1,0,0,1-.025-.137c0-.028,0-.109-.031-.117S920.884,261.923,920.875,261.947Z" transform="translate(-849.239 -243.674)" fill="#72351c"/>
      <path id="Path_810" data-name="Path 810" d="M918.991,261.631c.014.014.017.036.029.053a.1.1,0,0,0,.085.033.046.046,0,0,1,.024.005c.013.008.014.027.022.04a.047.047,0,0,0,.069,0,.114.114,0,0,0,.02-.069.446.446,0,0,0,0-.085.134.134,0,0,0-.037-.09.155.155,0,0,0-.065-.028.193.193,0,0,0-.1-.008.182.182,0,0,0-.046.023l-.059.04c-.022.015-.063.046-.023.063S918.97,261.608,918.991,261.631Z" transform="translate(-847.426 -243.314)" opacity="0.1"/>
      <path id="Path_811" data-name="Path 811" d="M919.1,261.574c.014.014.017.036.029.053a.1.1,0,0,0,.085.033.046.046,0,0,1,.024.005c.013.008.014.027.022.04a.047.047,0,0,0,.069,0,.113.113,0,0,0,.026-.073.457.457,0,0,0,0-.085.135.135,0,0,0-.037-.09.157.157,0,0,0-.065-.028.194.194,0,0,0-.1-.008.182.182,0,0,0-.046.023l-.059.04c-.022.015-.063.046-.023.063A.142.142,0,0,1,919.1,261.574Z" transform="translate(-847.536 -243.259)" fill="#72351c"/>
      <path id="Path_812" data-name="Path 812" d="M921.38,279.65h.069l.059.006h-.021Z" transform="translate(-849.703 -259.946)" fill="#f0e4e4"/>
      <path id="Path_813" data-name="Path 813" d="M921.38,279.82h.069l.059.006h-.021Z" transform="translate(-849.703 -260.102)" fill="#f0e4e4"/>
      <path id="Path_814" data-name="Path 814" d="M921.38,280h.069l.059.006h-.021Z" transform="translate(-849.703 -260.266)" fill="#f0e4e4"/>
      <path id="Path_815" data-name="Path 815" d="M921.38,280.15h.069l.059.006h-.021Z" transform="translate(-849.703 -260.404)" fill="#f0e4e4"/>
      <path id="Path_816" data-name="Path 816" d="M921,289.38h.069l.059.006h-.021Z" transform="translate(-849.355 -268.852)" fill="#f0e4e4"/>
      <path id="Path_817" data-name="Path 817" d="M921,289.54h.069l.059.006h-.021Z" transform="translate(-849.355 -268.998)" fill="#f0e4e4"/>
      <path id="Path_818" data-name="Path 818" d="M921,289.71h.069l.059.006h-.021Z" transform="translate(-849.355 -269.154)" fill="#f0e4e4"/>
      <path id="Path_819" data-name="Path 819" d="M921,289.88h.069l.059.006h-.021Z" transform="translate(-849.355 -269.31)" fill="#f0e4e4"/>
      <path id="Path_820" data-name="Path 820" d="M394.576,700.745H387.84v-3.8h6.736Zm-6.452-.285h6.166v-3.226h-6.166Z" transform="translate(-361.35 -641.904)" fill="#6adbbd" opacity="0.2"/>
      <path id="Path_821" data-name="Path 821" d="M235.562,259.135a1.577,1.577,0,0,0,1.331.195,2.066,2.066,0,0,0,.346-.153c4.319.091,8.319.049,8.474-.416.254-.771-1.355-4.567-2.167-6.4a2.056,2.056,0,0,0,.593-.619c1.128,1.29,3.227,2.954,4.474,3.037,0,0,1.821,4.325,3.87,3.642s2.277-4.325,1.252-4.78l-6.829-4.325v-7.177a2.688,2.688,0,0,0,.285-1.33c0-.085,0-.169,0-.254l-.228-2.049s-.012-.068-.043-.191c-.508-1.974-1.64-3.3-3.237-3.5a1.166,1.166,0,0,0,.139-.46,7.789,7.789,0,0,1-.036-1.147c.105-.435.508-.717.839-1.016a11.775,11.775,0,0,0,2.514-4.939,2.631,2.631,0,0,0-.91-2.446c-.576-.416-1.386-.525-1.8-1.1a4.622,4.622,0,0,1-.39-.87,3.432,3.432,0,0,0-2.025-1.745,7.99,7.99,0,0,0-8.667,2.673,15.135,15.135,0,0,0-1.535,2.689l-1.626,3.361c-.28.578-.551,1.3-.177,1.823.183.254.5.412.623.7.169.381-.042.88.207,1.215a1.573,1.573,0,0,0,.579.368,2.268,2.268,0,0,1,.7.621l-3.571,2.767a2.4,2.4,0,0,0-.92,1.661l-.353,3.52a4.282,4.282,0,0,0-.159,1.229,2.094,2.094,0,0,0,.216,1.1l.078-.019c.085,2.469.232,6.021.378,6.677a5.061,5.061,0,0,0,1.339,1.784l-.254.72h.085l-.085.226h.169a11.707,11.707,0,0,1-2.672,4.55S230.888,259,235.562,259.135Zm-4.246-11.991v-2.767c.417.064.724.208.822.471Zm1.206-12.041.014.02h-.005Z" transform="translate(-213.555 -205.983)" fill="url(#linear-gradient-3)"/>
      <path id="Path_822" data-name="Path 822" d="M420.31,456.863s.216,7.675.433,8.648,3.352,3.895,4.972,4c0,0,1.729,4.108,3.676,3.459s2.162-4.108,1.186-4.54l-6.481-4.108V456.11Z" transform="translate(-391.07 -421.461)" fill="#fdb797"/>
      <path id="Path_823" data-name="Path 823" d="M250.482,576.09s2.811,6.054,2.487,7.029-18.378,0-18.378,0,3.351-3.351,2.7-7.029Z" transform="translate(-221.079 -531.28)" fill="#565171"/>
      <path id="Path_824" data-name="Path 824" d="M303.311,357.208s-.433,4.216.324,5.189-3.027,1.513-3.348,1.513a35.674,35.674,0,0,1-4.432-1.513c-.649-.328-1.186-2.7-1.186-2.7s3.243.649,4.216-3.134Z" transform="translate(-276.071 -330.342)" fill="#fdb797"/>
      <path id="Path_825" data-name="Path 825" d="M284.99,232.461a3.257,3.257,0,0,1,1.923,1.657,4.43,4.43,0,0,0,.371.827c.393.549,1.163.652,1.71,1.048a2.511,2.511,0,0,1,.865,2.323,7.4,7.4,0,0,1-.882,2.43,7.536,7.536,0,0,1-1.5,2.261c-.313.287-.7.554-.8.967a7.586,7.586,0,0,0,.034,1.089c-.078.9-1.152,1.317-2.049,1.417a1.324,1.324,0,0,1-1.11-.235,1.931,1.931,0,0,1-.3-.52,2.493,2.493,0,0,0-4.445-.046c-.21.4-.333.9-.716,1.142-.586.379-1.369-.066-1.8-.613s-.745-1.235-1.361-1.563a1.422,1.422,0,0,1-.55-.349c-.236-.318-.036-.792-.2-1.154-.121-.273-.418-.423-.593-.664-.356-.5-.1-1.186.169-1.732l1.545-3.193A14.084,14.084,0,0,1,276.761,235,7.581,7.581,0,0,1,284.99,232.461Z" transform="translate(-256.616 -216.41)" fill="#8f5a6a"/>
      <path id="Path_826" data-name="Path 826" d="M253.171,392.352s-4.216,0-5.3-3.892l-3.549,2.75a2.287,2.287,0,0,0-.873,1.578l-.339,3.348a3.059,3.059,0,0,0,.054,2s4.489-1.135,4.595.162l-3.132,8.756s4.865.108,6.161-.756c0,0,5.3,1.081,6.594-.108s2.594-1.081,1.513-3.783a5.35,5.35,0,0,0,1.186-5.189c-.977-3.027-.054.054-.054.054s2.108-1.027,2-2.973l-.216-1.948s-.012-.064-.042-.18c-.659-2.564-2.43-3.981-4.919-3.078a2.282,2.282,0,0,1-1.471-.038S256.2,392.571,253.171,392.352Z" transform="translate(-228.74 -359.541)" opacity="0.1"/>
      <path id="Path_827" data-name="Path 827" d="M253.171,389.8s-4.216,0-5.3-3.892l-3.549,2.75a2.287,2.287,0,0,0-.873,1.577l-.339,3.348a3.059,3.059,0,0,0,.054,2s4.489-1.135,4.595.162l-3.134,8.756s4.865.108,6.161-.756c0,0,5.3,1.081,6.594-.108s2.594-1.081,1.513-3.783a5.35,5.35,0,0,0,1.186-5.189c-.977-3.027-.054.054-.054.054s2.108-1.027,2-2.973l-.216-1.948s-.012-.064-.042-.18c-.659-2.564-2.43-3.981-4.919-3.078a2.283,2.283,0,0,1-1.471-.038S256.2,390.018,253.171,389.8Z" transform="translate(-228.74 -357.206)" fill="#b45181"/>
      <path id="Path_828" data-name="Path 828" d="M245.45,467.076s.216,7.675.433,8.648,3.351,3.892,4.972,4c0,0,1.729,4.108,3.676,3.459s2.162-4.108,1.186-4.54l-6.486-4.108V466.32Z" transform="translate(-231.019 -430.806)" fill="#fdb797"/>
      <path id="Path_829" data-name="Path 829" d="M249.725,461.551s-2.484,1.687-4.648,1.546c0,0-.216-2.9.433-3.059S248.969,460.038,249.725,461.551Z" transform="translate(-230.646 -425.011)" opacity="0.1"/>
      <path id="Path_830" data-name="Path 830" d="M249.725,460.272s-2.484,1.687-4.648,1.546c0,0-.216-2.9.433-3.059S248.969,458.758,249.725,460.272Z" transform="translate(-230.646 -423.839)" fill="#b45181"/>
      <path id="Path_831" data-name="Path 831" d="M332.054,359.1l4.432.649s-.1.976-.119,2.1A4.975,4.975,0,0,1,331.15,361,4.9,4.9,0,0,0,332.054,359.1Z" transform="translate(-309.461 -332.667)" opacity="0.1"/>
      <circle id="Ellipse_105" data-name="Ellipse 105" cx="4.972" cy="4.972" r="4.972" transform="translate(20.215 19.407)" fill="#fdb797"/>
      <path id="Path_832" data-name="Path 832" d="M305.368,262.089a1.544,1.544,0,0,0,.665.095q1.319-.009,2.636-.1a3.232,3.232,0,0,0,1.889-.549,2.156,2.156,0,0,0,.444-2.472,4.39,4.39,0,0,0-1.852-1.9,5.529,5.529,0,0,0-1.4-.634,4.674,4.674,0,0,0-4.134,1.037,7.315,7.315,0,0,0-2.236,3.746c-.132.494-.3,1.082-.79,1.231a1.333,1.333,0,0,0,1.69.356c.84-.4,1.27-1.929,2.025-2.17C305.144,260.471,304.654,261.762,305.368,262.089Z" transform="translate(-281.489 -238.665)" opacity="0.1"/>
      <path id="Path_833" data-name="Path 833" d="M305.395,260.855a1.544,1.544,0,0,0,.665.095q1.32-.008,2.636-.1a3.232,3.232,0,0,0,1.889-.549,2.157,2.157,0,0,0,.444-2.472,4.39,4.39,0,0,0-1.852-1.9,5.528,5.528,0,0,0-1.4-.63,4.674,4.674,0,0,0-4.134,1.037,7.315,7.315,0,0,0-2.236,3.746c-.132.494-.3,1.082-.79,1.231a1.333,1.333,0,0,0,1.69.356c.84-.4,1.27-1.929,2.025-2.17C305.171,259.238,304.682,260.528,305.395,260.855Z" transform="translate(-281.517 -237.539)" fill="#8f5a6a"/>
      <path id="Path_834" data-name="Path 834" d="M378.062,542.908a19.148,19.148,0,0,0-4.972-.649" transform="translate(-347.849 -500.315)" opacity="0.1"/>
      <path id="Path_835" data-name="Path 835" d="M300.33,481s1.622,1.186,1.186,1.838" transform="translate(-281.251 -444.243)" opacity="0.1"/>
      <g id="Group_777" data-name="Group 777" transform="translate(10.826 49.013)" opacity="0.7">
        <path id="Path_836" data-name="Path 836" d="M180.956,578.64H127.88v2.674h3.09v8.416h47.007v-8.416h2.979Z" transform="translate(-127.88 -578.64)" fill="url(#linear-gradient)"/>
      </g>
      <rect id="Rectangle_805" data-name="Rectangle 805" width="46.05" height="8.388" transform="translate(14.393 51.716)" fill="#e0e0e0"/>
      <rect id="Rectangle_806" data-name="Rectangle 806" width="46.05" height="2.594" transform="translate(14.393 52.581)" opacity="0.1"/>
      <rect id="Rectangle_807" data-name="Rectangle 807" width="51.996" height="4.432" transform="translate(11.366 49.878)" fill="#e0e0e0"/>
      <rect id="Rectangle_808" data-name="Rectangle 808" width="9.945" height="1.405" rx="0.703" transform="translate(21.19 48.787)" fill="#535461"/>
      <g id="Group_778" data-name="Group 778" transform="translate(27.243 33.119)" opacity="0.7">
        <rect id="Rectangle_809" data-name="Rectangle 809" width="24.717" height="17.091" rx="8.545" fill="url(#linear-gradient)"/>
      </g>
      <rect id="Rectangle_810" data-name="Rectangle 810" width="23.415" height="16.775" rx="8.387" transform="translate(27.684 33.435)" fill="#3e3f49"/>
      <rect id="Rectangle_811" data-name="Rectangle 811" width="23.415" height="16.775" rx="8.387" transform="translate(28.009 33.435)" fill="#535461"/>
      <circle id="Ellipse_106" data-name="Ellipse 106" cx="0.756" cy="0.756" r="0.756" transform="translate(40.054 40.951)" fill="#e0e0e0"/>
    </g>
  </g>
</svg>
