<svg xmlns="http://www.w3.org/2000/svg" width="105" height="60" viewBox="0 0 105 60">
  <g id="Group_792" data-name="Group 792" transform="translate(1600 2648)">
    <rect id="Rectangle_858" data-name="Rectangle 858" width="105" height="60" transform="translate(-1600 -2648)" fill="none"/>
    <g id="career" transform="translate(-1590.803 -2648)">
      <rect id="Rectangle_812" data-name="Rectangle 812" width="10.321" height="3.12" rx="1.56" transform="translate(12.237 24.041)" fill="#6adbbd" opacity="0.1"/>
      <rect id="Rectangle_813" data-name="Rectangle 813" width="10.321" height="3.12" rx="1.56" transform="translate(23.038 27.162)" fill="#6adbbd" opacity="0.1"/>
      <rect id="Rectangle_814" data-name="Rectangle 814" width="10.321" height="3.12" rx="1.56" transform="translate(33.839 30.282)" fill="#6adbbd" opacity="0.1"/>
      <rect id="Rectangle_815" data-name="Rectangle 815" width="10.321" height="3.12" rx="1.56" transform="translate(12.237 19.361)" fill="#6adbbd" opacity="0.1"/>
      <rect id="Rectangle_816" data-name="Rectangle 816" width="10.321" height="3.12" rx="1.56" transform="translate(23.038 22.481)" fill="#6adbbd" opacity="0.1"/>
      <rect id="Rectangle_817" data-name="Rectangle 817" width="10.321" height="3.12" rx="1.56" transform="translate(33.839 25.602)" fill="#6adbbd" opacity="0.1"/>
      <rect id="Rectangle_818" data-name="Rectangle 818" width="10.321" height="3.12" rx="1.56" transform="translate(45.84 24.041)" fill="#6adbbd" opacity="0.1"/>
      <rect id="Rectangle_819" data-name="Rectangle 819" width="10.321" height="3.12" rx="1.56" transform="translate(56.641 27.162)" fill="#6adbbd" opacity="0.1"/>
      <rect id="Rectangle_820" data-name="Rectangle 820" width="10.321" height="3.12" rx="1.56" transform="translate(67.442 30.282)" fill="#6adbbd" opacity="0.1"/>
      <rect id="Rectangle_821" data-name="Rectangle 821" width="10.321" height="3.12" rx="1.56" transform="translate(45.84 19.361)" fill="#6adbbd" opacity="0.1"/>
      <rect id="Rectangle_822" data-name="Rectangle 822" width="10.321" height="3.12" rx="1.56" transform="translate(56.641 22.481)" fill="#6adbbd" opacity="0.1"/>
      <rect id="Rectangle_823" data-name="Rectangle 823" width="10.321" height="3.12" rx="1.56" transform="translate(67.442 25.602)" fill="#6adbbd" opacity="0.1"/>
      <rect id="Rectangle_824" data-name="Rectangle 824" width="10.321" height="3.12" rx="1.56" transform="translate(12.237 13.12)" fill="#6adbbd" opacity="0.1"/>
      <rect id="Rectangle_825" data-name="Rectangle 825" width="10.321" height="3.12" rx="1.56" transform="translate(23.038 16.24)" fill="#6adbbd" opacity="0.1"/>
      <rect id="Rectangle_826" data-name="Rectangle 826" width="10.321" height="3.12" rx="1.56" transform="translate(33.839 19.361)" fill="#6adbbd" opacity="0.1"/>
      <rect id="Rectangle_827" data-name="Rectangle 827" width="10.321" height="3.12" rx="1.56" transform="translate(12.237 8.439)" fill="#6adbbd" opacity="0.1"/>
      <rect id="Rectangle_828" data-name="Rectangle 828" width="10.321" height="3.12" rx="1.56" transform="translate(23.038 11.56)" fill="#6adbbd" opacity="0.1"/>
      <rect id="Rectangle_829" data-name="Rectangle 829" width="10.321" height="3.12" rx="1.56" transform="translate(33.839 14.68)" fill="#6adbbd" opacity="0.1"/>
      <rect id="Rectangle_830" data-name="Rectangle 830" width="10.321" height="3.12" rx="1.56" transform="translate(45.84 13.12)" fill="#6adbbd" opacity="0.1"/>
      <rect id="Rectangle_831" data-name="Rectangle 831" width="10.321" height="3.12" rx="1.56" transform="translate(56.641 16.24)" fill="#6adbbd" opacity="0.1"/>
      <rect id="Rectangle_832" data-name="Rectangle 832" width="10.321" height="3.12" rx="1.56" transform="translate(67.442 19.361)" fill="#6adbbd" opacity="0.1"/>
      <rect id="Rectangle_833" data-name="Rectangle 833" width="10.321" height="3.12" rx="1.56" transform="translate(45.84 8.439)" fill="#6adbbd" opacity="0.1"/>
      <rect id="Rectangle_834" data-name="Rectangle 834" width="10.321" height="3.12" rx="1.56" transform="translate(56.641 11.56)" fill="#6adbbd" opacity="0.1"/>
      <rect id="Rectangle_835" data-name="Rectangle 835" width="10.321" height="3.12" rx="1.56" transform="translate(67.442 14.68)" fill="#6adbbd" opacity="0.1"/>
      <ellipse id="Ellipse_107" data-name="Ellipse 107" cx="43.184" cy="7.855" rx="43.184" ry="7.855" transform="translate(0 44.289)" fill="#6adbbd" opacity="0.1"/>
      <path id="Path_837" data-name="Path 837" d="M197.632,320.539,194,342.8l16.421-1.737-.711-1.895-12.829,1.066,3-19.737Z" transform="translate(-178.684 -295.197)" fill="#3f3d56"/>
      <path id="Path_838" data-name="Path 838" d="M186,.079,208.105,0,214.5,48.395l-22.184,3Z" transform="translate(-171.316)" fill="#3f3d56"/>
      <path id="Path_839" data-name="Path 839" d="M216.5,24.5h17.842l6.237,45-18.395,2.526Z" transform="translate(-199.408 -22.566)" fill="#fff"/>
      <path id="Path_840" data-name="Path 840" d="M450.651,632.8a4.4,4.4,0,0,0,.342.64c.426.57,1.236.659,1.843,1.031a.17.17,0,0,1,.072.069c.028.066-.034.134-.093.175a2.757,2.757,0,0,1-1.627.326,2.169,2.169,0,0,1-.563-.054c-.3-.079-.553-.287-.846-.371a2.24,2.24,0,0,0-.465-.065l-.617-.042a1.453,1.453,0,0,1-.481-.089.486.486,0,0,1-.3-.359,1.031,1.031,0,0,1,.072-.386c.079-.3.054-.669.29-.876a.9.9,0,0,1,.328-.158,10.45,10.45,0,0,1,1.311-.349C450.279,632.221,450.489,632.489,450.651,632.8Z" transform="translate(-416.732 -587.89)" fill="#3f3d56"/>
      <path id="Path_841" data-name="Path 841" d="M367.269,635.606a.577.577,0,0,1-.1.478.539.539,0,0,1-.264.118,2.312,2.312,0,0,1-1.742-.172.48.48,0,0,1-.137-.118.428.428,0,0,1-.069-.217,1.862,1.862,0,0,1,.113-.659,11.57,11.57,0,0,0,.336-1.559,5.467,5.467,0,0,1,1.588.384,2.527,2.527,0,0,1,.158.834Q367.225,635.148,367.269,635.606Z" transform="translate(-340.325 -588.988)" fill="#3f3d56"/>
      <path id="Path_842" data-name="Path 842" d="M363.228,370.447l.395,3.67a12.776,12.776,0,0,1,.107,2.256,13.768,13.768,0,0,0-.2,2.6c.04.335.132.663.145,1a5.441,5.441,0,0,1-.034.671,30.3,30.3,0,0,0,.7,6.648,2.885,2.885,0,0,1,.033.827c-.041.28-.123.648.126.781l-2.343.849c-.3-.375-.1-.958-.158-1.434a7.466,7.466,0,0,0-.413-1.224,5.778,5.778,0,0,1-.174-1.147c-.2-2.1-.832-4.141-.979-6.243a2.843,2.843,0,0,0-.079-.6,5.6,5.6,0,0,0-.352-.735,5.182,5.182,0,0,1-.349-1.172l-.5-2.349a5.763,5.763,0,0,0-.587,2.642c-.141,1.263-.455,2.505-.711,3.752a7.466,7.466,0,0,0-.133.813c-.066.732.066,1.471,0,2.2a13.234,13.234,0,0,0-.349,2.521,8.811,8.811,0,0,0,.349,1.367,2.146,2.146,0,0,1,0,1.387,4.263,4.263,0,0,0-2.03-.224,4.26,4.26,0,0,1-.937-2.921c-.051-1.078.073-2.157-.062-3.224-.039-.316-.1-.624-.111-.939a11.127,11.127,0,0,1,.694-2.936,6.213,6.213,0,0,0,.061-2.7c-.118-.59-.322-1.162-.395-1.76a7.991,7.991,0,0,1,.237-2.509c.113-.558.225-1.116.353-1.671a4.4,4.4,0,0,1,.668-1.693,2.977,2.977,0,0,1,2.605-1.052,5.623,5.623,0,0,1,2.691,1.072A10.143,10.143,0,0,1,363.228,370.447Z" transform="translate(-330.761 -344.373)" fill="#192534"/>
      <path id="Path_843" data-name="Path 843" d="M396.479,205.717a.681.681,0,0,0-.091.232.782.782,0,0,0,.158.452,2.459,2.459,0,0,1,.231.576.947.947,0,0,1,.034.384.929.929,0,0,1-.1.276,1.406,1.406,0,0,1-.685.688,1.207,1.207,0,0,1-.741.03,2.25,2.25,0,0,1-.678-.322,2.062,2.062,0,0,1-.464-.4,2.785,2.785,0,0,1-.321-.553,2.2,2.2,0,0,1-.3-1.087.363.363,0,0,1,.019-.1.539.539,0,0,1,.106-.158,2.06,2.06,0,0,0,.483-1.433l1.15.261c.253.058.507.115.757.187a1.271,1.271,0,0,1,.654.324C396.822,205.256,396.57,205.55,396.479,205.717Z" transform="translate(-366.633 -193.697)" fill="#fbbebe"/>
      <circle id="Ellipse_108" data-name="Ellipse 108" cx="2.091" cy="2.091" r="2.091" transform="translate(27.141 7.643)" fill="#fbbebe"/>
      <path id="Path_844" data-name="Path 844" d="M383.125,230.558a1.209,1.209,0,0,1,.454-.437.809.809,0,0,0,.385-.488A.349.349,0,0,1,384,229.5c.067-.1.227-.051.322.024a2.474,2.474,0,0,1,.544.688,4.375,4.375,0,0,1,.782,2.811,6.009,6.009,0,0,1-.095,1.7,4.928,4.928,0,0,0-.246,1.047c-.026,1.3-.479,2.552-.511,3.857a10.021,10.021,0,0,0,.057,1.13l.074.847q-1.722-.1-3.434-.3a6.568,6.568,0,0,0-.246-1.146,24.865,24.865,0,0,1-.8-4.716c-.061-.846-.123-1.689-.217-2.533a9.711,9.711,0,0,1-.151-2.3,3.18,3.18,0,0,1,.324-1,.657.657,0,0,1,.253-.3.683.683,0,0,1,.178-.058,3.313,3.313,0,0,1,.543-.064.375.375,0,0,1,.133.013.416.416,0,0,1,.181.175A3.278,3.278,0,0,0,383.125,230.558Z" transform="translate(-354.23 -216.607)" fill="#f2f2f2"/>
      <path id="Path_845" data-name="Path 845" d="M406.72,242.68c.147.21.458.26.594.474a1.242,1.242,0,0,1,.1.282c.083.264.25.494.352.752a3.225,3.225,0,0,1,.152,1.18,3.9,3.9,0,0,1-.073.947c-.047.2-.125.381-.182.573a2.8,2.8,0,0,0-.106,1.011.413.413,0,0,0,.057.209.454.454,0,0,0,.2.137,1.5,1.5,0,0,0,.726.182.266.266,0,0,0,.144-.048.322.322,0,0,0,.071-.094l.158-.267a1.187,1.187,0,0,0,.237-.8,1.579,1.579,0,0,0-.179-.408,4.8,4.8,0,0,1-.257-.637,8.846,8.846,0,0,1-.564-2.222,1.953,1.953,0,0,1,.095-.862,2.456,2.456,0,0,1,.278-.481.206.206,0,0,0-.222-.075,1.325,1.325,0,0,0-.23.1,1.09,1.09,0,0,1-.724,0,1.265,1.265,0,0,0-.332-.112C406.99,242.52,406.726,242.689,406.72,242.68Z" transform="translate(-378.795 -228.896)" fill="#6adbbd"/>
      <path id="Path_846" data-name="Path 846" d="M420.933,230.342c-.047-.038-.121-.073-.163-.028a.184.184,0,0,0-.03.064.425.425,0,0,1-.272.208c-.11.043-.228.066-.294-.015a.178.178,0,0,1,.01-.211.645.645,0,0,1,.173-.146,1.688,1.688,0,0,0,.688-1.083.515.515,0,0,1,.189.326c.026.126.029.255.055.381a5.332,5.332,0,0,1,.144.531,2.767,2.767,0,0,1,0,.292,1.8,1.8,0,0,0,.033.283A5.372,5.372,0,0,0,420.933,230.342Z" transform="translate(-391.16 -216.567)" fill="#f2f2f2"/>
      <path id="Path_847" data-name="Path 847" d="M395.715,220.954c-.079-.075-.158-.146-.237-.223a3.071,3.071,0,0,1-.763-1.212.456.456,0,0,0-.215.316.484.484,0,0,0,.1.257,4,4,0,0,1,.579,1.548.461.461,0,0,1,.4-.212c.125,0,.684.332.725.248C396.366,221.545,395.81,221.044,395.715,220.954Z" transform="translate(-367.539 -207.716)" fill="#f2f2f2"/>
      <path id="Path_848" data-name="Path 848" d="M342.719,222.242a6.552,6.552,0,0,0,2.651,1.6.6.6,0,0,1,.268.136.547.547,0,0,1,.111.245,13.9,13.9,0,0,1,.321,2.307,1.286,1.286,0,0,1-.008.385,1.215,1.215,0,0,1-.338.53,3.177,3.177,0,0,0-1.047,1.653,2.636,2.636,0,0,1-.045.379c-.039.147-.127.276-.181.419-.264.7.332,1.555-.031,2.211a3.991,3.991,0,0,1,.4,1.2,1.568,1.568,0,0,0,.108.464,2.406,2.406,0,0,0,.506.553,3.183,3.183,0,0,1,.632,2.151,1.456,1.456,0,0,1-.316,1.209,1.382,1.382,0,0,1-.7.26,1.509,1.509,0,0,1-.984-.069,1.581,1.581,0,0,1-.49-.519c-.259-.377-.519-.752-.764-1.138a3.033,3.033,0,0,1-.643-2.018,4.688,4.688,0,0,1-.544,2.1,2.893,2.893,0,0,1-1.636,1.378,2.1,2.1,0,0,1-2.041-.45,2.758,2.758,0,0,1-.435-.587,5.726,5.726,0,0,1-.643-1.635.635.635,0,0,1,.016-.449c.036-.063.09-.113.127-.175.125-.212,0-.48-.116-.7-.184.017-.316-.2-.3-.384a1.619,1.619,0,0,1,.205-.513,2.6,2.6,0,0,0,.068-1.607,7.23,7.23,0,0,1-.263-1.611,3.016,3.016,0,0,0-.718-1.579c-.177-.272-.383-.524-.537-.809a2.611,2.611,0,0,1-.207-1.955,5.128,5.128,0,0,1,.433-.965l.261-.489a.806.806,0,0,1,.553-.474l1.8-.711a2.711,2.711,0,0,0,.651-.325c.22-.166.384-.395.594-.572a.333.333,0,0,1,.237-.1c.169.015.229.228.246.395a7.8,7.8,0,0,0,.41,1.051c.508,2,1.584,3.847,1.88,5.89a21.416,21.416,0,0,1,1.088-2.345,1.943,1.943,0,0,0,.168-.34,1.452,1.452,0,0,0,.056-.528,6.906,6.906,0,0,0-.293-1.513C343.059,223.534,342.9,222.911,342.719,222.242Z" transform="translate(-312.78 -209.632)" fill="#3f3d56"/>
      <path id="Path_849" data-name="Path 849" d="M451.5,285.821c.035.336.069.673.131,1.006.073.384.183.76.293,1.136a2.957,2.957,0,0,0,.229.61.784.784,0,0,1,.084.181,1.041,1.041,0,0,1-.088.474c-.114.474.227,1,.013,1.437a2.747,2.747,0,0,0-.22.384,1.152,1.152,0,0,0,.026.507,3.07,3.07,0,0,1-.254,1.411l-.272.769a7.133,7.133,0,0,0-.841-1.322c-.122-.142-.256-.274-.369-.424a2.972,2.972,0,0,1-.395-.769,6.664,6.664,0,0,1-.408-2.03,1.389,1.389,0,0,1,.067-.584,3.1,3.1,0,0,1,.175-.316,2.553,2.553,0,0,0,.251-1.269,10.462,10.462,0,0,1,0-1.307,2.989,2.989,0,0,1,.316-1.037,1.471,1.471,0,0,1,.429-.534.772.772,0,0,1,.474-.154c.258.015.2.237.221.451Z" transform="translate(-418.127 -267.095)" fill="#3f3d56"/>
      <path id="Path_850" data-name="Path 850" d="M318.61,269.485q-.242.71-.436,1.434t-.339,1.429a3.058,3.058,0,0,0-.085.643,2.877,2.877,0,0,0,.129.743,18.417,18.417,0,0,0,2.479,5.112,4.6,4.6,0,0,1,1.05-.958.225.225,0,0,0,.079-.079.214.214,0,0,0-.025-.185,8.491,8.491,0,0,1-.888-1.753c-.06-.267-.062-.545-.13-.81a8.708,8.708,0,0,1-.328-1.01c-.048-.384.079-.8-.1-1.142a1.509,1.509,0,0,0,.735-.883,4.837,4.837,0,0,0,.354-1.161,3.494,3.494,0,0,0-.427-2.222,3.553,3.553,0,0,0-.714-.9c-.094-.084-.316-.327-.452-.324-.182,0-.241.3-.293.432C319,268.393,318.8,268.936,318.61,269.485Z" transform="translate(-296.849 -251.834)" fill="#3f3d56"/>
      <path id="Path_851" data-name="Path 851" d="M350.552,396.792c.024.017.051.041.044.069s-.029.036-.05.047a.613.613,0,0,0-.227.308,8.6,8.6,0,0,0-.343.907,3.975,3.975,0,0,0-.619-.722,1.752,1.752,0,0,1-.478-.547c0-.006.414-.312.452-.345.116-.1.262-.39.382-.453.136-.071.265.208.369.32A3.136,3.136,0,0,0,350.552,396.792Z" transform="translate(-325.521 -370.305)" fill="#fbbebe"/>
      <path id="Path_852" data-name="Path 852" d="M393.194,151.937a.387.387,0,0,0-.1-.285.373.373,0,0,0-.237-.066,4.481,4.481,0,0,1-1.371-.092c-.286-.1-.53-.3-.808-.419a.815.815,0,0,0-.861.051,1.233,1.233,0,0,0-.276.624,3.657,3.657,0,0,1-.681,1.352.839.839,0,0,1-.466-.458,2.991,2.991,0,0,1,.068-2.225c.079-.243.167-.484.254-.724l.193-.531a1.036,1.036,0,0,0,.66-.328l.083.2a1.05,1.05,0,0,0,.592-.209.321.321,0,0,0,.375.118c.138-.04.257-.118.395-.158a3.22,3.22,0,0,1,1.144.084,4.581,4.581,0,0,1,.489.014,1.282,1.282,0,0,1,.915.94c.092.292.169.651.457.755.006.111-.19.132-.206.237a.182.182,0,0,0,.024.1l.264.568a.657.657,0,0,1-.382-.019C393.6,151.747,393.206,152.151,393.194,151.937Z" transform="translate(-361.743 -142.53)" fill="#192534"/>
      <path id="Path_853" data-name="Path 853" d="M614.6,175.882a10.366,10.366,0,0,1,.316,1.321,1.341,1.341,0,0,1-.1.986,9.586,9.586,0,0,1,2.605-2.942,2.379,2.379,0,0,1-.62-1.835,4.613,4.613,0,0,0-.982.32c-.322.179-.617.4-.932.594-.163.1-.84.332-.846.474,0,.091.269.369.32.464A3.605,3.605,0,0,1,614.6,175.882Z" transform="translate(-569.747 -165.24)" fill="#fbbebe"/>
      <path id="Path_854" data-name="Path 854" d="M610.643,723.14a1.224,1.224,0,0,0-1.25-.095,7.953,7.953,0,0,0-.924.771,6.867,6.867,0,0,1-1.952.658.665.665,0,0,0-.432.316.561.561,0,0,0,.032.44,1.138,1.138,0,0,0,.542.558,2.262,2.262,0,0,0,.957.151l2.826.033a23.134,23.134,0,0,1,2.605.129.976.976,0,0,0,.6-.046c.289-.158.322-.557.3-.887a8.135,8.135,0,0,0-.553-2.432c-.034-.086-.079-.184-.174-.2a.285.285,0,0,0-.188.06,2.969,2.969,0,0,1-2.655.362" transform="translate(-562.393 -671.02)" fill="#fff"/>
      <path id="Path_855" data-name="Path 855" d="M662.551,499.639a15.433,15.433,0,0,0,.245,5.544,9.667,9.667,0,0,0,.258,1.077c.127.4.3.789.418,1.194a9.821,9.821,0,0,1,.216,3.195l-.207,4.875a3.533,3.533,0,0,0,.09,1.217c.05.158.11.355-.015.462a.352.352,0,0,1-.167.064,2.579,2.579,0,0,1-1.658-.249l-.056-4.925a31.831,31.831,0,0,0-.269-4.542,26.484,26.484,0,0,1-.529-3.575,14.1,14.1,0,0,1,.6-3.734,1.435,1.435,0,0,1,.52-.632.638.638,0,0,1,.253-.153C662.347,499.433,662.492,499.56,662.551,499.639Z" transform="translate(-612.886 -465.552)" fill="#3f3d56"/>
      <path id="Path_856" data-name="Path 856" d="M662.551,499.639a15.433,15.433,0,0,0,.245,5.544,9.667,9.667,0,0,0,.258,1.077c.127.4.3.789.418,1.194a9.821,9.821,0,0,1,.216,3.195l-.207,4.875a3.533,3.533,0,0,0,.09,1.217c.05.158.11.355-.015.462a.352.352,0,0,1-.167.064,2.579,2.579,0,0,1-1.658-.249l-.056-4.925a31.831,31.831,0,0,0-.269-4.542,26.484,26.484,0,0,1-.529-3.575,14.1,14.1,0,0,1,.6-3.734,1.435,1.435,0,0,1,.52-.632.638.638,0,0,1,.253-.153C662.347,499.433,662.492,499.56,662.551,499.639Z" transform="translate(-612.886 -465.552)" opacity="0.1"/>
      <path id="Path_857" data-name="Path 857" d="M606.633,420.188c-.117.481.131.979.1,1.473a3.854,3.854,0,0,0-.079.891,4.043,4.043,0,0,0,.377.784,2.124,2.124,0,0,1,.128.7c.032.591.006,1.184-.016,1.772a17.45,17.45,0,0,0,.066,2.957,9.25,9.25,0,0,0,.684,2.459,4.256,4.256,0,0,1,.255.662,4.717,4.717,0,0,1,.087.643,6.529,6.529,0,0,0,.558,2.03,7.321,7.321,0,0,1,.664,1.256c.106.447.035.918.111,1.371.056.336.193.653.268.984a11.708,11.708,0,0,1,.146,1.311c.142,1.263.716,2.526.373,3.752a1.675,1.675,0,0,0-.127.748.932.932,0,0,1,.057.367,1.742,1.742,0,0,1-.144.283.521.521,0,0,0,.145.547,1.554,1.554,0,0,0,.513.3,4.62,4.62,0,0,0,1.816.5.488.488,0,0,0,.223-.041.553.553,0,0,0,.218-.306l.324-.8a.343.343,0,0,0,.024-.3.561.561,0,0,0-.136-.126c-.261-.22-.2-.632-.133-.962a14.049,14.049,0,0,0,.294-2.582,28.113,28.113,0,0,0-.534-5.158,10.753,10.753,0,0,0-.395-1.758,4.324,4.324,0,0,1-.439-1.706,19.319,19.319,0,0,1,0-1.936c.115-.629.3-1.245.415-1.873a19.359,19.359,0,0,0,.237-2.474,2.394,2.394,0,0,1,.2-.987c.092-.175.227-.325.33-.495.267-.441.309-.988.564-1.437a5.022,5.022,0,0,0,.376-.627,1.752,1.752,0,0,0,.1-.557,6.631,6.631,0,0,0-.079-1.425,9.272,9.272,0,0,0-4.342-1.007,5.151,5.151,0,0,0-1.7.268A5.721,5.721,0,0,1,606.633,420.188Z" transform="translate(-562.896 -391.832)" fill="#3f3d56"/>
      <path id="Path_858" data-name="Path 858" d="M601.044,742.878c-.232.289-.216.7-.365,1.042a2.29,2.29,0,0,1-.962.918l-2.368,1.5a.66.66,0,0,0-.316.323.518.518,0,0,0,.012.283,1.23,1.23,0,0,0,.827.84,2.446,2.446,0,0,0,.64.066l1.065.014a6.244,6.244,0,0,0,.972-.038c.3-.043.583-.127.876-.181.535-.1,1.084-.088,1.619-.182a8.574,8.574,0,0,0,.969-.25,3.868,3.868,0,0,0,1.112-.467.577.577,0,0,0,.214-.231.681.681,0,0,0-.006-.418l-.508-2.234a1.331,1.331,0,0,0-.2-.522.455.455,0,0,0-.492-.186,1.042,1.042,0,0,0-.2.123,1.255,1.255,0,0,1-.9.146,1.42,1.42,0,0,1-.622-.222c-.122-.1-.158-.256-.261-.369a.741.741,0,0,0-1.1.043Z" transform="translate(-554.07 -689.51)" fill="#fff"/>
      <circle id="Ellipse_109" data-name="Ellipse 109" cx="2.852" cy="2.852" r="2.852" transform="translate(42.586 4.629)" fill="#fbbebe"/>
      <path id="Path_859" data-name="Path 859" d="M599.643,112.723c.273-.153.273-.594.553-.741s.6.108.776.366a3.363,3.363,0,0,1,.533,1.253.631.631,0,0,0,.145.357.559.559,0,0,0,.346.113q.541.054,1.083.1a2.342,2.342,0,0,0,1.193-.114.868.868,0,0,0,.358-.3,1.333,1.333,0,0,0,.153-.4,9.458,9.458,0,0,0,.395-2.186,1.765,1.765,0,0,0-.168-.892,1.811,1.811,0,0,1-.248-.469c-.036-.174.079-.395.259-.376a1.063,1.063,0,0,1-.474-.09.364.364,0,0,1-.2-.4c-.4.051-.693-.345-1.006-.6a.272.272,0,0,0-.191-.079.689.689,0,0,0-.158.061c-.158.055-.323-.05-.485-.1-.434-.122-.986.172-1.308-.144.031.2-.216.336-.42.332a1.725,1.725,0,0,0-.606-.011.395.395,0,0,1-.226.565l.1.208a.538.538,0,0,0-.414.388,5.249,5.249,0,0,0-.054,1.43A7.3,7.3,0,0,1,599.643,112.723Z" transform="translate(-556.405 -105.074)" fill="#192534"/>
      <path id="Path_860" data-name="Path 860" d="M596.667,193.7c-1.433,1.611-1.8,3.879-2.1,6.015l-.45,3.153c-.117.818-.237,1.636-.339,2.456a6.469,6.469,0,0,0-.06,1.692,9.218,9.218,0,0,0,.332,1.294,12.209,12.209,0,0,1,.474,3.433c.1-.281.426-.395.717-.458a11.591,11.591,0,0,1,7.252.774,14.367,14.367,0,0,0,.435-3.52c.158-1.684.7-3.316.863-5,.059-.626.066-1.255.073-1.884a6.307,6.307,0,0,0-.087-1.381,5.8,5.8,0,0,0-.568-1.421,37.046,37.046,0,0,0-2.157-3.665q-.6-.891-1.242-1.746-.328-.433-.669-.857c-.22-.274-.316-.512-.665-.347A6.178,6.178,0,0,0,596.667,193.7Z" transform="translate(-550.995 -182.54)" fill="#6adbbd"/>
      <path id="Path_861" data-name="Path 861" d="M616.046,374.473A7.742,7.742,0,0,1,615,374.44a2.273,2.273,0,0,0-.774,0,.8.8,0,0,0-.3.148.227.227,0,0,0,.129.395l.27.024a.759.759,0,0,1,.483.158.3.3,0,0,1,.1.19c.017.184-.143.284-.286.361a2.266,2.266,0,0,0-.557.371.772.772,0,0,0-.231.474.092.092,0,0,0,.134.084c.316-.158.522-.626.868-.548a1.407,1.407,0,0,0-.763.587.354.354,0,0,0,.474.5,1.558,1.558,0,0,0,.148-.1,3.646,3.646,0,0,0,.626-.651,1.89,1.89,0,0,0-.218,1.686.168.168,0,0,0,.158.093c.092-.009.118-.1.133-.171a2.387,2.387,0,0,1,.179-.718c.278-.5.963-.553,1.485-.8a2.382,2.382,0,0,0,1.228-1.584,1.218,1.218,0,0,0,.031-.6.682.682,0,0,0-1.026-.336A2.123,2.123,0,0,1,616.046,374.473Z" transform="translate(-569.553 -349.903)" fill="#fbbebe"/>
      <path id="Path_862" data-name="Path 862" d="M629.876,224.874a8.39,8.39,0,0,0,2.334,1.933,1.956,1.956,0,0,1,.516.491,1.685,1.685,0,0,1,.194,1.105,7,7,0,0,1-.373,1.453l-.345,1.03a6.379,6.379,0,0,1-.861,1.87.79.79,0,0,0-.226.464.6.6,0,0,0,.1.283,1.9,1.9,0,0,0,1.207.862.92.92,0,0,0,.454,0,1.23,1.23,0,0,0,.522-.4,13.958,13.958,0,0,0,1.934-2.5,13.075,13.075,0,0,0,1.078-2.882,6.066,6.066,0,0,0,.237-1.116,4.077,4.077,0,0,0-.433-2.063,10.182,10.182,0,0,0-1.156-1.787,12.441,12.441,0,0,0-1.354-1.554,2.832,2.832,0,0,0-3.059-.819,1.942,1.942,0,0,0-1.188,1.854A2.821,2.821,0,0,0,629.876,224.874Z" transform="translate(-583.937 -209.141)" opacity="0.1"/>
      <path id="Path_863" data-name="Path 863" d="M633.477,222.231a8.4,8.4,0,0,0,2.334,1.933,1.962,1.962,0,0,1,.514.494,1.684,1.684,0,0,1,.194,1.105,7,7,0,0,1-.373,1.453l-.345,1.026a6.39,6.39,0,0,1-.86,1.87.791.791,0,0,0-.225.464.586.586,0,0,0,.1.282,1.9,1.9,0,0,0,1.206.863.924.924,0,0,0,.455,0,1.233,1.233,0,0,0,.522-.4,13.992,13.992,0,0,0,1.934-2.5,13.073,13.073,0,0,0,1.078-2.883,6.015,6.015,0,0,0,.237-1.115,4.089,4.089,0,0,0-.432-2.064,10.1,10.1,0,0,0-1.156-1.787,12.453,12.453,0,0,0-1.357-1.545,2.83,2.83,0,0,0-3.058-.819,1.942,1.942,0,0,0-1.189,1.854A2.824,2.824,0,0,0,633.477,222.231Z" transform="translate(-587.251 -206.714)" fill="#6adbbd"/>
      <path id="Path_864" data-name="Path 864" d="M818.175,598.051a2.923,2.923,0,0,1-.063.613c-.008.038-.017.079-.025.111a1.925,1.925,0,0,1-1.611,1.6H816.4a1.906,1.906,0,0,1-1.7-1.637c-.006-.025-.012-.051-.017-.079a2.923,2.923,0,0,1-.063-.613,1.843,1.843,0,1,1,3.555.006Z" transform="translate(-754.492 -554.216)" fill="#3f3d56"/>
      <path id="Path_865" data-name="Path 865" d="M818.212,598.1a2.922,2.922,0,0,1-.063.613c-.008.038-.017.079-.025.111h-.079a3.617,3.617,0,0,1-.581-.079,3.549,3.549,0,0,1-.518.118,3.616,3.616,0,0,1-.406.038H816.4a3.663,3.663,0,0,1-.487-.032,1.216,1.216,0,0,0-1.175-.079c-.006-.025-.012-.05-.017-.079a2.919,2.919,0,0,1-.063-.613,1.841,1.841,0,1,1,3.552,0Z" transform="translate(-754.529 -554.262)" opacity="0.1"/>
      <path id="Path_866" data-name="Path 866" d="M772.317,509.321a3.6,3.6,0,0,0-.387-1.627l-2.089.65,1.834-1.078a4.509,4.509,0,0,1-2.994-1.918l-3,.934,2.461-1.447a3.61,3.61,0,0,0-5.684,1.926l2.57,2.958L762.24,507.7a5.227,5.227,0,1,0,9.934,2.909c0-.079,0-.158-.008-.237a3.6,3.6,0,0,0,.152-1.052Z" transform="translate(-704.845 -469.817)" fill="#6adbbd"/>
      <path id="Path_867" data-name="Path 867" d="M772.192,569.185a9.622,9.622,0,0,0-3.343-.043c-1.254.208-2.537.664-3.763.331-.72-.2-1.342-.649-2.045-.9a3.884,3.884,0,0,0-2.112-.126,5.636,5.636,0,0,0,11.178,1.359c0-.079,0-.158-.008-.237A3.567,3.567,0,0,0,772.192,569.185Z" transform="translate(-704.782 -529.011)" opacity="0.1"/>
    </g>
  </g>
</svg>
