<svg xmlns="http://www.w3.org/2000/svg" width="105" height="60" viewBox="0 0 105 60">
  <g id="Group_793" data-name="Group 793" transform="translate(1407 2648)">
    <rect id="Rectangle_857" data-name="Rectangle 857" width="105" height="60" transform="translate(-1407 -2648)" fill="none"/>
    <g id="contact" transform="translate(-1397 -2648)">
      <path id="Path_868" data-name="Path 868" d="M222.172,115.866a20.274,20.274,0,0,0-24.362-2.743C205.618,115.918,214.234,116.02,222.172,115.866Z" transform="translate(-187.878 -108.196)" fill="#6adbbd" opacity="0.1"/>
      <path id="Path_869" data-name="Path 869" d="M848.561,564.143l-8.527-14.769a.271.271,0,0,0-.471,0l-8.527,14.769a.271.271,0,0,0,.235.411h2.544a.273.273,0,0,1,.272.272v3.152a.272.272,0,0,0,.271.272h3.319a.272.272,0,0,0,.272-.272v-1.523a.271.271,0,0,1,.271-.271h3.155a.272.272,0,0,1,.272.271v1.523a.272.272,0,0,0,.272.272h3.318a.272.272,0,0,0,.272-.272v-3.155a.272.272,0,0,1,.272-.272h2.544a.272.272,0,0,0,.235-.408Zm-11.891,1.634a.272.272,0,0,1-.192.082h-1.194a.272.272,0,1,1,0-.544h1.2a.272.272,0,0,1,.192.464Zm7.833,0a.272.272,0,0,1-.192.082h-1.194a.272.272,0,0,1,0-.544h1.2a.272.272,0,0,1,.193.464Z" transform="translate(-769.013 -511.079)" fill="#6adbbd" opacity="0.1"/>
      <path id="Path_870" data-name="Path 870" d="M220.873,565.732l-8.527-14.769a.272.272,0,0,0-.471,0L204.51,563.72a22.494,22.494,0,0,0,3.082,3.182h1.2a.272.272,0,1,1,0,.544h-.506a13.166,13.166,0,0,0,1.973,1.227v-.629a.272.272,0,0,1,.272-.272h3.155a.272.272,0,0,1,.271.272v1.523a.265.265,0,0,0,.025.114.272.272,0,0,0,.247.158h3.319a.266.266,0,0,0,.216-.109.261.261,0,0,0,.055-.164v-3.153a.272.272,0,0,1,.272-.272h2.544a.272.272,0,0,0,.238-.409Zm-5.635,1.25a.272.272,0,0,1,.192-.082h1.2a.272.272,0,0,1,0,.544h-1.2a.272.272,0,0,1-.192-.465Zm-5.356-5.465a.272.272,0,0,1-.272-.272v-2.067a.272.272,0,0,1,.272-.272h4.46a.272.272,0,0,1,.271.272v2.067a.272.272,0,0,1-.271.272Z" transform="translate(-194.028 -512.539)" fill="#6adbbd" opacity="0.1"/>
      <path id="Path_871" data-name="Path 871" d="M442.494,346.862H431.943V344.58a.546.546,0,0,0-.546-.546h-3.1V341.6a.344.344,0,0,0-.344-.344h-3.991a.344.344,0,0,0-.344.344v2.43h-3.643a.546.546,0,0,0-.546.546v2.282H409.37a.111.111,0,0,0-.11.111v30.3a.111.111,0,0,0,.11.111h6.687a.111.111,0,0,0,.111-.111v-4.076a.112.112,0,0,1,.111-.111H419.1a.112.112,0,0,1,.111.111v4.076a.111.111,0,0,0,.11.111H432.54a.112.112,0,0,0,.111-.111v-4.076a.111.111,0,0,1,.11-.111h2.825a.111.111,0,0,1,.111.111v4.076a.112.112,0,0,0,.111.111h6.687a.112.112,0,0,0,.111-.111v-30.3A.112.112,0,0,0,442.494,346.862Zm-27.523,24.8a.11.11,0,0,1-.11.11h-4.13a.11.11,0,0,1-.111-.11v-1.408a.111.111,0,0,1,.111-.111h4.13a.111.111,0,0,1,.11.111Zm0-3.645a.11.11,0,0,1-.11.111h-4.13a.11.11,0,0,1-.111-.111v-1.41a.11.11,0,0,1,.111-.111h4.13a.11.11,0,0,1,.11.111Zm0-3.644a.111.111,0,0,1-.11.111h-4.13a.111.111,0,0,1-.111-.111v-1.411a.111.111,0,0,1,.111-.111h4.13a.111.111,0,0,1,.11.111Zm0-3.645a.11.11,0,0,1-.11.111h-4.13a.11.11,0,0,1-.111-.111v-1.407a.11.11,0,0,1,.111-.111h4.13a.11.11,0,0,1,.11.111Zm0-3.644a.111.111,0,0,1-.11.111h-4.13a.111.111,0,0,1-.111-.111v-1.411a.11.11,0,0,1,.111-.11h4.13a.11.11,0,0,1,.11.11Zm0-3.644a.11.11,0,0,1-.11.11h-4.13a.11.11,0,0,1-.111-.11v-1.411a.111.111,0,0,1,.111-.111h4.13a.111.111,0,0,1,.11.111Zm0-3.645a.11.11,0,0,1-.11.111h-4.13a.11.11,0,0,1-.111-.111v-1.407a.11.11,0,0,1,.111-.111h4.13a.11.11,0,0,1,.11.111Zm9.792,21.867a.11.11,0,0,1-.111.11h-4.13a.111.111,0,0,1-.111-.11v-1.407a.112.112,0,0,1,.111-.111h4.13a.111.111,0,0,1,.111.111Zm0-3.645a.11.11,0,0,1-.111.111h-4.13a.111.111,0,0,1-.111-.111v-1.409a.111.111,0,0,1,.111-.111h4.13a.11.11,0,0,1,.111.111Zm0-3.644a.111.111,0,0,1-.111.111h-4.13a.112.112,0,0,1-.111-.111v-1.41a.112.112,0,0,1,.111-.111h4.13a.111.111,0,0,1,.111.111Zm0-3.645a.11.11,0,0,1-.111.111h-4.13a.111.111,0,0,1-.111-.111v-1.407a.111.111,0,0,1,.111-.111h4.13a.11.11,0,0,1,.111.111Zm0-3.644a.111.111,0,0,1-.111.111h-4.13a.112.112,0,0,1-.111-.111v-1.41a.111.111,0,0,1,.111-.11h4.13a.11.11,0,0,1,.111.11Zm0-3.644a.11.11,0,0,1-.111.11h-4.13a.111.111,0,0,1-.111-.11v-1.41a.112.112,0,0,1,.111-.111h4.13a.111.111,0,0,1,.111.111Zm0-3.645a.11.11,0,0,1-.111.111h-4.13a.111.111,0,0,1-.111-.111v-1.407a.111.111,0,0,1,.111-.111h4.13a.11.11,0,0,1,.111.111Zm6.691,21.867a.11.11,0,0,1-.111.11h-4.13a.111.111,0,0,1-.111-.11v-1.407a.112.112,0,0,1,.111-.111h4.13a.111.111,0,0,1,.111.111Zm0-3.645a.11.11,0,0,1-.111.111h-4.13a.111.111,0,0,1-.111-.111v-1.408a.111.111,0,0,1,.111-.111h4.13a.11.11,0,0,1,.111.111Zm0-3.644a.111.111,0,0,1-.111.111h-4.13a.112.112,0,0,1-.111-.111v-1.409a.112.112,0,0,1,.111-.111h4.13a.111.111,0,0,1,.111.111Zm0-3.645a.11.11,0,0,1-.111.111h-4.13a.111.111,0,0,1-.111-.111v-1.406a.111.111,0,0,1,.111-.111h4.13a.11.11,0,0,1,.111.111Zm0-3.644a.111.111,0,0,1-.111.111h-4.13a.112.112,0,0,1-.111-.111v-1.409a.111.111,0,0,1,.111-.11h4.13a.11.11,0,0,1,.111.11Zm0-3.644a.11.11,0,0,1-.111.11h-4.13a.111.111,0,0,1-.111-.11v-1.409a.112.112,0,0,1,.111-.111h4.13a.111.111,0,0,1,.111.111Zm0-3.645a.11.11,0,0,1-.111.111h-4.13a.111.111,0,0,1-.111-.111v-1.406a.111.111,0,0,1,.111-.111h4.13a.11.11,0,0,1,.111.111Zm9.792,21.867a.111.111,0,0,1-.111.11H437a.11.11,0,0,1-.111-.11v-1.406a.111.111,0,0,1,.111-.111h4.131a.112.112,0,0,1,.111.111Zm0-3.645a.111.111,0,0,1-.111.111H437a.11.11,0,0,1-.111-.111v-1.407A.11.11,0,0,1,437,366.5h4.131a.111.111,0,0,1,.111.111Zm0-3.644a.112.112,0,0,1-.111.111H437a.111.111,0,0,1-.111-.111v-1.408a.111.111,0,0,1,.111-.111h4.131a.112.112,0,0,1,.111.111Zm0-3.645a.111.111,0,0,1-.111.111H437a.11.11,0,0,1-.111-.111v-1.4a.11.11,0,0,1,.111-.111h4.131a.111.111,0,0,1,.111.111Zm0-3.644a.112.112,0,0,1-.111.111H437a.111.111,0,0,1-.111-.111v-1.408a.11.11,0,0,1,.111-.11h4.131a.111.111,0,0,1,.111.11Zm0-3.644a.111.111,0,0,1-.11.113H437a.11.11,0,0,1-.111-.11v-1.411a.111.111,0,0,1,.111-.111h4.131a.112.112,0,0,1,.111.111Zm0-3.645a.111.111,0,0,1-.111.111H437a.11.11,0,0,1-.111-.111v-1.4a.11.11,0,0,1,.111-.111h4.131a.111.111,0,0,1,.111.111Z" transform="translate(-381.946 -320.199)" fill="#6adbbd" opacity="0.1"/>
      <path id="Path_872" data-name="Path 872" d="M368.382,274.14a2.375,2.375,0,0,0-1.379.15,2.031,2.031,0,0,1-1.663,0,2.32,2.32,0,0,0-1.947.039,1.213,1.213,0,0,1-.561.14c-.789,0-1.446-.795-1.583-1.844a1.514,1.514,0,0,0,.395-.425,2.216,2.216,0,0,1,3.958-.014,1.522,1.522,0,0,0,1.311.72h.021A1.661,1.661,0,0,1,368.382,274.14Z" transform="translate(-337.882 -255.687)" fill="#6adbbd" opacity="0.1"/>
      <path id="Path_873" data-name="Path 873" d="M370.773,238.147l-1.276.809.774-1.408a1.261,1.261,0,0,0-.772-.275h-.021a1.493,1.493,0,0,1-.265-.02l-.431.275.186-.337a1.537,1.537,0,0,1-.756-.575l-.774.493.487-.891a2.266,2.266,0,0,0-1.734-.876,2.376,2.376,0,0,0-1.984,1.224,1.484,1.484,0,0,1-1.315.708h-.044c-.889,0-1.609,1.007-1.609,2.25s.72,2.25,1.609,2.25a1.2,1.2,0,0,0,.561-.141,2.32,2.32,0,0,1,1.947-.038,2.031,2.031,0,0,0,1.656,0,2.319,2.319,0,0,1,1.93.037,1.2,1.2,0,0,0,.554.137c.889,0,1.609-1.008,1.609-2.25A2.858,2.858,0,0,0,370.773,238.147Z" transform="translate(-337.873 -222.987)" fill="#6adbbd" opacity="0.1"/>
      <path id="Path_874" data-name="Path 874" d="M853.327,467.256a1.67,1.67,0,0,0-.965.1,1.42,1.42,0,0,1-1.159,0,1.624,1.624,0,0,0-1.363.027.844.844,0,0,1-.392.1c-.552,0-1.012-.557-1.107-1.291a1.072,1.072,0,0,0,.276-.3,1.553,1.553,0,0,1,2.772-.01,1.063,1.063,0,0,0,.917.5h.015A1.162,1.162,0,0,1,853.327,467.256Z" transform="translate(-784.93 -433.803)" fill="#6adbbd" opacity="0.1"/>
      <path id="Path_875" data-name="Path 875" d="M854.969,442.046l-.893.566.542-.987a.883.883,0,0,0-.54-.192h-.014a1.062,1.062,0,0,1-.185-.014l-.3.192.13-.235a1.084,1.084,0,0,1-.529-.4l-.543.342.342-.622a1.578,1.578,0,0,0-1.213-.614,1.66,1.66,0,0,0-1.389.857,1.037,1.037,0,0,1-.918.493h-.027c-.621,0-1.126.7-1.126,1.574s.5,1.575,1.126,1.575a.845.845,0,0,0,.392-.1,1.621,1.621,0,0,1,1.363-.026,1.428,1.428,0,0,0,1.159,0,1.623,1.623,0,0,1,1.351.026.851.851,0,0,0,.388.1c.622,0,1.126-.7,1.126-1.575A2,2,0,0,0,854.969,442.046Z" transform="translate(-784.893 -410.895)" fill="#6adbbd" opacity="0.1"/>
      <path id="Path_876" data-name="Path 876" d="M315.62,403.22a1.67,1.67,0,0,1,.965.1,1.417,1.417,0,0,0,1.158,0,1.624,1.624,0,0,1,1.363.027.848.848,0,0,0,.392.1c.552,0,1.013-.557,1.108-1.291a1.062,1.062,0,0,1-.276-.3,1.553,1.553,0,0,0-2.774-.013,1.069,1.069,0,0,1-.919.506h-.014A1.156,1.156,0,0,0,315.62,403.22Z" transform="translate(-296.004 -375.028)" fill="#6adbbd" opacity="0.1"/>
      <path id="Path_877" data-name="Path 877" d="M292.506,378.037l.893.564-.543-.986a.884.884,0,0,1,.54-.192h.015a1.063,1.063,0,0,0,.185-.014l.3.192-.13-.235a1.086,1.086,0,0,0,.53-.4l.542.344-.343-.622a1.586,1.586,0,0,1,1.214-.614,1.66,1.66,0,0,1,1.389.857,1.037,1.037,0,0,0,.918.493h.03c.622,0,1.126.7,1.126,1.574s-.5,1.575-1.126,1.575a.85.85,0,0,1-.392-.1,1.621,1.621,0,0,0-1.363-.026,1.426,1.426,0,0,1-1.158,0,1.625,1.625,0,0,0-1.352.026.848.848,0,0,1-.388.1c-.621,0-1.126-.7-1.126-1.575a2,2,0,0,1,.236-.955Z" transform="translate(-274.573 -352.147)" fill="#6adbbd" opacity="0.1"/>
      <path id="Path_878" data-name="Path 878" d="M295.68,784.588c1.113.707,2.717-.008,3.837.688.289.179.523.443.822.606a2.656,2.656,0,0,0,1.19.247c3.421.132,6.9-.822,10.237-.051a16.6,16.6,0,0,0,2.8.617c1.652.09,3.234-.716,4.887-.76,2.507-.067,4.971,1.61,7.391.949a14.44,14.44,0,0,1,2.347-.76,8.036,8.036,0,0,1,2.684.549c3.154.822,6.439-.51,9.7-.609,2.127-.065,4.233.4,6.358.506a37.962,37.962,0,0,0,4.535-.136,3.412,3.412,0,0,0,1.66-.405,1.171,1.171,0,0,0,.48-1.487Z" transform="translate(-277.703 -727.038)" fill="#3f3d56"/>
      <path id="Path_879" data-name="Path 879" d="M295.68,784.588c1.113.707,2.717-.008,3.837.688.289.179.523.443.822.606a2.656,2.656,0,0,0,1.19.247c3.421.132,6.9-.822,10.237-.051a16.6,16.6,0,0,0,2.8.617c1.652.09,3.234-.716,4.887-.76,2.507-.067,4.971,1.61,7.391.949a14.44,14.44,0,0,1,2.347-.76,8.036,8.036,0,0,1,2.684.549c3.154.822,6.439-.51,9.7-.609,2.127-.065,4.233.4,6.358.506a37.962,37.962,0,0,0,4.535-.136,3.412,3.412,0,0,0,1.66-.405,1.171,1.171,0,0,0,.48-1.487Z" transform="translate(-277.703 -727.038)" opacity="0.1"/>
      <path id="Path_880" data-name="Path 880" d="M295.68,779.588c1.113.707,2.717-.008,3.837.688.289.179.523.443.822.606a2.656,2.656,0,0,0,1.19.247c3.421.132,6.9-.822,10.237-.051a16.6,16.6,0,0,0,2.8.617c1.652.09,3.234-.716,4.887-.76,2.507-.067,4.971,1.611,7.391.949a14.429,14.429,0,0,1,2.347-.76,8.038,8.038,0,0,1,2.684.549c3.154.822,6.439-.51,9.7-.609,2.127-.065,4.233.4,6.358.506a37.975,37.975,0,0,0,4.535-.136,3.412,3.412,0,0,0,1.66-.405,1.171,1.171,0,0,0,.48-1.487Z" transform="translate(-277.703 -722.449)" fill="#3f3d56"/>
      <g id="Group_779" data-name="Group 779" transform="translate(2.661 17.113)" opacity="0.1">
        <path id="Path_881" data-name="Path 881" d="M170.943,615.574a2.01,2.01,0,0,1-.266,1.018,2.083,2.083,0,0,1,0,2.035,1.87,1.87,0,0,1,.2.493,37.339,37.339,0,0,1-2.474-3.7h0a1.973,1.973,0,0,1,.26-.868,2.01,2.01,0,0,1-.266-1.018,2.093,2.093,0,0,1,.12-.708,1.759,1.759,0,0,1,.145-.31,1.106,1.106,0,0,1,2.013,0,1.831,1.831,0,0,1,.142.3,2.108,2.108,0,0,1,.123.718,2.089,2.089,0,0,0,0,2.039Z" transform="translate(-163.546 -585.676)" fill="#3f3d56"/>
        <ellipse id="Ellipse_110" data-name="Ellipse 110" cx="1.272" cy="1.666" rx="1.272" ry="1.666" transform="translate(4.853 24.163)" fill="#3f3d56"/>
        <ellipse id="Ellipse_111" data-name="Ellipse 111" cx="1.272" cy="1.666" rx="1.272" ry="1.666" transform="translate(4.853 22.127)" fill="#3f3d56"/>
        <path id="Path_882" data-name="Path 882" d="M121.558,306.866a6.065,6.065,0,0,1-1.3,3.768,6.094,6.094,0,0,1-3.617,9.747c-.146.03-.3.053-.446.071a6.156,6.156,0,0,1-1.4.007q-.232-.025-.458-.068a6.026,6.026,0,0,1-1.891-.691,60.716,60.716,0,0,1-2.862-6.888,6.066,6.066,0,0,1,1.093-2.174,6.1,6.1,0,0,1-.987-5.722l4.627,1.553-4.339-2.254a6.119,6.119,0,0,1,.695-1.111,6.094,6.094,0,1,1,10.065-6.819l-4.473,3.288,4.85-2.516a6.1,6.1,0,0,1-.117,4.828l-3.617-.027,3.343.549a6.118,6.118,0,0,1-.474.7A6.067,6.067,0,0,1,121.558,306.866Z" transform="translate(-109.367 -293.239)" fill="#6adbbd"/>
        <path id="Path_883" data-name="Path 883" d="M121.607,465.536a6.1,6.1,0,0,1-4.917,5.98c-.147.03-.3.053-.447.071a6.157,6.157,0,0,1-1.4.007q-.232-.025-.458-.068a6.025,6.025,0,0,1-1.891-.691,60.71,60.71,0,0,1-2.866-6.891,6.067,6.067,0,0,1,1.093-2.174,6.069,6.069,0,0,1-1.3-3.771c0-.684,11.7,2.731,10.883,3.768A6.065,6.065,0,0,1,121.607,465.536Z" transform="translate(-109.415 -444.371)" opacity="0.1"/>
      </g>
      <g id="Group_780" data-name="Group 780" transform="translate(77.713 23.655)" opacity="0.1">
        <path id="Path_884" data-name="Path 884" d="M1082.263,637.65c-.239.761-.493,1.517-.755,2.255a2.1,2.1,0,0,1-.109-.675A1.7,1.7,0,0,1,1082.263,637.65Z" transform="translate(-1076.543 -615.878)" fill="#3f3d56"/>
        <path id="Path_885" data-name="Path 885" d="M1030.6,381.465a35.377,35.377,0,0,1-.822,6.33,69.45,69.45,0,0,1-1.739,6.787c-.238.761-.493,1.517-.755,2.255-.3.839-.617,1.654-.948,2.434a6.117,6.117,0,0,1-2.705-9.517,6.123,6.123,0,0,1-.987-5.735l4.627,1.556-4.339-2.259a6.14,6.14,0,0,1,.695-1.114,6.116,6.116,0,0,1,2.394-9.392,10.486,10.486,0,0,1,4.008,5.256l-.8.6.86-.446a10.429,10.429,0,0,1,.5,2.738h-.241l.246.04C1030.6,381.15,1030.6,381.306,1030.6,381.465Z" transform="translate(-1022.321 -372.81)" fill="#6adbbd"/>
        <path id="Path_886" data-name="Path 886" d="M1029.87,533.819a69.587,69.587,0,0,1-1.739,6.787c-.238.761-.493,1.517-.755,2.255-.3.839-.617,1.654-.948,2.434a6.117,6.117,0,0,1-2.706-9.517,6.092,6.092,0,0,1-1.3-3.775C1022.42,531.592,1026.671,532.669,1029.87,533.819Z" transform="translate(-1022.411 -518.834)" opacity="0.1"/>
      </g>
      <path id="Path_887" data-name="Path 887" d="M162.979,173.7v-.039a10.435,10.435,0,0,0-.5-2.738c-.016-.05-.033-.1-.05-.15a10.436,10.436,0,0,0-17.667-3.567,14.749,14.749,0,0,0-.831-2.916,46.825,46.825,0,0,1-8.273.308,33.372,33.372,0,0,0,5.245,1.9l-.064.238a33.683,33.683,0,0,1-5.863-2.195l-.568-.275.63.041a46.841,46.841,0,0,0,8.8-.252,14.831,14.831,0,0,0-2.591-4.117,44.365,44.365,0,0,1-13.811-3.439l.1-.224a43.8,43.8,0,0,0,13.457,3.389,14.778,14.778,0,0,0-23.489,2.5,20.3,20.3,0,0,0-5.034-11.419A47.5,47.5,0,0,1,92.5,154.076a33.375,33.375,0,0,0,5.245,1.9l-.064.238a33.682,33.682,0,0,1-5.861-2.195l-.568-.275.63.041a46.794,46.794,0,0,0,20.417-3.235q-.366-.4-.753-.783c-8.091.164-16.9.082-24.88-2.822A20.349,20.349,0,0,0,77,164.285a47.23,47.23,0,0,0,2.877,14.341,60.935,60.935,0,0,0,2.87,6.906c.558,1.134,1.151,2.237,1.773,3.292h0a37.373,37.373,0,0,0,2.474,3.7q.242.318.489.625a22.566,22.566,0,0,0,3.081,3.2h0q.343.286.69.545a13.139,13.139,0,0,0,1.973,1.233,9.1,9.1,0,0,0,3.724,1.01c.1,0,.2.007.307.007v.042H152.5v-.042h.041a2.8,2.8,0,0,0,.934-.164c1.953-.693,3.752-3.476,5.247-6.993.329-.78.648-1.6.948-2.434.265-.74.516-1.494.755-2.255a69.52,69.52,0,0,0,1.739-6.787,35.775,35.775,0,0,0,.822-6.33C162.99,174.014,162.99,173.858,162.979,173.7Z" transform="translate(-77 -141.863)" fill="#6adbbd" opacity="0.1"/>
      <path id="Path_888" data-name="Path 888" d="M349.972,721.631l1.574-.926a3.792,3.792,0,0,0-.8-.963l-2.969.923L350.1,719.3a3.782,3.782,0,0,0-5.6,3.317c0,2.088,1.693,2.16,3.782,2.16s3.782-.072,3.782-2.16a3.765,3.765,0,0,0-.325-1.535Z" transform="translate(-322.509 -666.733)" fill="#6adbbd"/>
      <path id="Path_889" data-name="Path 889" d="M350.345,750.715a2.941,2.941,0,0,0-.557-.437,2.594,2.594,0,0,0-.918-.448,6.881,6.881,0,0,0-.9-.026,2.109,2.109,0,0,1-1.382-.633,4.314,4.314,0,0,0-.642-.665,1.413,1.413,0,0,0-.963-.177,2.4,2.4,0,0,0-.284.058,3.77,3.77,0,0,0-.224,1.283c0,2.088,1.693,2.16,3.782,2.16a7.951,7.951,0,0,0,2.613-.273l-.113-.212a2.993,2.993,0,0,0-.406-.631Z" transform="translate(-322.482 -693.788)" opacity="0.1"/>
      <circle id="Ellipse_112" data-name="Ellipse 112" cx="2.939" cy="2.939" r="2.939" transform="translate(42.057 12.333)" fill="#3f3d56"/>
      <path id="Path_890" data-name="Path 890" d="M550.7,527.874a15.674,15.674,0,0,1-.643,6.37,4.731,4.731,0,0,1-.425,1.12,11.951,11.951,0,0,1-.719.969,8.414,8.414,0,0,0-1.053,2.272,64.088,64.088,0,0,0-1.876,6.685.457.457,0,0,0,0,.285c.071.164.289.186.467.185l2.307-.012c.082-.158-.07-.329-.164-.48-.329-.511-.013-1.176.277-1.711a18.392,18.392,0,0,0,1.626-4.11,11.148,11.148,0,0,1,.543-1.786,17.937,17.937,0,0,1,1.19-1.926,16.13,16.13,0,0,0,1.125-2.378,15.411,15.411,0,0,0,1.114-3.49,13.941,13.941,0,0,0-.025-3.437.217.217,0,0,0-.252-.247l-3.1-.159c-.638-.033-.789-.173-.692.454C550.474,526.945,550.634,527.4,550.7,527.874Z" transform="translate(-507.41 -489.741)" fill="#3f3d56"/>
      <path id="Path_891" data-name="Path 891" d="M550.7,527.874a15.674,15.674,0,0,1-.643,6.37,4.731,4.731,0,0,1-.425,1.12,11.951,11.951,0,0,1-.719.969,8.414,8.414,0,0,0-1.053,2.272,64.088,64.088,0,0,0-1.876,6.685.457.457,0,0,0,0,.285c.071.164.289.186.467.185l2.307-.012c.082-.158-.07-.329-.164-.48-.329-.511-.013-1.176.277-1.711a18.392,18.392,0,0,0,1.626-4.11,11.148,11.148,0,0,1,.543-1.786,17.937,17.937,0,0,1,1.19-1.926,16.13,16.13,0,0,0,1.125-2.378,15.411,15.411,0,0,0,1.114-3.49,13.941,13.941,0,0,0-.025-3.437.217.217,0,0,0-.252-.247l-3.1-.159c-.638-.033-.789-.173-.692.454C550.474,526.945,550.634,527.4,550.7,527.874Z" transform="translate(-507.41 -489.741)" opacity="0.1"/>
      <path id="Path_892" data-name="Path 892" d="M598.51,483.425a4.213,4.213,0,0,0-1.079,3.028,4.293,4.293,0,0,0,1.376,2.055c2.363,2.373,4.686,5.008,5.49,8.259.207.84.307,1.7.486,2.548a28.154,28.154,0,0,0,1.48,4.468l1.542,3.893a2.331,2.331,0,0,0,2.228-1.48.975.975,0,0,1-.585-.376,7.135,7.135,0,0,1-.961-3.19c-.187-1.227-.436-2.443-.686-3.659l-1.1-5.38c-.127-.621-.255-1.242-.421-1.854-.643-2.369-1.861-4.6-2.049-7.053a1.657,1.657,0,0,0-.289-1.023,1.5,1.5,0,0,0-1.058-.351A13.839,13.839,0,0,0,598.51,483.425Z" transform="translate(-554.61 -450.465)" fill="#3f3d56"/>
      <path id="Path_893" data-name="Path 893" d="M539.525,755.322a2.44,2.44,0,0,0-.511-.066,1.062,1.062,0,0,0-.835.456,2.075,2.075,0,0,0-.224.493l-.223.64a.711.711,0,0,0-.032.575.61.61,0,0,0,.3.231,5.553,5.553,0,0,0,1.735.311c.571.056,1.136.156,1.7.261.194.037.387.074.584.094a6.959,6.959,0,0,0,1.32-.039l.453-.044a1.626,1.626,0,0,0,.446-.082.562.562,0,0,0,.329-.3.533.533,0,0,0-.422-.663c-.119-.023-.247-.012-.363-.028a1.722,1.722,0,0,1-.4-.119,7.94,7.94,0,0,1-1.675-.816c-.141-.1-.289-.238-.274-.411a.839.839,0,0,1,.073-.213.777.777,0,0,0,.007-.55c-.028-.076-.082-.155-.159-.164-.217-.026-.191.29-.223.411-.044.164-.123.179-.277.164C540.41,755.428,539.966,755.406,539.525,755.322Z" transform="translate(-499.78 -699.826)" fill="#f2f2f2"/>
      <path id="Path_894" data-name="Path 894" d="M718.242,754.293a1.451,1.451,0,0,0,.314.884.688.688,0,0,0,.224.18.9.9,0,0,0,.411.065,3.291,3.291,0,0,0,1.142-.231,3.293,3.293,0,0,1,.395-.149,4.446,4.446,0,0,1,.513-.074,13.232,13.232,0,0,0,1.934-.7,4.073,4.073,0,0,0,.575-.189,2.637,2.637,0,0,0,.677-.529,1.214,1.214,0,0,0,.444-1.12.212.212,0,0,0-.02-.116.173.173,0,0,0-.074-.059,1.075,1.075,0,0,0-.658-.011,11.676,11.676,0,0,1-2.428.09.353.353,0,0,1-.373-.213l-.308-.493c-.088-.141-.228-.3-.387-.255a.315.315,0,0,0-.174.329,1.756,1.756,0,0,1,.021.4.543.543,0,0,1-.263.342,1.674,1.674,0,0,1-.411.158,3.157,3.157,0,0,0-1.333.607C718.2,753.443,718.227,753.973,718.242,754.293Z" transform="translate(-665.519 -696.588)" fill="#f2f2f2"/>
      <path id="Path_895" data-name="Path 895" d="M681.012,350.354a1.9,1.9,0,0,0,.449-.488,1.991,1.991,0,0,0,.192-.675l.129-.816a2.456,2.456,0,0,1,.455-1.268.845.845,0,0,1,1.2-.127,1.056,1.056,0,0,1,.219.546,3.974,3.974,0,0,1-.972,3.288c-.369.4-.822.726-1.213,1.108-.34.329-.635.706-.95,1.064a13.1,13.1,0,0,1-2.587,2.261,11.6,11.6,0,0,0,0-1.875c-.067-.439-.247-.676.178-.963A32.618,32.618,0,0,0,681.012,350.354Z" transform="translate(-628.448 -325.265)" fill="#fbbebe"/>
      <path id="Path_896" data-name="Path 896" d="M609.135,302.727a1.5,1.5,0,0,1-.575,1.137q1.536.538,3.031,1.185a1.051,1.051,0,0,1-.26-.735,3.71,3.71,0,0,1,.567-1.981.48.48,0,0,0,.093-.261c-.011-.194-.242-.284-.431-.329a10.6,10.6,0,0,0-1.966-.285c-.284-.009-.62-.1-.556.262A3.964,3.964,0,0,1,609.135,302.727Z" transform="translate(-564.861 -283.654)" fill="#fbbebe"/>
      <circle id="Ellipse_113" data-name="Ellipse 113" cx="2.403" cy="2.403" r="2.403" transform="translate(43.852 14.502)" fill="#fbbebe"/>
      <path id="Path_897" data-name="Path 897" d="M603.094,326.932a2.914,2.914,0,0,0-.3-.511,10.636,10.636,0,0,0-1.442-1.768,8.976,8.976,0,0,0-1.369-1.005,3.106,3.106,0,0,0-.857-.411,3.349,3.349,0,0,0-.55-.075l-.624-.051a.511.511,0,0,0-.164,0,.354.354,0,0,0-.211.423,1.042,1.042,0,0,0,.278.437c.028,1.273-.538,2.53-.615,3.8-.134,2.224,1.223,4.292,1.332,6.517a.7.7,0,0,1-.031.3c-.018.046-.045.088-.066.133a1.3,1.3,0,0,0-.073.452,2.3,2.3,0,0,1-.677,1.449,1.006,1.006,0,0,0,.381.291,6.869,6.869,0,0,0,.854.2,6.631,6.631,0,0,0,2.227.381,1.966,1.966,0,0,0,.172-.647c.107-.067.23.076.247.2s-.007.27.082.361a.338.338,0,0,0,.312.062,13.8,13.8,0,0,0,1.356-.318,2.531,2.531,0,0,1,1.375,0,.368.368,0,0,0-.021-.4,1.8,1.8,0,0,1-.216-.369.831.831,0,0,1-.026-.243,10.768,10.768,0,0,0,.007-2.1c-.04-.2-.1-.4-.146-.6a5.2,5.2,0,0,1-.059-1.2c.011-.4-.038-.837-.046-1.245a3.975,3.975,0,0,0-.033-.5c-.028-.175-.082-.346-.1-.523-.044-.449.136-.894.109-1.345C604.156,327.935,603.361,327.563,603.094,326.932Z" transform="translate(-554.46 -303.538)" fill="#ff6f61"/>
      <path id="Path_898" data-name="Path 898" d="M566.419,365.5a26.463,26.463,0,0,0-1.151,4.808l-.658,3.819a18.484,18.484,0,0,0-.367,3.26,3.487,3.487,0,0,1-.061.917,4.95,4.95,0,0,1-.565,1.069,3.518,3.518,0,0,0-.378,2.378c.067.341.252.728.6.768a.828.828,0,0,0,.7-.428,5.514,5.514,0,0,0,.74-1.818,41.1,41.1,0,0,0,1.14-6.337,6.157,6.157,0,0,1,.114-.806,5.7,5.7,0,0,1,.278-.8l.755-1.871a29.893,29.893,0,0,1,1.964-4.222c-.789-.227-1.61-.493-2.4-.718A2.168,2.168,0,0,0,566.419,365.5Z" transform="translate(-523.208 -342.424)" fill="#fbbebe"/>
      <path id="Path_899" data-name="Path 899" d="M597.12,359.625a9.025,9.025,0,0,0-1.688-.1.364.364,0,0,1-.227-.059c-.114-.1-.066-.281-.008-.42l.273-.658a.954.954,0,0,1,.219-.363.927.927,0,0,1,.519-.176,4.7,4.7,0,0,1,1.8.07A2.149,2.149,0,0,1,599.392,359a.732.732,0,0,1,.015.719c-.214.307-.693.649-1.051.482A5.476,5.476,0,0,0,597.12,359.625Z" transform="translate(-552.541 -335.379)" fill="#ff6f61"/>
      <path id="Path_900" data-name="Path 900" d="M570.6,226.538a2.427,2.427,0,0,0-1.34.386,2.939,2.939,0,0,0-2.886-.676,1.68,1.68,0,1,0-1.94,1.943,2.939,2.939,0,1,0,5.641,1.652,2.629,2.629,0,0,0,.527.053,1.722,1.722,0,1,0,0-3.359Z" transform="translate(-523.086 -213.365)" fill="#3f3d56"/>
      <path id="Path_901" data-name="Path 901" d="M649.912,268.579a2.554,2.554,0,0,1-.527-.053,2.923,2.923,0,0,1-.385.846,2.642,2.642,0,0,0,.493.048,1.987,1.987,0,0,0,2.087-1.5A2.316,2.316,0,0,1,649.912,268.579Z" transform="translate(-601.977 -252.888)" opacity="0.1"/>
      <path id="Path_902" data-name="Path 902" d="M567.671,237.18a2.943,2.943,0,0,1-2.81-3.8,1.68,1.68,0,0,1-1.388-1.654,1.658,1.658,0,0,1,.027-.3,1.68,1.68,0,0,0,.942,2.8,2.939,2.939,0,1,0,5.614,1.741A2.933,2.933,0,0,1,567.671,237.18Z" transform="translate(-523.095 -219.389)" opacity="0.1"/>
      <rect id="Rectangle_836" data-name="Rectangle 836" width="0.055" height="0.455" rx="0.028" transform="matrix(0.814, 0.581, -0.581, 0.814, 55.268, 22.691)" fill="#3a3768"/>
      <rect id="Rectangle_837" data-name="Rectangle 837" width="0.031" height="0.15" rx="0.016" transform="matrix(0.814, 0.581, -0.581, 0.814, 53.981, 21.334)" fill="#3a3768"/>
      <rect id="Rectangle_838" data-name="Rectangle 838" width="0.035" height="0.261" rx="0.017" transform="matrix(0.814, 0.581, -0.581, 0.814, 53.819, 21.558)" fill="#3a3768"/>
      <rect id="Rectangle_839" data-name="Rectangle 839" width="0.033" height="0.263" rx="0.016" transform="matrix(0.814, 0.581, -0.581, 0.814, 53.616, 21.845)" fill="#3a3768"/>
      <rect id="Rectangle_840" data-name="Rectangle 840" width="1.848" height="3.756" rx="0.924" transform="matrix(0.814, 0.581, -0.581, 0.814, 54.359, 21.095)" fill="#3a3768"/>
      <rect id="Rectangle_841" data-name="Rectangle 841" width="1.848" height="3.756" rx="0.924" transform="matrix(0.814, 0.581, -0.581, 0.814, 54.359, 21.095)" opacity="0.1"/>
      <rect id="Rectangle_842" data-name="Rectangle 842" width="1.848" height="3.756" rx="0.924" transform="matrix(0.814, 0.581, -0.581, 0.814, 54.283, 20.941)" fill="#3a3768"/>
      <path id="Path_903" data-name="Path 903" d="M716.475,343.092l-.172-.123-.015.021a.12.12,0,0,1-.164.029l-.549-.392a.121.121,0,0,1-.028-.169l.015-.021-.164-.115a.146.146,0,0,0-.2.034l-1.9,2.659a.147.147,0,0,0,.034.2l1.08.77a.146.146,0,0,0,.2-.035l1.9-2.659a.146.146,0,0,0-.036-.2Z" transform="translate(-660.961 -321.148)" fill="#6adbbd"/>
      <rect id="Rectangle_843" data-name="Rectangle 843" width="0.258" height="0.053" rx="0.026" transform="matrix(0.814, 0.581, -0.581, 0.814, 54.824, 21.467)" fill="#e6e8ec"/>
      <circle id="Ellipse_114" data-name="Ellipse 114" cx="0.03" cy="0.03" r="0.03" transform="translate(55.042 21.65)" fill="#e6e8ec"/>
      <path id="Path_904" data-name="Path 904" d="M685.508,99A5.508,5.508,0,0,0,680,104.508c0,3.042,5.771,13.116,5.771,13.116s5.245-10.07,5.245-13.116A5.508,5.508,0,0,0,685.508,99Zm0,9.181a2.881,2.881,0,1,1,2.041-.843,2.885,2.885,0,0,1-2.041.843Z" transform="translate(-630.428 -97.855)" fill="#6adbbd"/>
      <path id="Path_905" data-name="Path 905" d="M685.508,99A5.508,5.508,0,0,0,680,104.508c0,3.042,5.771,13.116,5.771,13.116s5.245-10.07,5.245-13.116A5.508,5.508,0,0,0,685.508,99Zm0,9.181a2.881,2.881,0,1,1,2.041-.843,2.885,2.885,0,0,1-2.041.843Z" transform="translate(-630.428 -97.855)" opacity="0.1"/>
      <path id="Path_906" data-name="Path 906" d="M685.508,85.07A5.508,5.508,0,0,0,680,90.578c0,3.042,5.771,14.263,5.771,14.263s5.245-11.22,5.245-14.262a5.508,5.508,0,0,0-5.509-5.509Zm0,9.181a2.886,2.886,0,1,1,2.885-2.886A2.885,2.885,0,0,1,685.508,94.251Z" transform="translate(-630.428 -85.07)" fill="#6adbbd"/>
    </g>
  </g>
</svg>
