<svg xmlns="http://www.w3.org/2000/svg" xmlns:xlink="http://www.w3.org/1999/xlink" width="105" height="60.151" viewBox="0 0 105 60.151">
  <defs>
    <linearGradient id="linear-gradient" x1="0.5" y1="1" x2="0.5" gradientUnits="objectBoundingBox">
      <stop offset="0" stop-color="gray" stop-opacity="0.251"/>
      <stop offset="0.54" stop-color="gray" stop-opacity="0.122"/>
      <stop offset="1" stop-color="gray" stop-opacity="0.102"/>
    </linearGradient>
    <linearGradient id="linear-gradient-2" y1="1" y2="0" xlink:href="#linear-gradient"/>
  </defs>
  <g id="Group_794" data-name="Group 794" transform="translate(1213 2648)">
    <rect id="Rectangle_855" data-name="Rectangle 855" width="105" height="60" transform="translate(-1213 -2648)" fill="none"/>
    <g id="expertise" transform="translate(-1212.385 -2648.06)">
      <path id="Path_907" data-name="Path 907" d="M154.687,514.318c-6.311-2.181-13.527-4.026-19.423-.893a4.362,4.362,0,0,0-1.886,1.641c-1.064,1.957.627,4.5-.2,6.565s-3.925,3.111-3.671,5.321a3.084,3.084,0,0,0,.748,1.552c2.31,2.822,6.544,3.107,10.123,2.407s7.079-2.152,10.723-1.969c3.5.181,6.722,1.86,9.93,3.274,5.408,2.39,11.725,4.1,17.129,1.7,2.476-1.1,4.523-2.975,6.893-4.284a16.966,16.966,0,0,1,10.471-1.921,69.525,69.525,0,0,1,7.06,1.781c5.35,1.336,10.935,1.292,16.448,1.24a8.253,8.253,0,0,0,6.867-2.746c1.52-1.294,3.12-2.717,3.611-4.652.579-2.3-.619-4.74-2.4-6.3a19.479,19.479,0,0,0-6.265-3.238,2.84,2.84,0,0,0-1.692-.254,2.307,2.307,0,0,0-.952.609c-1.573,1.514-2.9,4.076-5.048,3.664a4.792,4.792,0,0,1-2-1.172c-3.236-2.626-7.59-4.653-11.5-3.2-2.857,1.061-4.873,3.787-7.768,4.749-2.059.685-4.3.388-6.463.522-3.151.193-6.218,1.306-9.373,1.239-8.046-.173-14.75-7.867-22.763-7.134a2.343,2.343,0,0,0-1.7.7" transform="translate(-128.782 -474.864)" fill="#6adbbd" opacity="0.5"/>
      <path id="Path_908" data-name="Path 908" d="M252.268,463.641s-6.686,4.036,5.644,10.253c0,0,2.717-5.044-.287-9.157a4.048,4.048,0,0,0-5.252-1.151Z" transform="translate(-236.509 -431.505)" fill="#6adbbd"/>
      <path id="Path_909" data-name="Path 909" d="M267.73,467.52s5.725,4.377,5.565,10.334" transform="translate(-251.892 -435.469)" fill="none" stroke="#535461" stroke-miterlimit="10" stroke-width="1"/>
      <path id="Path_910" data-name="Path 910" d="M890.981,380.133c1.355,4.953-4.424,19.064-4.424,19.064s-12.158-9.2-13.514-14.158a9.3,9.3,0,1,1,17.936-4.907Z" transform="translate(-790.629 -351.36)" fill="#6adbbd"/>
      <path id="Path_911" data-name="Path 911" d="M890.981,380.133c1.355,4.953-4.424,19.064-4.424,19.064s-12.158-9.2-13.514-14.158a9.3,9.3,0,1,1,17.936-4.907Z" transform="translate(-790.629 -351.36)" opacity="0.1"/>
      <path id="Path_912" data-name="Path 912" d="M936.21,378.27s7.568,11.425,7,25.579" transform="translate(-847.231 -355.984)" fill="none" stroke="#535461" stroke-miterlimit="10" stroke-width="1"/>
      <path id="Path_913" data-name="Path 913" d="M1008.395,516.548s-6.862-3.733-5.994,10.047c0,0,5.725-.2,7.756-4.874a4.048,4.048,0,0,0-1.662-5.115Z" transform="translate(-906.112 -478.721)" fill="#6adbbd"/>
      <path id="Path_914" data-name="Path 914" d="M1009.126,520.52s-.886,7.153-6.106,10.023" transform="translate(-906.731 -482.67)" fill="none" stroke="#535461" stroke-miterlimit="10" stroke-width="1"/>
      <path id="Path_915" data-name="Path 915" d="M124.815,501.576s-6.69,4.035,5.641,10.249c0,0,2.717-5.044-.287-9.157a4.048,4.048,0,0,0-5.252-1.151Z" transform="translate(-123 -465.285)" fill="#6adbbd"/>
      <path id="Path_916" data-name="Path 916" d="M140.26,505.49s5.725,4.377,5.565,10.334" transform="translate(-138.369 -469.284)" fill="none" stroke="#535461" stroke-miterlimit="10" stroke-width="1"/>
      <path id="Path_917" data-name="Path 917" d="M303.662,266.041h-7.03a2.344,2.344,0,0,0,.245-1.047v-32.01a2.353,2.353,0,0,0-2.353-2.353H240.109a2.353,2.353,0,0,0-2.353,2.353v32.011a2.344,2.344,0,0,0,.245,1.047h-7.278a.623.623,0,0,0-.623.626v.5a3.482,3.482,0,0,0,3.482,3.482H300.8a3.482,3.482,0,0,0,3.482-3.482v-.5a.623.623,0,0,0-.623-.627Zm-43.316,1.991-.606-.684h14.966l-.667.685Z" transform="translate(-218.379 -224.498)" fill="url(#linear-gradient)"/>
      <rect id="Rectangle_844" data-name="Rectangle 844" width="57.783" height="35.887" rx="17.943" transform="translate(20.043 6.585)" fill="#535461"/>
      <rect id="Rectangle_845" data-name="Rectangle 845" width="55.229" height="29.317" transform="translate(21.26 11.817)" fill="#fff"/>
      <circle id="Ellipse_115" data-name="Ellipse 115" cx="0.487" cy="0.487" r="0.487" transform="translate(48.388 8.775)" fill="#fff"/>
      <path id="Path_918" data-name="Path 918" d="M282.62,551.08l-1.9,1.946H267.346l-1.715-1.946H238.388a.608.608,0,0,0-.608.608v.49a3.4,3.4,0,0,0,3.4,3.4h65.7a3.4,3.4,0,0,0,3.4-3.4v-.49a.608.608,0,0,0-.608-.608Z" transform="translate(-225.219 -509.886)" fill="#535461"/>
      <path id="Path_919" data-name="Path 919" d="M258.77,124.19v24.938h41.238" transform="translate(-230.454 -110.548)" fill="none" stroke="#535461" stroke-miterlimit="10" stroke-width="2"/>
      <rect id="Rectangle_846" data-name="Rectangle 846" width="4.257" height="6.569" transform="translate(31.965 31.037)" fill="#6adbbd" opacity="0.5"/>
      <rect id="Rectangle_847" data-name="Rectangle 847" width="4.257" height="12.409" transform="translate(39.264 25.198)" fill="#6adbbd" opacity="0.7"/>
      <rect id="Rectangle_848" data-name="Rectangle 848" width="4.257" height="8.88" transform="translate(46.563 28.725)" fill="#6adbbd" opacity="0.5"/>
      <rect id="Rectangle_849" data-name="Rectangle 849" width="4.257" height="14.355" transform="translate(53.862 23.251)" fill="#6adbbd" opacity="0.8"/>
      <rect id="Rectangle_850" data-name="Rectangle 850" width="4.257" height="19.464" transform="translate(61.161 18.142)" fill="#6adbbd"/>
      <path id="Path_920" data-name="Path 920" d="M311.02,156.38l7.42-6.691,7.3,6.325,7.177-7.663,7.3-3.042" transform="translate(-276.987 -129.358)" fill="none" stroke="#535461" stroke-miterlimit="10" stroke-width="2"/>
      <circle id="Ellipse_116" data-name="Ellipse 116" cx="0.851" cy="0.851" r="0.851" transform="translate(33.181 26.172)" fill="#6adbbd"/>
      <circle id="Ellipse_117" data-name="Ellipse 117" cx="0.851" cy="0.851" r="0.851" transform="translate(47.779 25.685)" fill="#6adbbd"/>
      <circle id="Ellipse_118" data-name="Ellipse 118" cx="0.851" cy="0.851" r="0.851" transform="translate(55.2 18.143)" fill="#6adbbd"/>
      <circle id="Ellipse_119" data-name="Ellipse 119" cx="0.851" cy="0.851" r="0.851" transform="translate(40.602 19.358)" fill="#6adbbd"/>
      <circle id="Ellipse_120" data-name="Ellipse 120" cx="0.851" cy="0.851" r="0.851" transform="translate(62.377 15.101)" fill="#6adbbd"/>
      <path id="Path_921" data-name="Path 921" d="M787.45,217.33a4.268,4.268,0,0,0-1.641-.258,8.356,8.356,0,0,1-2.489-1.37,17.965,17.965,0,0,0-.054-2.1,22.679,22.679,0,0,1,.515-7.783,15.374,15.374,0,0,0,.649-4.316c.047.089.073.141.073.141a14.531,14.531,0,0,1,1.07-4.524.356.356,0,0,0,.048-.018l.481-1.142a.992.992,0,0,0,.091-.211l.078-.181-.023-.01c.008-.03.015-.061.023-.093h0a42.927,42.927,0,0,0,.547-4.386,5.711,5.711,0,0,0-1.134-5.252l-3.324-2.86a.42.42,0,0,1,.033.117l-.027-.024c-.047-.135-.1-.3-.149-.479a2.81,2.81,0,0,0,1.073-1.611,5.042,5.042,0,0,0,.049-1.2l-.055-1.38a4.371,4.371,0,0,0-.082-.8,2.677,2.677,0,0,0-2.5-1.91,9.131,9.131,0,0,0-1.072.057,7.213,7.213,0,0,1-.875.019.157.157,0,0,1-.094-.025.138.138,0,0,1-.041-.1.475.475,0,0,1,.116-.356.438.438,0,0,1,.151-.086l-.08.019a.437.437,0,0,1,.131-.071,2.55,2.55,0,0,0-.829.3,1.073,1.073,0,0,0-.194.163.846.846,0,0,0-.28.521.969.969,0,0,1-.3-.438.44.44,0,0,1,0-.212q-.029.036-.057.074v-.023a2.212,2.212,0,0,0-.438.891.347.347,0,0,1-.079-.256q-.025.077-.046.154a.354.354,0,0,1,0-.1,3.524,3.524,0,0,0-.172,1.223c0,.414.184,1.058.627,1.2.023.008.046.013.07.019a2.782,2.782,0,0,0,1.876,4.25q.011.075.021.159h.017c.012.109.022.23.028.352a2.369,2.369,0,0,1-.365.293,3.013,3.013,0,0,1-1.217.4,3.622,3.622,0,0,0-1.463.438,2.755,2.755,0,0,0-1.3,1.254,5.072,5.072,0,0,1-3.125,2.407l-.4-.023-.03-.009v.008l-.1-.005h-.032v.005l-.1-.005s-.01.047-.024.13a10.081,10.081,0,0,1-3.351-2.166,5.749,5.749,0,0,0-5.033-1.077.156.156,0,0,0-.042.29,5.082,5.082,0,0,0,1.2.53s-.547.572.035.875a.422.422,0,0,0,.438-.043c.282-.207,1.067.262,2.2.505,0,0,3.208,3.32,4.8,3.829a2.3,2.3,0,0,0,.121.211l.1-.008v.008h.042l.012.109s2.477-.13,3.282-1.03a1.293,1.293,0,0,0,.156-.167L774.141,201h.008l-.008.1h.634a23.875,23.875,0,0,1-.172,3.989v7.062s-.033.621,1.258,1.532a48.265,48.265,0,0,1,3.908,3.03l.156.136c-.237,2.161-.734,6.188-1.149,6.338l.256.045c-.438.555-1.681,2.079-2.059,2.119-.464.051-.773.774,0,.928a8.667,8.667,0,0,0,4.6-.453.7.7,0,0,0,.438-.746l-.15-1.138a.16.16,0,0,1,.066.069c.1.31,0-.412,0-.412a32.246,32.246,0,0,0,1-4.158l1.532,1.324s.031-.038.084-.109a8.743,8.743,0,0,1,.9,3.869c-.206,1.751,1.751.206,1.546-.825-.166-.834.578-4.368.868-5.689A.588.588,0,0,0,787.45,217.33Z" transform="translate(-692.552 -175.07)" fill="url(#linear-gradient-2)"/>
      <path id="Path_922" data-name="Path 922" d="M773.54,271.581a8.349,8.349,0,0,1-3.624-2.215A5.61,5.61,0,0,0,765,268.315a.152.152,0,0,0-.041.282,4.976,4.976,0,0,0,1.179.518s-.539.558.034.857a.413.413,0,0,0,.431-.042c.276-.2,1.042.256,2.152.493,0,0,4.328,4.479,5.335,3.72Z" transform="translate(-694.65 -257.915)" fill="#fec3be"/>
      <path id="Path_923" data-name="Path 923" d="M912.11,226.214a6.466,6.466,0,0,1,0,2.919l1.812.252,1.611-.805v-1.057a7.259,7.259,0,0,1-.554-3.473Z" transform="translate(-825.768 -218.637)" fill="#fec3be"/>
      <path id="Path_924" data-name="Path 924" d="M959,558.316s1.313,2.567,1.107,4.278,1.711.2,1.51-.805c-.163-.814.563-4.267.847-5.552a.573.573,0,0,0-.381-.668c-.6-.2-1.618-.443-2.127-.07C959.2,556.051,959,558.316,959,558.316Z" transform="translate(-867.527 -513.648)" fill="#8b416f"/>
      <path id="Path_925" data-name="Path 925" d="M892.131,607.361s-1.711,2.215-2.164,2.265-.755.755,0,.906a8.462,8.462,0,0,0,4.486-.438.685.685,0,0,0,.43-.729l-.289-2.155Z" transform="translate(-805.638 -559.875)" fill="#8b416f"/>
      <path id="Path_926" data-name="Path 926" d="M874.21,393.78l-1.641.219a24.019,24.019,0,0,1-.02,5.769v6.893s-.032.607,1.229,1.49a47.111,47.111,0,0,1,3.816,2.954l4.567,3.956s1.812-2.215,1.56-3.523c0,0-3.02-.956-3.422-2.517-.231-.893-1.4-1.641-2.36-2.112a2.934,2.934,0,0,1-1.57-3.331,2.569,2.569,0,0,1,.257-.647,42.145,42.145,0,0,0,1.963-4.58l-2.215-4.221Z" transform="translate(-790.536 -369.797)" fill="#4d4981"/>
      <path id="Path_927" data-name="Path 927" d="M874.21,393.78l-1.641.219a24.019,24.019,0,0,1-.02,5.769v6.893s-.032.607,1.229,1.49a47.111,47.111,0,0,1,3.816,2.954l4.567,3.956s1.812-2.215,1.56-3.523c0,0-3.02-.956-3.422-2.517-.231-.893-1.4-1.641-2.36-2.112a2.934,2.934,0,0,1-1.57-3.331,2.569,2.569,0,0,1,.257-.647,42.145,42.145,0,0,0,1.963-4.58l-2.215-4.221Z" transform="translate(-790.536 -369.797)" opacity="0.05"/>
      <path id="Path_928" data-name="Path 928" d="M896.736,417.592s2.969.5,3.07.805,0-.4,0-.4a28.672,28.672,0,0,0,1.313-9.763,22.293,22.293,0,0,1,.5-7.6s1.057-3.422.453-5.385-6.946-1.107-6.946-1.107,2.214,5.184,2.164,7.65c0,0,.252,7.449.7,8.3C897.994,410.09,897.29,417.387,896.736,417.592Z" transform="translate(-810.646 -369.951)" fill="#4d4981"/>
      <path id="Path_929" data-name="Path 929" d="M876.572,255.79s.3,1.86,3.322,1.057l-2.009,15.3s-5.838.2-5.788-.5l1.2-9.26Z" transform="translate(-790.133 -246.905)" fill="#fff"/>
      <path id="Path_930" data-name="Path 930" d="M850.836,254.87a2.453,2.453,0,0,1-1.454.69,3.537,3.537,0,0,0-1.429.425,2.673,2.673,0,0,0-1.269,1.224c-.352,1.007-2.567,2.668-3.573,2.315l.352,3.02s2.869-.151,3.372-1.258l-.854,10.776h.755a23.8,23.8,0,0,1,.7-3.523,27.141,27.141,0,0,0,.956-4.731c.05-.805.805-5.436,1.46-6.237l.985-2.391Z" transform="translate(-764.317 -246.085)" opacity="0.1"/>
      <path id="Path_931" data-name="Path 931" d="M850.025,256.25a3.115,3.115,0,0,1-1.555.64,3.538,3.538,0,0,0-1.428.427,2.673,2.673,0,0,0-1.269,1.224c-.352,1.007-2.567,2.668-3.573,2.315l.352,3.02s2.869-.151,3.372-1.258l-.856,10.77h.755a23.8,23.8,0,0,1,.7-3.523,27.142,27.142,0,0,0,.956-4.731c.05-.805.805-5.436,1.46-6.237l1.081-2.346Z" transform="translate(-763.507 -247.314)" opacity="0.1"/>
      <path id="Path_932" data-name="Path 932" d="M850.016,255.33a3.115,3.115,0,0,1-1.555.64,3.537,3.537,0,0,0-1.429.425,2.673,2.673,0,0,0-1.269,1.224c-.352,1.007-2.567,2.668-3.573,2.315l.352,3.02s2.869-.151,3.372-1.258l-.854,10.776h.755a23.8,23.8,0,0,1,.7-3.523,27.141,27.141,0,0,0,.956-4.731c.05-.805.805-5.436,1.46-6.237l1.082-2.34Z" transform="translate(-763.498 -246.495)" fill="#fd6f8d"/>
      <path id="Path_933" data-name="Path 933" d="M914.853,226.764a5.1,5.1,0,0,1,.126-1.334l-2.869,2.164s.069.292.121.72a2.738,2.738,0,0,0,.438.035A2.705,2.705,0,0,0,914.853,226.764Z" transform="translate(-825.768 -219.866)" opacity="0.1"/>
      <circle id="Ellipse_121" data-name="Ellipse 121" cx="2.718" cy="2.718" r="2.718" transform="translate(84.178 2.897)" fill="#fec3be"/>
      <path id="Path_934" data-name="Path 934" d="M890.04,183.72a3.44,3.44,0,0,1,.219-1.345.336.336,0,0,0,.057.438A2.153,2.153,0,0,1,891,181.6a.37.37,0,0,0-.245.462,1.05,1.05,0,0,0,.336.473.844.844,0,0,1,.415-.714,2.488,2.488,0,0,1,.81-.293.469.469,0,0,0-.311.481.135.135,0,0,0,.04.093.155.155,0,0,0,.092.024,7.04,7.04,0,0,0,.85-.019,8.919,8.919,0,0,1,1.047-.056,2.612,2.612,0,0,1,2.439,1.86,4.281,4.281,0,0,1,.08.786l.054,1.347a4.921,4.921,0,0,1-.048,1.177,2.5,2.5,0,0,1-1.281,1.694,5.173,5.173,0,0,1-.567-1.989,1.008,1.008,0,0,0-.171-.438.384.384,0,0,0-.421-.142.242.242,0,0,0-.089.385c-.109.129-.314.033-.438-.082a2.35,2.35,0,0,1-.682-1.218c-.049-.234-.1-.523-.328-.6a.61.61,0,0,0-.243-.016,5.235,5.235,0,0,1-1.693.079C890.219,184.754,890.04,184.124,890.04,183.72Z" transform="translate(-806.11 -180.77)" opacity="0.1"/>
      <path id="Path_935" data-name="Path 935" d="M890.5,183.26a3.439,3.439,0,0,1,.219-1.345.336.336,0,0,0,.057.438,2.153,2.153,0,0,1,.683-1.21.37.37,0,0,0-.245.462,1.05,1.05,0,0,0,.336.473.844.844,0,0,1,.415-.714,2.488,2.488,0,0,1,.81-.293.469.469,0,0,0-.311.481.135.135,0,0,0,.04.093.155.155,0,0,0,.092.024,7.048,7.048,0,0,0,.85-.019,8.917,8.917,0,0,1,1.047-.056,2.612,2.612,0,0,1,2.439,1.86,4.276,4.276,0,0,1,.08.786l.054,1.347a4.918,4.918,0,0,1-.048,1.177,2.5,2.5,0,0,1-1.281,1.694,5.174,5.174,0,0,1-.567-1.989,1.007,1.007,0,0,0-.171-.438.384.384,0,0,0-.421-.142.242.242,0,0,0-.089.385c-.109.129-.314.033-.438-.082a2.35,2.35,0,0,1-.682-1.218c-.049-.234-.1-.523-.328-.6a.61.61,0,0,0-.243-.016,5.236,5.236,0,0,1-1.693.079C890.679,184.293,890.5,183.664,890.5,183.26Z" transform="translate(-806.52 -180.36)" fill="#784f69"/>
      <path id="Path_936" data-name="Path 936" d="M840.127,297.42a4.676,4.676,0,0,0,.352,3.02l.428-.035-.233-2.954Z" transform="translate(-761.565 -283.98)" opacity="0.1"/>
      <path id="Path_937" data-name="Path 937" d="M841.127,297.42a4.677,4.677,0,0,0,.352,3.02l.428-.035-.233-2.954Z" transform="translate(-762.456 -283.98)" fill="#fd6f8d"/>
      <path id="Path_938" data-name="Path 938" d="M912.379,251l3.246,2.793a5.592,5.592,0,0,1,1.107,5.134s-.352,4.63-.755,4.832a15.74,15.74,0,0,0-1.51,5.486s-1.887-3.8-2.743-1.485a3.989,3.989,0,0,1-2.845,2.642l1.107-13.694S912.782,251.851,912.379,251Z" transform="translate(-822.891 -242.639)" opacity="0.1"/>
      <path id="Path_939" data-name="Path 939" d="M913.3,251l3.246,2.793a5.592,5.592,0,0,1,1.107,5.134s-.352,4.63-.755,4.832a15.74,15.74,0,0,0-1.51,5.486s-1.988-4-2.845-1.686A4.554,4.554,0,0,1,909.8,270.4l1.107-13.689S913.7,251.851,913.3,251Z" transform="translate(-823.711 -242.639)" fill="#fd6f8d"/>
      <path id="Path_940" data-name="Path 940" d="M937.529,358.023s.805-.554,2.114.956l-3.221,5.838-1.082-1.634S937.63,358.678,937.529,358.023Z" transform="translate(-846.456 -337.864)" fill="#fec3be"/>
      <path id="Path_941" data-name="Path 941" d="M948.22,354.856s1.781,2,2.476,1.679l.643-1.5L948.925,354Z" transform="translate(-857.927 -334.369)" opacity="0.1"/>
      <path id="Path_942" data-name="Path 942" d="M948.22,353.936s1.781,2,2.476,1.68l.643-1.5-2.415-1.037Z" transform="translate(-857.927 -333.55)" fill="#fd6f8d"/>
      <path id="Path_943" data-name="Path 943" d="M933.793,402.51s.848,1.737,1.3,1.838l-.656.755-.956-1.812Z" transform="translate(-844.8 -377.572)" opacity="0.1"/>
      <path id="Path_944" data-name="Path 944" d="M933.315,403s.848,1.738,1.3,1.838l-.656.755L933,403.778Z" transform="translate(-844.372 -378.008)" fill="#4d4981"/>
      <path id="Path_945" data-name="Path 945" d="M948.062,304.78a24.927,24.927,0,0,1-.3,4.983" transform="translate(-857.517 -290.535)" opacity="0.1"/>
      <path id="Path_946" data-name="Path 946" d="M876,305.485s.6-.2.6-.7" transform="translate(-793.609 -290.535)" opacity="0.1"/>
      <path id="Path_947" data-name="Path 947" d="M192.457,316.76a20.3,20.3,0,0,0-.985,12.958c1.884,7.023,1.286,15.427-.593,17.506" transform="translate(-183.406 -301.204)" fill="none" stroke="#535461" stroke-miterlimit="10" stroke-width="2"/>
      <circle id="Ellipse_122" data-name="Ellipse 122" cx="0.791" cy="0.791" r="0.791" transform="translate(8.259 14.766)" fill="#6adbbd"/>
      <path id="Path_948" data-name="Path 948" d="M194.79,347.2s2.974.536,3.765-.547" transform="translate(-186.932 -327.823)" fill="none" stroke="#535461" stroke-miterlimit="10" stroke-width="2"/>
      <path id="Path_949" data-name="Path 949" d="M178.419,341.626s-1.789-1.979-1.69-3.166" transform="translate(-170.843 -320.53)" fill="none" stroke="#535461" stroke-miterlimit="10" stroke-width="2"/>
      <path id="Path_950" data-name="Path 950" d="M190.82,378.275s1.627.429,3.112-2.735" transform="translate(-183.397 -353.552)" fill="none" stroke="#535461" stroke-miterlimit="10" stroke-width="2"/>
      <path id="Path_951" data-name="Path 951" d="M165.515,389.756s-4.048-2.605-3.555-4.286" transform="translate(-157.658 -362.396)" fill="none" stroke="#535461" stroke-miterlimit="10" stroke-width="2"/>
      <path id="Path_952" data-name="Path 952" d="M200.57,411.253s2.836-2.516,2.539-4.992" transform="translate(-192.08 -380.911)" fill="none" stroke="#535461" stroke-miterlimit="10" stroke-width="2"/>
      <path id="Path_953" data-name="Path 953" d="M174.871,446.821s-3.611-1.009-3.5-2.591" transform="translate(-166.073 -414.727)" fill="none" stroke="#535461" stroke-miterlimit="10" stroke-width="2"/>
      <path id="Path_954" data-name="Path 954" d="M205.69,459.392s2.275-2.107,2.571-3.392" transform="translate(-196.64 -425.209)" fill="none" stroke="#535461" stroke-miterlimit="10" stroke-width="2"/>
      <path id="Path_955" data-name="Path 955" d="M187.333,486.309S185,483.584,184.9,482.2" transform="translate(-178.124 -448.542)" fill="none" stroke="#535461" stroke-miterlimit="10" stroke-width="2"/>
      <path id="Path_956" data-name="Path 956" d="M207.14,505.476s2.612-2.9,2.809-4.286" transform="translate(-197.931 -465.455)" fill="none" stroke="#535461" stroke-miterlimit="10" stroke-width="2"/>
      <circle id="Ellipse_123" data-name="Ellipse 123" cx="0.791" cy="0.791" r="0.791" transform="translate(5.094 17.338)" fill="#6adbbd"/>
      <circle id="Ellipse_124" data-name="Ellipse 124" cx="0.791" cy="0.791" r="0.791" transform="translate(4.204 28.712)" fill="#6adbbd"/>
      <circle id="Ellipse_125" data-name="Ellipse 125" cx="0.791" cy="0.791" r="0.791" transform="translate(3.512 22.283)" fill="#6adbbd"/>
      <circle id="Ellipse_126" data-name="Ellipse 126" cx="0.791" cy="0.791" r="0.791" transform="translate(10.832 18.03)" fill="#6adbbd"/>
      <circle id="Ellipse_127" data-name="Ellipse 127" cx="0.791" cy="0.791" r="0.791" transform="translate(10.832 30.196)" fill="#6adbbd"/>
      <circle id="Ellipse_128" data-name="Ellipse 128" cx="0.791" cy="0.791" r="0.791" transform="translate(9.546 21.195)" fill="#6adbbd"/>
      <circle id="Ellipse_129" data-name="Ellipse 129" cx="0.791" cy="0.791" r="0.791" transform="translate(11.128 35.439)" fill="#6adbbd"/>
      <circle id="Ellipse_130" data-name="Ellipse 130" cx="0.791" cy="0.791" r="0.791" transform="translate(5.787 33.361)" fill="#6adbbd"/>
      <circle id="Ellipse_131" data-name="Ellipse 131" cx="0.791" cy="0.791" r="0.791" transform="translate(10.337 24.558)" fill="#6adbbd"/>
    </g>
  </g>
</svg>
