<svg xmlns="http://www.w3.org/2000/svg" width="100" height="100" viewBox="0 0 100 100">
  <g id="Group_772" data-name="Group 772" transform="translate(-371.301 -16)">
    <g id="Group_650" data-name="Group 650" transform="translate(371.301 16)">
      <rect id="Rectangle_7" data-name="Rectangle 7" width="100" height="100" transform="translate(0)" fill="#fff"/>
      <g id="CarmichaelKingham_co_Image" data-name="CarmichaelKingham&amp;co_Image" transform="translate(0)">
        <path id="Path_1" data-name="Path 1" d="M28.3,28.4v100h100V28.4Zm36.213,80.946a24.616,24.616,0,0,1-7.574,1.183c-6.035,0-10.888-1.775-14.438-5.325-3.669-3.55-5.444-8.284-5.444-14.083,0-6.391,2.012-11.6,6.154-15.621s9.349-5.917,15.621-5.917a30.056,30.056,0,0,1,11.953,2.485c-.947,3.787-1.775,7.574-2.485,11.479l-1.657.237L63.211,73.725a12.587,12.587,0,0,0-4.379-.71c-4.142,0-7.456,1.42-9.7,4.379-2.367,2.959-3.55,6.746-3.55,11.479,0,5.562,1.3,9.7,4.024,12.426,2.6,2.722,6.864,4.024,12.663,4.024a44.985,44.985,0,0,0,8.521-.828l.237,1.775A19.551,19.551,0,0,1,64.513,109.346Zm21.065.118c-2.722,0-6.035,0-9.7.118l-.118-1.775,4.97-1.42a1.428,1.428,0,0,0,.947-1.3c0-3.2.118-6.627.118-10.532V77.276c0-14.438,0-22.84-.118-24.97l-5.68-1.657-.473-1.42c4.97-.947,9.467-1.893,13.728-2.959l.355.355c-.118,4.024-.237,10.414-.237,18.935V93.015c0,4.142,0,8.166.118,12.189a1.329,1.329,0,0,0,1.065,1.42l4.024,1.183.118,1.775C91.377,109.465,88.3,109.465,85.578,109.465Zm25.8,0c-1.183,0-2.84,0-4.734.118-1.065-1.657-2.249-3.55-3.669-5.444C99.069,98.7,94.927,93.489,90.548,88.4L105.7,73.725l-4.615-1.3-.355-1.893c3.55.118,6.272.118,7.929.118,1.538,0,4.5,0,8.757-.118l.118,1.775a47.537,47.537,0,0,0-6.035,1.893,16.32,16.32,0,0,0-4.26,3.077L98.241,85.56l13.491,16.923a29.717,29.717,0,0,0,3.55,3.787,12.634,12.634,0,0,0,4.26,1.657l.118,1.775C115.992,109.465,113.152,109.465,111.377,109.465Z" transform="translate(-28.3 -28.4)" fill="#002169"/>
      </g>
    </g>
  </g>
</svg>
