<svg xmlns="http://www.w3.org/2000/svg" width="200" height="51.206" viewBox="0 0 200 51.206">
  <g id="CarmichaelKingham_co_Logo" data-name="CarmichaelKingham&amp;co_Logo" transform="translate(-28.3 -28.4)">
    <g id="Image" transform="translate(28.3 28.4)">
      <rect id="Rectangle_2" data-name="Rectangle 2" width="45.787" height="45.787" fill="#002169"/>
      <path id="Path_2" data-name="Path 2" d="M51.089,70.268l.108.813a12.218,12.218,0,0,1-2.926,1.355,11.271,11.271,0,0,1-3.468.542,8.961,8.961,0,0,1-6.611-2.438A8.572,8.572,0,0,1,35.7,64.091a9.51,9.51,0,0,1,2.818-7.153,9.81,9.81,0,0,1,7.153-2.709,13.762,13.762,0,0,1,5.473,1.138c-.433,1.734-.813,3.468-1.138,5.256l-.759.108-1.571-4.606a5.763,5.763,0,0,0-2-.325,5.27,5.27,0,0,0-4.443,2A8.121,8.121,0,0,0,39.6,63.061c0,2.547.6,4.443,1.842,5.69,1.192,1.246,3.143,1.842,5.8,1.842A24.573,24.573,0,0,0,51.089,70.268Zm9.1.867a.6.6,0,0,1-.488-.65c0-1.842-.054-3.685-.054-5.581V52.332c0-3.9.054-6.827.108-8.67L59.6,43.5c-1.9.488-4.01.921-6.286,1.355l.108.65,2.6.759c.054.975.054,4.823.054,11.433v7.857c0,1.788,0,3.414-.054,4.823a.634.634,0,0,1-.433.6l-2.276.65.054.813c1.734-.054,3.2-.054,4.443-.054s2.655,0,4.172.054l-.054-.813Zm13.33.542a5.784,5.784,0,0,1-1.951-.759,10.606,10.606,0,0,1-1.626-1.734l-6.231-7.64,4.118-3.793a7.094,7.094,0,0,1,1.951-1.409,15.394,15.394,0,0,1,2.763-.867l-.054-.813c-1.951.054-3.305.054-4.01.054-.759,0-2,0-3.63-.054l.054.759,2.113.6-6.882,6.665a87.238,87.238,0,0,1,5.69,7.207c.65.921,1.192,1.734,1.68,2.493.921,0,1.626-.054,2.167-.054.813,0,2.113,0,3.793.054Z" transform="translate(-31.69 -35.318)" fill="#fff"/>
    </g>
    <g id="Text" transform="translate(81.077 28.563)">
      <g id="Group_2" data-name="Group 2">
        <g id="Group_1" data-name="Group 1">
          <path id="Path_3" data-name="Path 3" d="M142.051,36.31l-.6.108-1.03-3.793a14.944,14.944,0,0,0-3.251-.433,6.815,6.815,0,0,0-5.527,2.438,9.713,9.713,0,0,0-2,6.394,9.613,9.613,0,0,0,2.276,6.719,8.21,8.21,0,0,0,6.394,2.493,14.426,14.426,0,0,0,4.823-.867l.163.65A11,11,0,0,1,136.9,51.97a10.306,10.306,0,0,1-7.532-2.818,10.129,10.129,0,0,1-2.872-7.478,9.934,9.934,0,0,1,3.143-7.8A11.817,11.817,0,0,1,137.879,31a22.761,22.761,0,0,1,4.985.6l.108.108Z" transform="translate(-126.067 -29.754)" fill="#002169"/>
          <path id="Path_4" data-name="Path 4" d="M161.792,44.646a12.9,12.9,0,0,1,4.985-1.246,4.954,4.954,0,0,1,3.468,1.138,4,4,0,0,1,1.246,3.305l-.054,5.96A7.645,7.645,0,0,0,171.491,55a1.377,1.377,0,0,0,.271.7,1.061,1.061,0,0,0,.65.325,5.75,5.75,0,0,0,1.138.108l.054.542c-.433.163-.921.325-1.517.488a6.291,6.291,0,0,1-1.192.271,2,2,0,0,1-1.951-1.463,6.722,6.722,0,0,1-3.847,1.463,5.054,5.054,0,0,1-3.251-.975A3.355,3.355,0,0,1,160.6,53.7a3.425,3.425,0,0,1,2-3.251c1.3-.7,3.414-1.03,6.231-1.03V48.277a3.094,3.094,0,0,0-.813-2.384,3.5,3.5,0,0,0-2.547-.759,14.7,14.7,0,0,0-3.305.488Zm6.936,5.96a9.884,9.884,0,0,0-4.118.6,2.2,2.2,0,0,0-1.084,2.113,2.338,2.338,0,0,0,.759,1.951,3.151,3.151,0,0,0,2,.542,5.844,5.844,0,0,0,2.493-.488Z" transform="translate(-141.689 -35.435)" fill="#002169"/>
          <path id="Path_5" data-name="Path 5" d="M186.854,44.43c1.626-.325,3.143-.65,4.552-1.03l.163.108v1.68a9.4,9.4,0,0,1,5.2-1.788l.054.108c-.271,1.409-.542,2.926-.813,4.443l-.6.108c-.271-.813-.542-1.463-.759-1.951a1.3,1.3,0,0,0-1.192-.759,3.732,3.732,0,0,0-1.951.7v6.231c0,1.517,0,2.547.054,3.2a.432.432,0,0,0,.379.488l1.9.542.054.6c-1.517-.054-2.709-.054-3.685-.054s-2.059,0-3.359.054l-.054-.6,1.68-.488a.525.525,0,0,0,.379-.433V48.873c0-1.571,0-2.709-.054-3.522l-1.9-.542Z" transform="translate(-153.693 -35.435)" fill="#002169"/>
          <path id="Path_6" data-name="Path 6" d="M221.113,46.226a6.467,6.467,0,0,1,.217,1.571v5.093c0,1.138,0,2,.054,2.709a.475.475,0,0,0,.379.488l1.463.433.054.6c-1.192-.054-2.222-.054-3.2-.054s-2,0-3.143.054l-.054-.6,1.355-.379c.271-.108.433-.271.433-.433V48.5a3.421,3.421,0,0,0-.813-2.547,3.243,3.243,0,0,0-2.384-.759,5.6,5.6,0,0,0-2.818.813v6.286c0,1.192,0,2.276.054,3.305a.436.436,0,0,0,.325.488l1.517.433.054.6c-1.192-.054-2.276-.054-3.2-.054s-2.059,0-3.36.054l-.054-.6,1.68-.488a.46.46,0,0,0,.379-.433V48.881c0-1.246,0-2.438-.054-3.522l-1.9-.542-.054-.488c1.571-.325,3.089-.65,4.552-1.03l.163.108v1.68a7.589,7.589,0,0,1,4.5-1.788,3.931,3.931,0,0,1,3.739,2,7.206,7.206,0,0,1,4.931-2,4.219,4.219,0,0,1,3.143,1.138,4.4,4.4,0,0,1,1.138,3.251v5.093c0,1.192,0,2.113.054,2.655a.475.475,0,0,0,.379.488l1.571.488.054.6c-1.246-.054-2.384-.054-3.305-.054-.975,0-2,0-3.143.054l-.054-.6,1.409-.434a.525.525,0,0,0,.379-.433V48.5a3.421,3.421,0,0,0-.813-2.547,3.3,3.3,0,0,0-2.438-.759A4.922,4.922,0,0,0,221.113,46.226Z" transform="translate(-163.405 -35.389)" fill="#002169"/>
          <path id="Path_7" data-name="Path 7" d="M254.9,38.84c1.68-.325,3.251-.65,4.66-1.03l.108.108c-.054,1.246-.108,2.6-.108,4.118v5.527c0,1.138,0,1.951.054,2.384a.475.475,0,0,0,.379.488l1.68.488.054.6c-1.3-.054-2.438-.054-3.414-.054s-2.059,0-3.359.054l-.054-.6,1.68-.488a.525.525,0,0,0,.379-.433c0-.379.054-1.03.054-1.9V43.284c0-1.246,0-2.438-.054-3.468l-1.9-.542Zm4.823-6.069a1.716,1.716,0,0,1-.488,1.246,1.632,1.632,0,0,1-1.246.488,1.785,1.785,0,0,1-1.192-.433,1.48,1.48,0,0,1-.433-1.192,1.632,1.632,0,0,1,.488-1.246A1.677,1.677,0,0,1,258.1,31.2a1.552,1.552,0,0,1,1.138.433C259.614,31.85,259.723,32.23,259.723,32.771Z" transform="translate(-184.892 -29.845)" fill="#002169"/>
          <path id="Path_8" data-name="Path 8" d="M282.45,56.08a9.421,9.421,0,0,1-2.222,1.03,8.721,8.721,0,0,1-2.6.433,6.749,6.749,0,0,1-4.985-1.842,6.413,6.413,0,0,1-1.842-4.877,7.146,7.146,0,0,1,7.478-7.423,10.042,10.042,0,0,1,4.118.867c-.325,1.3-.6,2.6-.867,3.956l-.542.108-1.192-3.468a4.273,4.273,0,0,0-1.517-.217,4.047,4.047,0,0,0-3.36,1.517,6.044,6.044,0,0,0-1.192,3.956,5.8,5.8,0,0,0,1.355,4.281c.921.921,2.33,1.355,4.335,1.355a18.96,18.96,0,0,0,2.926-.271Z" transform="translate(-192.176 -35.435)" fill="#002169"/>
          <path id="Path_9" data-name="Path 9" d="M295.2,29.73c1.571-.325,3.143-.65,4.714-1.03l.108.108c-.054.921-.054,2.167-.054,3.847v5.635a8.649,8.649,0,0,1,4.66-1.626,4.438,4.438,0,0,1,3.2,1.138,4.216,4.216,0,0,1,1.192,3.251V46.2c0,1.084,0,2,.054,2.655a.432.432,0,0,0,.379.488l1.626.488.054.6c-1.246-.054-2.384-.054-3.305-.054s-2,0-3.143.054l-.054-.6,1.409-.433a.46.46,0,0,0,.379-.433V41.813a3.223,3.223,0,0,0-.867-2.547,3.7,3.7,0,0,0-2.493-.759,7.017,7.017,0,0,0-2.98.7V45.66c0,1.192,0,2.276.054,3.251a.432.432,0,0,0,.379.488l1.517.433.054.6c-1.192-.054-2.276-.054-3.251-.054-.921,0-2.059,0-3.36.054l-.054-.6,1.626-.488a.413.413,0,0,0,.379-.433c0-.921.054-2.113.054-3.522V34.173c0-1.517,0-2.655-.054-3.414l-1.951-.6Z" transform="translate(-203.355 -28.7)" fill="#002169"/>
          <path id="Path_10" data-name="Path 10" d="M327.892,44.646a12.905,12.905,0,0,1,4.985-1.246,4.954,4.954,0,0,1,3.468,1.138,4.177,4.177,0,0,1,1.246,3.305l-.054,5.96A7.649,7.649,0,0,0,337.591,55a1.377,1.377,0,0,0,.271.7,1.061,1.061,0,0,0,.65.325,5.748,5.748,0,0,0,1.138.108l.054.542c-.434.163-.921.325-1.517.488a6.293,6.293,0,0,1-1.192.271,2,2,0,0,1-1.951-1.463,6.722,6.722,0,0,1-3.847,1.463,5.054,5.054,0,0,1-3.251-.975A3.355,3.355,0,0,1,326.7,53.7a3.425,3.425,0,0,1,2-3.251c1.3-.7,3.414-1.03,6.231-1.03V48.277a3.094,3.094,0,0,0-.813-2.384,3.5,3.5,0,0,0-2.547-.759,14.7,14.7,0,0,0-3.305.488Zm6.936,5.96a9.884,9.884,0,0,0-4.118.6,2.2,2.2,0,0,0-1.084,2.113,2.338,2.338,0,0,0,.759,1.951,3.151,3.151,0,0,0,2,.542,5.844,5.844,0,0,0,2.493-.488Z" transform="translate(-217.787 -35.435)" fill="#002169"/>
          <path id="Path_11" data-name="Path 11" d="M365.621,56.125a9.95,9.95,0,0,1-2.492,1.084,9.666,9.666,0,0,1-2.384.325,7.212,7.212,0,0,1-5.094-1.788,6.492,6.492,0,0,1-1.951-5.039,7.365,7.365,0,0,1,1.842-5.2,6.144,6.144,0,0,1,4.877-2,5.068,5.068,0,0,1,3.956,1.517,5.977,5.977,0,0,1,1.409,4.172,4.109,4.109,0,0,1-.054.813h-9.158c0,2.059.488,3.522,1.463,4.443a6.711,6.711,0,0,0,4.552,1.355,18.962,18.962,0,0,0,2.926-.271Zm-2.872-7.315v-.433a5.078,5.078,0,0,0-.65-2.926,2.2,2.2,0,0,0-1.9-.867,2.946,2.946,0,0,0-2.547,1.246,5.428,5.428,0,0,0-.975,2.98Z" transform="translate(-230.156 -35.48)" fill="#002169"/>
          <path id="Path_12" data-name="Path 12" d="M378.954,30.217l-.054-.488c1.68-.325,3.251-.65,4.714-1.03l.108.108c-.054,1.571-.108,3.739-.108,6.5v9.374c0,1.734,0,3.089.054,4.118a.685.685,0,0,0,.379.542l1.571.488.054.6c-1.3-.054-2.438-.054-3.36-.054s-2.059,0-3.359.054l-.054-.6,1.625-.488a.46.46,0,0,0,.379-.433c0-1.084.054-2.276.054-3.63V39.375c0-3.576,0-6.448-.054-8.616Z" transform="translate(-241.702 -28.7)" fill="#002169"/>
          <path id="Path_13" data-name="Path 13" d="M129.547,87.689V98.743a.408.408,0,0,0,.271.379l1.192.379.054.488c-.867,0-1.734-.054-2.6-.054s-1.788,0-2.709.054L125.7,99.5l1.355-.379a.343.343,0,0,0,.271-.325V85.9a.407.407,0,0,0-.271-.379l-1.355-.433V84.6c.921.054,1.842.054,2.709.054s1.734,0,2.6-.054l.054.488-1.246.379a.343.343,0,0,0-.271.325v1.9Zm.271,4.5,4.389-4.877q.488-.569.813-.975a1.193,1.193,0,0,0,.325-.65c0-.163-.108-.217-.271-.271l-.867-.217v-.488c.7.054,1.517.054,2.384.054s1.626,0,2.384-.054l.054.488-1.084.325a2.748,2.748,0,0,0-.867.488c-.217.217-.488.488-.759.813l-4.335,4.768,4.931,6.557a7.726,7.726,0,0,0,.6.65,1.885,1.885,0,0,0,.813.379l.975.325v.488c-.6,0-1.409-.054-2.33-.054h-1.517a21.845,21.845,0,0,0-2-2.926Z" transform="translate(-125.7 -54.31)" fill="#002169"/>
          <path id="Path_14" data-name="Path 14" d="M152.008,90.244c1.246-.217,2.438-.488,3.522-.759l.108.054c-.054.921-.054,2-.054,3.089v5.96a.361.361,0,0,0,.271.379l1.246.379v.433c-.975,0-1.842-.054-2.6-.054s-1.571,0-2.547.054l-.054-.433,1.246-.379a.343.343,0,0,0,.271-.325V93.6c0-.975,0-1.842-.054-2.655l-1.463-.379Zm3.685-4.606a1.116,1.116,0,0,1-.379.921,1.307,1.307,0,0,1-.921.379,1.144,1.144,0,0,1-.867-.325,1.231,1.231,0,0,1-.325-.867,1.116,1.116,0,0,1,.379-.921,1.275,1.275,0,0,1,.921-.325,1.144,1.144,0,0,1,.867.325A.951.951,0,0,1,155.693,85.638Z" transform="translate(-137.703 -54.264)" fill="#002169"/>
          <path id="Path_15" data-name="Path 15" d="M163.663,94.413c1.246-.217,2.384-.488,3.468-.759l.108.054v1.246a6.412,6.412,0,0,1,3.522-1.355,3.014,3.014,0,0,1,3.305,3.305v5.852a.361.361,0,0,0,.271.379l1.192.379v.433c-.975,0-1.788-.054-2.493-.054s-1.517,0-2.384.054l-.054-.433,1.084-.325a.343.343,0,0,0,.271-.325V97.393a2.433,2.433,0,0,0-.65-1.9,2.836,2.836,0,0,0-1.9-.6,4.708,4.708,0,0,0-2.276.65v7.261a.361.361,0,0,0,.271.379l1.138.325v.433c-.921,0-1.734-.054-2.438-.054s-1.571,0-2.547.054l-.054-.433,1.3-.379c.163-.054.217-.163.271-.325V97.718c0-.975,0-1.842-.054-2.655l-1.463-.379Z" transform="translate(-143.018 -58.433)" fill="#002169"/>
          <path id="Path_16" data-name="Path 16" d="M195.845,95.155a3.076,3.076,0,0,1,.813,2.167,3.538,3.538,0,0,1-1.246,2.818,4.482,4.482,0,0,1-3.034,1.03,5.36,5.36,0,0,1-1.9-.325,3.426,3.426,0,0,0-.6,1.517.358.358,0,0,0,.325.379,4.382,4.382,0,0,0,1.084.108,13.221,13.221,0,0,0,1.409-.054c.542,0,1.03-.054,1.517-.054a5.773,5.773,0,0,1,2.872.65,2.11,2.11,0,0,1,1.138,1.951,3.457,3.457,0,0,1-1.951,3.089,8.549,8.549,0,0,1-4.389,1.138,6.546,6.546,0,0,1-3.2-.65,1.959,1.959,0,0,1-1.192-1.68,4.205,4.205,0,0,1,1.788-2.818q-1.138-.406-1.138-1.138a5.215,5.215,0,0,1,1.571-2.764,3.279,3.279,0,0,1-1.68-2.98,3.321,3.321,0,0,1,1.246-2.709,4.726,4.726,0,0,1,3.2-1.03c.325,0,.813.054,1.409.108a6.992,6.992,0,0,0,1.3.163c1.138,0,2.167,0,3.089-.054l.054.433Zm-5.852,9.374a3.868,3.868,0,0,0-.759,2.059,1.825,1.825,0,0,0,.759,1.517,3.494,3.494,0,0,0,2.113.542,5.249,5.249,0,0,0,2.763-.7,2.176,2.176,0,0,0,1.192-1.951,1.318,1.318,0,0,0-.6-1.084,4.265,4.265,0,0,0-2.222-.379,10.016,10.016,0,0,0-1.246.054,10.442,10.442,0,0,1-1.3.054C190.48,104.583,190.264,104.583,189.993,104.529Zm.325-7.207a3.565,3.565,0,0,0,.542,2.167,2,2,0,0,0,3.089.054,3.81,3.81,0,0,0,.488-2.113,3.6,3.6,0,0,0-.542-2.113,2,2,0,0,0-3.089-.054A3.734,3.734,0,0,0,190.318,97.322Z" transform="translate(-154.013 -58.525)" fill="#002169"/>
          <path id="Path_17" data-name="Path 17" d="M208.008,83.359c1.192-.217,2.384-.488,3.576-.759l.108.108c-.054.7-.054,1.68-.054,2.926v4.281a6.623,6.623,0,0,1,3.522-1.246,3.152,3.152,0,0,1,2.384.867,3.249,3.249,0,0,1,.867,2.493V97.88a.407.407,0,0,0,.271.379l1.246.379v.434c-.975,0-1.788-.054-2.493-.054s-1.517,0-2.384.054L215,98.639l1.084-.325a.343.343,0,0,0,.271-.325V92.516a2.433,2.433,0,0,0-.65-1.9,2.836,2.836,0,0,0-1.9-.6,5.35,5.35,0,0,0-2.276.542v7.369a.361.361,0,0,0,.271.379l1.138.325v.433c-.921,0-1.734-.054-2.438-.054s-1.571,0-2.547.054l-.054-.433,1.246-.379a.343.343,0,0,0,.271-.325V86.772c0-1.138,0-2-.054-2.547l-1.463-.434Z" transform="translate(-163.359 -53.394)" fill="#002169"/>
          <path id="Path_18" data-name="Path 18" d="M232.867,94.621a9.883,9.883,0,0,1,3.739-.921,3.738,3.738,0,0,1,2.655.867,3.186,3.186,0,0,1,.975,2.493l-.054,4.552v.867a.963.963,0,0,0,.217.542,1.048,1.048,0,0,0,.488.271c.217.054.488.054.867.108l.054.434c-.325.108-.7.271-1.138.379a4.646,4.646,0,0,1-.921.163,1.494,1.494,0,0,1-1.463-1.084,4.908,4.908,0,0,1-2.926,1.084,3.747,3.747,0,0,1-2.438-.759,2.839,2.839,0,0,1,.6-4.606,10.2,10.2,0,0,1,4.714-.813V97.33a2.447,2.447,0,0,0-.6-1.788,2.892,2.892,0,0,0-1.951-.6,9.94,9.94,0,0,0-2.493.379Zm5.256,4.5a7.084,7.084,0,0,0-3.143.488,1.566,1.566,0,0,0-.813,1.571,1.673,1.673,0,0,0,.542,1.463,2.522,2.522,0,0,0,1.517.433,4.239,4.239,0,0,0,1.9-.379Z" transform="translate(-174.4 -58.479)" fill="#002169"/>
          <path id="Path_19" data-name="Path 19" d="M261.641,95.767a3.961,3.961,0,0,1,.163,1.192v5.96a.361.361,0,0,0,.271.379l1.084.325v.434c-.867,0-1.68-.054-2.384-.054s-1.517,0-2.384.054l-.054-.434,1.03-.325q.325-.081.325-.325V97.5a2.646,2.646,0,0,0-.6-1.9,2.537,2.537,0,0,0-1.788-.6,4.332,4.332,0,0,0-2.167.65v7.261a.39.39,0,0,0,.217.379l1.138.325v.433c-.921,0-1.734-.054-2.438-.054s-1.571,0-2.547.054l-.054-.433,1.246-.379a.343.343,0,0,0,.271-.325V97.827c0-.975,0-1.842-.054-2.655l-1.463-.379-.054-.379c1.192-.217,2.33-.488,3.468-.759l.108.054v1.246A5.973,5.973,0,0,1,258.39,93.6a2.93,2.93,0,0,1,2.818,1.517,5.429,5.429,0,0,1,3.739-1.517,3.151,3.151,0,0,1,2.384.867,3.28,3.28,0,0,1,.867,2.438v5.852a.361.361,0,0,0,.271.379l1.192.379v.434c-.975,0-1.788-.054-2.493-.054s-1.517,0-2.384.054l-.054-.434,1.084-.325a.343.343,0,0,0,.271-.325V97.393a2.646,2.646,0,0,0-.6-1.9,2.684,2.684,0,0,0-1.842-.6A5.6,5.6,0,0,0,261.641,95.767Z" transform="translate(-183.288 -58.433)" fill="#002169"/>
          <path id="Path_20" data-name="Path 20" d="M311.112,91.565a9.588,9.588,0,0,1,1.246.054h2.276a4.956,4.956,0,0,0,.921-.054l.054.488-1.355.325c-.163.054-.217.108-.163.271a6.907,6.907,0,0,1,.054,1.03,7.014,7.014,0,0,1-1.084,3.9,9.344,9.344,0,0,0,1.3,1.463,2.081,2.081,0,0,0,1.355.488,2.639,2.639,0,0,0,.65-.054l.108.488a4.379,4.379,0,0,1-2,.488,3.692,3.692,0,0,1-2.926-1.463,7.4,7.4,0,0,1-4.335,1.409,6.529,6.529,0,0,1-3.793-1.084,3.394,3.394,0,0,1-1.517-2.926c0-1.68,1.03-3.089,3.143-4.172a8.44,8.44,0,0,1-1.517-2.222,4.416,4.416,0,0,1-.325-1.68,3.005,3.005,0,0,1,1.192-2.493,4.5,4.5,0,0,1,2.926-.921,4.139,4.139,0,0,1,2.6.813A2.6,2.6,0,0,1,311,87.88c0,1.517-1.138,2.763-3.36,3.793l4.66,5.093a5.644,5.644,0,0,0,.7-2.872,6.247,6.247,0,0,0-.054-1.084.25.25,0,0,0-.163-.271.458.458,0,0,0-.325-.108l-1.355-.271Zm-5.31,1.192a4,4,0,0,0-1.571,3.2,3.269,3.269,0,0,0,.921,2.384,3.462,3.462,0,0,0,2.547.867,4.454,4.454,0,0,0,2.872-1.03Zm1.246-1.68a4.1,4.1,0,0,0,1.517-3.2,2.7,2.7,0,0,0-.433-1.571,1.318,1.318,0,0,0-1.084-.6,1.265,1.265,0,0,0-1.084.542,2.247,2.247,0,0,0-.433,1.355,4.872,4.872,0,0,0,1.084,2.872Z" transform="translate(-206.425 -54.447)" fill="#002169"/>
          <path id="Path_21" data-name="Path 21" d="M356.213,88.264l-.433.054-.813-2.872a10.806,10.806,0,0,0-2.438-.325,4.991,4.991,0,0,0-4.172,1.842,7.343,7.343,0,0,0-1.517,4.823,7.436,7.436,0,0,0,1.734,5.094,6.242,6.242,0,0,0,4.822,1.9,11.186,11.186,0,0,0,3.63-.65l.108.488a8.357,8.357,0,0,1-4.877,1.463,7.679,7.679,0,0,1-5.69-2.167,7.553,7.553,0,0,1-2.167-5.635,7.672,7.672,0,0,1,2.384-5.906,8.823,8.823,0,0,1,6.231-2.167,18.513,18.513,0,0,1,3.793.433l.054.108Z" transform="translate(-225.896 -54.127)" fill="#002169"/>
          <path id="Path_22" data-name="Path 22" d="M380.75,98.748a5.35,5.35,0,0,1-1.517,4.01,5.022,5.022,0,0,1-3.793,1.517,4.736,4.736,0,0,1-3.63-1.463,5.287,5.287,0,0,1-1.409-3.793,5.359,5.359,0,0,1,1.463-3.9A5.062,5.062,0,0,1,375.71,93.6a4.9,4.9,0,0,1,3.63,1.409A5.245,5.245,0,0,1,380.75,98.748Zm-8.128.108a6.628,6.628,0,0,0,.759,3.305,2.433,2.433,0,0,0,2.276,1.3,2.362,2.362,0,0,0,2.113-1.138,6.16,6.16,0,0,0,.759-3.36,6,6,0,0,0-.759-3.251,2.635,2.635,0,0,0-4.335-.108A4.973,4.973,0,0,0,372.622,98.856Z" transform="translate(-237.807 -58.433)" fill="#002169"/>
          <path id="Path_23" data-name="Path 23" d="M393.855,108.6a1.116,1.116,0,0,1,.921.379,1.414,1.414,0,0,1,.379.921,1.116,1.116,0,0,1-.379.921,1.328,1.328,0,0,1-2.276-.921,1.116,1.116,0,0,1,.379-.921A1.306,1.306,0,0,1,393.855,108.6Z" transform="translate(-247.932 -65.305)" fill="#002169"/>
        </g>
      </g>
    </g>
  </g>
</svg>
