<svg id="CarmichaelKingham_co_Logo" data-name="CarmichaelKingham&amp;co_Logo" xmlns="http://www.w3.org/2000/svg" width="136.696" height="34.999" viewBox="0 0 136.696 34.999">
  <g id="Image" transform="translate(0 0)">
    <rect id="Rectangle_2" data-name="Rectangle 2" width="31.295" height="31.295" fill="#fff"/>
    <path id="Path_2" data-name="Path 2" d="M46.218,61.8l.074.556a8.351,8.351,0,0,1-2,.926,7.7,7.7,0,0,1-2.37.37A6.125,6.125,0,0,1,37.4,61.981a5.859,5.859,0,0,1-1.7-4.407,6.5,6.5,0,0,1,1.926-4.889,6.7,6.7,0,0,1,4.889-1.852,9.406,9.406,0,0,1,3.741.778c-.3,1.185-.556,2.37-.778,3.592l-.518.074-1.074-3.148a3.939,3.939,0,0,0-1.37-.222,3.6,3.6,0,0,0-3.037,1.37,5.55,5.55,0,0,0-1.111,3.592,5.286,5.286,0,0,0,1.259,3.889,5.3,5.3,0,0,0,3.963,1.259A16.8,16.8,0,0,0,46.218,61.8Zm6.222.593a.41.41,0,0,1-.333-.444c0-1.259-.037-2.518-.037-3.815V49.537c0-2.667.037-4.666.074-5.926l-.111-.111c-1.3.333-2.741.63-4.3.926l.074.444,1.778.519c.037.667.037,3.3.037,7.814v5.37c0,1.222,0,2.333-.037,3.3a.433.433,0,0,1-.3.407l-1.555.444.037.556c1.185-.037,2.185-.037,3.037-.037s1.815,0,2.852.037l-.037-.556Zm9.111.37a3.954,3.954,0,0,1-1.333-.518,7.249,7.249,0,0,1-1.111-1.185l-4.259-5.222,2.815-2.592A4.848,4.848,0,0,1,59,52.277a10.52,10.52,0,0,1,1.889-.593l-.037-.556c-1.333.037-2.259.037-2.741.037-.518,0-1.37,0-2.481-.037l.037.519,1.444.407L52.4,56.61a59.626,59.626,0,0,1,3.889,4.926c.444.63.815,1.185,1.148,1.7.63,0,1.111-.037,1.481-.037.556,0,1.444,0,2.592.037Z" transform="translate(-32.959 -37.908)" fill="#031d74"/>
  </g>
  <g id="Text" transform="translate(36.072 0.111)">
    <g id="Group_2" data-name="Group 2">
      <g id="Group_1" data-name="Group 1">
        <path id="Path_3" data-name="Path 3" d="M137.129,34.629l-.407.074-.7-2.592a10.213,10.213,0,0,0-2.222-.3,4.658,4.658,0,0,0-3.778,1.667,6.639,6.639,0,0,0-1.37,4.37,6.57,6.57,0,0,0,1.555,4.592,5.611,5.611,0,0,0,4.37,1.7,9.86,9.86,0,0,0,3.3-.593l.111.444a7.522,7.522,0,0,1-4.37,1.333,7.044,7.044,0,0,1-5.148-1.926A6.923,6.923,0,0,1,126.5,38.3a6.789,6.789,0,0,1,2.148-5.333A8.077,8.077,0,0,1,134.277,31a15.557,15.557,0,0,1,3.407.407l.074.074Z" transform="translate(-126.204 -30.148)" fill="#fff"/>
        <path id="Path_4" data-name="Path 4" d="M161.415,44.252a8.82,8.82,0,0,1,3.407-.852,3.386,3.386,0,0,1,2.37.778,2.737,2.737,0,0,1,.852,2.259l-.037,4.074a5.225,5.225,0,0,0,.037.815.941.941,0,0,0,.185.481.725.725,0,0,0,.444.222,3.93,3.93,0,0,0,.778.074l.037.37c-.3.111-.63.222-1.037.333a4.3,4.3,0,0,1-.815.185,1.365,1.365,0,0,1-1.333-1,4.594,4.594,0,0,1-2.63,1,3.454,3.454,0,0,1-2.222-.667,2.293,2.293,0,0,1-.852-1.889,2.341,2.341,0,0,1,1.37-2.222,9.512,9.512,0,0,1,4.259-.7v-.778a2.115,2.115,0,0,0-.556-1.63,2.392,2.392,0,0,0-1.741-.518,10.044,10.044,0,0,0-2.259.333Zm4.74,4.074a6.756,6.756,0,0,0-2.815.407,1.5,1.5,0,0,0-.741,1.444,1.6,1.6,0,0,0,.518,1.333,2.154,2.154,0,0,0,1.37.37,3.994,3.994,0,0,0,1.7-.333Z" transform="translate(-147.675 -37.956)" fill="#fff"/>
        <path id="Path_5" data-name="Path 5" d="M186.837,44.1c1.111-.222,2.148-.444,3.111-.7l.111.074v1.148a6.425,6.425,0,0,1,3.555-1.222l.037.074c-.185.963-.37,2-.555,3.037l-.407.074c-.185-.556-.37-1-.518-1.333a.888.888,0,0,0-.815-.518,2.551,2.551,0,0,0-1.333.481v4.259c0,1.037,0,1.741.037,2.185a.3.3,0,0,0,.259.333l1.3.37.037.407c-1.037-.037-1.852-.037-2.518-.037s-1.407,0-2.3.037l-.037-.407,1.148-.333a.359.359,0,0,0,.259-.3V47.141c0-1.074,0-1.852-.037-2.407l-1.3-.37Z" transform="translate(-164.172 -37.956)" fill="#fff"/>
        <path id="Path_6" data-name="Path 6" d="M216.962,45.3a4.42,4.42,0,0,1,.148,1.074v3.481c0,.778,0,1.37.037,1.852a.324.324,0,0,0,.259.333l1,.3.037.407c-.815-.037-1.518-.037-2.185-.037s-1.37,0-2.148.037l-.037-.407.926-.259c.185-.074.3-.185.3-.3V46.855a2.338,2.338,0,0,0-.556-1.741,2.216,2.216,0,0,0-1.63-.518,3.825,3.825,0,0,0-1.926.556v4.3c0,.815,0,1.555.037,2.259a.3.3,0,0,0,.222.333l1.037.3.037.407c-.815-.037-1.555-.037-2.185-.037s-1.407,0-2.3.037L208,52.337,209.148,52a.314.314,0,0,0,.259-.3V47.115c0-.852,0-1.667-.037-2.407l-1.3-.37L208.037,44c1.074-.222,2.111-.444,3.111-.7l.111.074v1.148a5.187,5.187,0,0,1,3.074-1.222,2.687,2.687,0,0,1,2.555,1.37,4.925,4.925,0,0,1,3.37-1.37,2.884,2.884,0,0,1,2.148.778,3.007,3.007,0,0,1,.778,2.222v3.481c0,.815,0,1.444.037,1.815a.324.324,0,0,0,.259.333l1.074.333.037.407c-.852-.037-1.63-.037-2.259-.037-.667,0-1.37,0-2.148.037l-.037-.407.963-.3a.359.359,0,0,0,.259-.3V46.855a2.338,2.338,0,0,0-.556-1.741,2.255,2.255,0,0,0-1.667-.518A3.364,3.364,0,0,0,216.962,45.3Z" transform="translate(-177.52 -37.893)" fill="#fff"/>
        <path id="Path_7" data-name="Path 7" d="M254.9,36.422c1.148-.222,2.222-.444,3.185-.7l.074.074c-.037.852-.074,1.778-.074,2.815v3.778c0,.778,0,1.333.037,1.63a.324.324,0,0,0,.259.333l1.148.333.037.407c-.889-.037-1.667-.037-2.333-.037s-1.407,0-2.3.037l-.037-.407,1.148-.333a.359.359,0,0,0,.259-.3c0-.259.037-.7.037-1.3v-3.3c0-.852,0-1.667-.037-2.37l-1.3-.37Zm3.3-4.148a1.173,1.173,0,0,1-.333.852,1.116,1.116,0,0,1-.852.333,1.22,1.22,0,0,1-.815-.3,1.012,1.012,0,0,1-.3-.815,1.116,1.116,0,0,1,.333-.852,1.146,1.146,0,0,1,.852-.3,1.061,1.061,0,0,1,.778.3C258.122,31.644,258.2,31.9,258.2,32.274Z" transform="translate(-207.051 -30.274)" fill="#fff"/>
        <path id="Path_8" data-name="Path 8" d="M278.763,52.066a6.44,6.44,0,0,1-1.518.7,5.961,5.961,0,0,1-1.778.3,4.613,4.613,0,0,1-3.407-1.259,4.383,4.383,0,0,1-1.259-3.333,4.884,4.884,0,0,1,5.111-5.074,6.863,6.863,0,0,1,2.815.593c-.222.889-.407,1.778-.593,2.7l-.37.074-.815-2.37a2.921,2.921,0,0,0-1.037-.148,2.766,2.766,0,0,0-2.3,1.037,4.131,4.131,0,0,0-.815,2.7,3.966,3.966,0,0,0,.926,2.926,4.005,4.005,0,0,0,2.963.926,12.959,12.959,0,0,0,2-.185Z" transform="translate(-217.062 -37.956)" fill="#fff"/>
        <path id="Path_9" data-name="Path 9" d="M295.2,29.4c1.074-.222,2.148-.444,3.222-.7l.074.074c-.037.63-.037,1.481-.037,2.629v3.852a5.911,5.911,0,0,1,3.185-1.111,3.033,3.033,0,0,1,2.185.778,2.882,2.882,0,0,1,.815,2.222v3.518c0,.741,0,1.37.037,1.815a.3.3,0,0,0,.259.333l1.111.333.037.407c-.852-.037-1.63-.037-2.259-.037s-1.37,0-2.148.037l-.037-.407.963-.3a.314.314,0,0,0,.259-.3V37.663a2.2,2.2,0,0,0-.593-1.741,2.53,2.53,0,0,0-1.7-.518,4.8,4.8,0,0,0-2.037.481v4.407c0,.815,0,1.555.037,2.222a.3.3,0,0,0,.259.333l1.037.3.037.407c-.815-.037-1.555-.037-2.222-.037-.63,0-1.407,0-2.3.037l-.037-.407,1.111-.333a.282.282,0,0,0,.259-.3c0-.63.037-1.444.037-2.407V32.441c0-1.037,0-1.815-.037-2.333l-1.333-.407Z" transform="translate(-232.426 -28.7)" fill="#fff"/>
        <path id="Path_10" data-name="Path 10" d="M327.515,44.252a8.82,8.82,0,0,1,3.407-.852,3.386,3.386,0,0,1,2.37.778,2.855,2.855,0,0,1,.852,2.259l-.037,4.074a5.236,5.236,0,0,0,.037.815.942.942,0,0,0,.185.481.725.725,0,0,0,.444.222,3.93,3.93,0,0,0,.778.074l.037.37c-.3.111-.63.222-1.037.333a4.3,4.3,0,0,1-.815.185,1.365,1.365,0,0,1-1.333-1,4.594,4.594,0,0,1-2.629,1,3.454,3.454,0,0,1-2.222-.667,2.293,2.293,0,0,1-.852-1.889,2.341,2.341,0,0,1,1.37-2.222,9.512,9.512,0,0,1,4.259-.7v-.778a2.115,2.115,0,0,0-.556-1.63,2.392,2.392,0,0,0-1.741-.518,10.045,10.045,0,0,0-2.259.333Zm4.741,4.074a6.756,6.756,0,0,0-2.815.407,1.5,1.5,0,0,0-.741,1.444,1.6,1.6,0,0,0,.518,1.333,2.154,2.154,0,0,0,1.37.37,3.994,3.994,0,0,0,1.7-.333Z" transform="translate(-252.26 -37.956)" fill="#fff"/>
        <path id="Path_11" data-name="Path 11" d="M361.848,52.129a6.8,6.8,0,0,1-1.7.741,6.606,6.606,0,0,1-1.63.222,4.93,4.93,0,0,1-3.481-1.222,4.437,4.437,0,0,1-1.333-3.444,5.034,5.034,0,0,1,1.259-3.555,4.2,4.2,0,0,1,3.333-1.37,3.464,3.464,0,0,1,2.7,1.037,4.085,4.085,0,0,1,.963,2.852,2.8,2.8,0,0,1-.037.556h-6.259a4,4,0,0,0,1,3.037,4.587,4.587,0,0,0,3.111.926,12.962,12.962,0,0,0,2-.185Zm-1.963-5v-.3a3.471,3.471,0,0,0-.444-2,1.5,1.5,0,0,0-1.3-.593,2.014,2.014,0,0,0-1.741.852,3.711,3.711,0,0,0-.667,2.037Z" transform="translate(-269.26 -38.019)" fill="#fff"/>
        <path id="Path_12" data-name="Path 12" d="M378.937,29.737,378.9,29.4c1.148-.222,2.222-.444,3.222-.7l.074.074c-.037,1.074-.074,2.555-.074,4.444v6.407c0,1.185,0,2.111.037,2.815a.469.469,0,0,0,.259.37l1.074.333.037.407c-.889-.037-1.667-.037-2.3-.037s-1.407,0-2.3.037l-.037-.407,1.111-.333a.314.314,0,0,0,.259-.3c0-.741.037-1.555.037-2.481V36c0-2.444,0-4.407-.037-5.889Z" transform="translate(-285.127 -28.7)" fill="#fff"/>
        <path id="Path_13" data-name="Path 13" d="M128.329,86.711v7.555a.278.278,0,0,0,.185.259l.815.259.037.333c-.593,0-1.185-.037-1.778-.037s-1.222,0-1.852.037l-.037-.333.926-.259a.235.235,0,0,0,.185-.222V85.489a.278.278,0,0,0-.185-.259l-.926-.3V84.6c.63.037,1.259.037,1.852.037s1.185,0,1.778-.037l.037.333-.852.259a.235.235,0,0,0-.185.222v1.3Zm.185,3.074,3-3.333q.333-.389.556-.667a.815.815,0,0,0,.222-.444c0-.111-.074-.148-.185-.185l-.593-.148v-.333c.481.037,1.037.037,1.63.037s1.111,0,1.63-.037l.037.333-.741.222a1.878,1.878,0,0,0-.593.333c-.148.148-.333.333-.518.556L130,89.378l3.37,4.481a5.28,5.28,0,0,0,.407.444,1.288,1.288,0,0,0,.556.259l.667.222v.333c-.407,0-.963-.037-1.592-.037h-1.037a14.928,14.928,0,0,0-1.37-2Z" transform="translate(-125.7 -63.897)" fill="#fff"/>
        <path id="Path_14" data-name="Path 14" d="M151.974,88.426c.852-.148,1.667-.333,2.407-.518l.074.037c-.037.63-.037,1.37-.037,2.111v4.074a.247.247,0,0,0,.185.259l.852.259v.3c-.667,0-1.259-.037-1.778-.037s-1.074,0-1.741.037l-.037-.3.852-.259a.235.235,0,0,0,.185-.222V90.722c0-.667,0-1.259-.037-1.815l-1-.259Zm2.518-3.148a.763.763,0,0,1-.259.63.894.894,0,0,1-.63.259.782.782,0,0,1-.593-.222.841.841,0,0,1-.222-.593.763.763,0,0,1,.259-.63.871.871,0,0,1,.63-.222.782.782,0,0,1,.593.222A.65.65,0,0,1,154.492,85.278Z" transform="translate(-142.197 -63.834)" fill="#fff"/>
        <path id="Path_15" data-name="Path 15" d="M163.611,94.156c.852-.148,1.63-.333,2.37-.518l.074.037v.852a4.382,4.382,0,0,1,2.407-.926,2.06,2.06,0,0,1,2.259,2.259v4a.247.247,0,0,0,.185.259l.815.259v.3c-.667,0-1.222-.037-1.7-.037s-1.037,0-1.63.037l-.037-.3.741-.222a.235.235,0,0,0,.185-.222V96.192a1.663,1.663,0,0,0-.444-1.3,1.939,1.939,0,0,0-1.3-.407,3.218,3.218,0,0,0-1.555.444V99.9a.247.247,0,0,0,.185.259l.778.222v.3c-.63,0-1.185-.037-1.667-.037s-1.074,0-1.741.037l-.037-.3.889-.259c.111-.037.148-.111.185-.222V96.415c0-.667,0-1.259-.037-1.815l-1-.259Z" transform="translate(-149.501 -69.564)" fill="#fff"/>
        <path id="Path_16" data-name="Path 16" d="M193.2,94.726a2.1,2.1,0,0,1,.556,1.481,2.418,2.418,0,0,1-.852,1.926,3.063,3.063,0,0,1-2.074.7,3.664,3.664,0,0,1-1.3-.222,2.341,2.341,0,0,0-.407,1.037.245.245,0,0,0,.222.259,2.994,2.994,0,0,0,.741.074,9.036,9.036,0,0,0,.963-.037c.37,0,.7-.037,1.037-.037a3.946,3.946,0,0,1,1.963.444,1.442,1.442,0,0,1,.778,1.333A2.363,2.363,0,0,1,193.5,103.8a5.843,5.843,0,0,1-3,.778,4.474,4.474,0,0,1-2.185-.444,1.339,1.339,0,0,1-.815-1.148,2.874,2.874,0,0,1,1.222-1.926q-.778-.278-.778-.778a3.564,3.564,0,0,1,1.074-1.889,2.241,2.241,0,0,1-1.148-2.037,2.27,2.27,0,0,1,.852-1.852,3.23,3.23,0,0,1,2.185-.7c.222,0,.556.037.963.074a4.781,4.781,0,0,0,.889.111c.778,0,1.481,0,2.111-.037l.037.3Zm-4,6.407a2.644,2.644,0,0,0-.519,1.407,1.248,1.248,0,0,0,.519,1.037,2.388,2.388,0,0,0,1.444.37,3.587,3.587,0,0,0,1.889-.481,1.487,1.487,0,0,0,.815-1.333.9.9,0,0,0-.407-.741,2.915,2.915,0,0,0-1.518-.259,6.843,6.843,0,0,0-.852.037,7.136,7.136,0,0,1-.889.037C189.537,101.17,189.389,101.17,189.2,101.133Zm.222-4.926a2.436,2.436,0,0,0,.37,1.481,1.365,1.365,0,0,0,2.111.037,2.6,2.6,0,0,0,.333-1.444,2.464,2.464,0,0,0-.37-1.444,1.365,1.365,0,0,0-2.111-.037A2.552,2.552,0,0,0,189.426,96.207Z" transform="translate(-164.612 -69.69)" fill="#fff"/>
        <path id="Path_17" data-name="Path 17" d="M207.974,83.118c.815-.148,1.63-.333,2.444-.519l.074.074c-.037.481-.037,1.148-.037,2V87.6a4.527,4.527,0,0,1,2.407-.852,2.154,2.154,0,0,1,1.63.593,2.221,2.221,0,0,1,.593,1.7v4a.279.279,0,0,0,.185.259l.852.259v.3c-.667,0-1.222-.037-1.7-.037s-1.037,0-1.63.037l-.037-.3.741-.222a.235.235,0,0,0,.185-.222V89.377a1.663,1.663,0,0,0-.444-1.3,1.939,1.939,0,0,0-1.3-.407,3.656,3.656,0,0,0-1.555.37v5.037a.247.247,0,0,0,.185.259l.778.222v.3c-.63,0-1.185-.037-1.667-.037s-1.074,0-1.741.037l-.037-.3.852-.259a.235.235,0,0,0,.185-.222V85.452c0-.778,0-1.37-.037-1.741l-1-.3Z" transform="translate(-177.457 -62.638)" fill="#fff"/>
        <path id="Path_18" data-name="Path 18" d="M232.593,94.33a6.754,6.754,0,0,1,2.555-.63,2.555,2.555,0,0,1,1.815.593,2.177,2.177,0,0,1,.667,1.7l-.037,3.111V99.7a.658.658,0,0,0,.148.37.716.716,0,0,0,.333.185c.148.037.333.037.593.074l.037.3c-.222.074-.482.185-.778.259a3.176,3.176,0,0,1-.63.111,1.021,1.021,0,0,1-1-.741,3.355,3.355,0,0,1-2,.741,2.561,2.561,0,0,1-1.667-.518,1.94,1.94,0,0,1,.407-3.148,6.974,6.974,0,0,1,3.222-.556v-.593a1.673,1.673,0,0,0-.407-1.222,1.977,1.977,0,0,0-1.333-.407,6.793,6.793,0,0,0-1.7.259Zm3.592,3.074a4.842,4.842,0,0,0-2.148.333,1.07,1.07,0,0,0-.556,1.074,1.143,1.143,0,0,0,.37,1,1.724,1.724,0,0,0,1.037.3,2.9,2.9,0,0,0,1.3-.259Z" transform="translate(-192.632 -69.627)" fill="#fff"/>
        <path id="Path_19" data-name="Path 19" d="M258.4,95.081a2.709,2.709,0,0,1,.111.815V99.97a.247.247,0,0,0,.185.259l.741.222v.3c-.593,0-1.148-.037-1.629-.037s-1.037,0-1.63.037l-.037-.3.7-.222q.222-.056.222-.222V96.267a1.808,1.808,0,0,0-.407-1.3,1.734,1.734,0,0,0-1.222-.407,2.961,2.961,0,0,0-1.481.444V99.97a.267.267,0,0,0,.148.259l.778.222v.3c-.63,0-1.185-.037-1.667-.037s-1.074,0-1.741.037l-.037-.3.852-.259a.235.235,0,0,0,.185-.222V96.489c0-.667,0-1.259-.037-1.815l-1-.259-.037-.259c.815-.148,1.592-.333,2.37-.518l.074.037v.852a4.082,4.082,0,0,1,2.333-.926,2,2,0,0,1,1.926,1.037,3.711,3.711,0,0,1,2.555-1.037,2.154,2.154,0,0,1,1.629.593,2.242,2.242,0,0,1,.593,1.667v4a.247.247,0,0,0,.185.259l.815.259v.3c-.667,0-1.222-.037-1.7-.037s-1.037,0-1.63.037l-.037-.3.741-.222a.235.235,0,0,0,.185-.222V96.192a1.808,1.808,0,0,0-.407-1.3,1.835,1.835,0,0,0-1.259-.407A3.83,3.83,0,0,0,258.4,95.081Z" transform="translate(-204.847 -69.564)" fill="#fff"/>
        <path id="Path_20" data-name="Path 20" d="M308.2,89.455a6.556,6.556,0,0,1,.852.037H310.6a3.389,3.389,0,0,0,.63-.037l.037.333-.926.222c-.111.037-.148.074-.111.185a4.728,4.728,0,0,1,.037.7,4.794,4.794,0,0,1-.741,2.667,6.388,6.388,0,0,0,.889,1,1.422,1.422,0,0,0,.926.333,1.8,1.8,0,0,0,.444-.037l.074.333a2.993,2.993,0,0,1-1.37.333,2.524,2.524,0,0,1-2-1,5.055,5.055,0,0,1-2.963.963,4.463,4.463,0,0,1-2.592-.741,2.32,2.32,0,0,1-1.037-2c0-1.148.7-2.111,2.148-2.852a5.769,5.769,0,0,1-1.037-1.518,3.018,3.018,0,0,1-.222-1.148,2.054,2.054,0,0,1,.815-1.7,3.076,3.076,0,0,1,2-.63,2.829,2.829,0,0,1,1.778.556,1.776,1.776,0,0,1,.741,1.481c0,1.037-.778,1.889-2.3,2.592l3.185,3.481a3.858,3.858,0,0,0,.481-1.963,4.271,4.271,0,0,0-.037-.741.171.171,0,0,0-.111-.185.313.313,0,0,0-.222-.074l-.926-.185Zm-3.629.815a2.735,2.735,0,0,0-1.074,2.185,2.234,2.234,0,0,0,.63,1.63,2.366,2.366,0,0,0,1.741.593,3.044,3.044,0,0,0,1.963-.7Zm.852-1.148a2.8,2.8,0,0,0,1.037-2.185,1.847,1.847,0,0,0-.3-1.074.9.9,0,0,0-.741-.407.864.864,0,0,0-.741.37,1.536,1.536,0,0,0-.3.926,3.33,3.33,0,0,0,.741,1.963Z" transform="translate(-236.644 -64.086)" fill="#fff"/>
        <path id="Path_21" data-name="Path 21" d="M352.474,86.978l-.3.037-.556-1.963a7.387,7.387,0,0,0-1.667-.222,3.411,3.411,0,0,0-2.852,1.259,5.019,5.019,0,0,0-1.037,3.3,5.082,5.082,0,0,0,1.185,3.481,4.266,4.266,0,0,0,3.3,1.3,7.646,7.646,0,0,0,2.481-.444l.074.333a5.712,5.712,0,0,1-3.333,1,5.249,5.249,0,0,1-3.889-1.481,5.163,5.163,0,0,1-1.481-3.852,5.244,5.244,0,0,1,1.63-4.037,6.03,6.03,0,0,1,4.259-1.481,12.656,12.656,0,0,1,2.593.3l.037.074Z" transform="translate(-263.404 -63.646)" fill="#fff"/>
        <path id="Path_22" data-name="Path 22" d="M377.474,97.118a3.657,3.657,0,0,1-1.037,2.741,3.433,3.433,0,0,1-2.592,1.037,3.237,3.237,0,0,1-2.481-1A3.613,3.613,0,0,1,370.4,97.3a3.663,3.663,0,0,1,1-2.667,3.46,3.46,0,0,1,2.63-1.037,3.348,3.348,0,0,1,2.481.963A3.585,3.585,0,0,1,377.474,97.118Zm-5.555.074a4.53,4.53,0,0,0,.518,2.259,1.663,1.663,0,0,0,1.555.889,1.614,1.614,0,0,0,1.444-.778,4.21,4.21,0,0,0,.518-2.3,4.1,4.1,0,0,0-.518-2.222,1.8,1.8,0,0,0-2.963-.074A3.4,3.4,0,0,0,371.918,97.192Z" transform="translate(-279.775 -69.564)" fill="#fff"/>
        <path id="Path_23" data-name="Path 23" d="M393.426,108.6a.763.763,0,0,1,.63.259.966.966,0,0,1,.259.63.763.763,0,0,1-.259.63.907.907,0,0,1-1.555-.63.763.763,0,0,1,.259-.63A.892.892,0,0,1,393.426,108.6Z" transform="translate(-293.691 -79.009)" fill="#fff"/>
      </g>
    </g>
  </g>
</svg>
