<svg xmlns="http://www.w3.org/2000/svg" width="72.432" height="100" viewBox="0 0 72.432 100">
  <g id="Group_774" data-name="Group 774" transform="translate(4150 4869)">
    <g id="maps-and-flags" transform="translate(-4150 -4869)">
      <g id="Group_773" data-name="Group 773" transform="translate(0)">
        <path id="Path_685" data-name="Path 685" d="M106.789,0A36.257,36.257,0,0,0,70.573,36.216c0,24.783,32.41,61.165,33.79,62.7a3.262,3.262,0,0,0,4.853,0c1.38-1.537,33.79-37.919,33.79-62.7A36.258,36.258,0,0,0,106.789,0Z" transform="translate(-70.573)" fill="#041b69"/>
      </g>
    </g>
    <path id="Path_684" data-name="Path 684" d="M51.22,70.5l.109.82a12.323,12.323,0,0,1-2.951,1.366,11.367,11.367,0,0,1-3.5.546,9.037,9.037,0,0,1-6.667-2.459,8.645,8.645,0,0,1-2.514-6.5,9.591,9.591,0,0,1,2.842-7.213,9.893,9.893,0,0,1,7.213-2.732,13.879,13.879,0,0,1,5.519,1.148c-.437,1.749-.82,3.5-1.148,5.3l-.765.109-1.585-4.645a5.812,5.812,0,0,0-2.022-.328,5.315,5.315,0,0,0-4.481,2.022,8.19,8.19,0,0,0-1.639,5.3c0,2.568.6,4.481,1.858,5.738,1.2,1.257,3.169,1.858,5.847,1.858A24.781,24.781,0,0,0,51.22,70.5Zm9.181.874a.605.605,0,0,1-.492-.656c0-1.858-.055-3.716-.055-5.629V52.407c0-3.935.055-6.885.109-8.743L59.8,43.5c-1.913.492-4.044.929-6.339,1.366l.109.656,2.623.765c.055.984.055,4.864.055,11.53v7.924c0,1.8,0,3.443-.055,4.864a.639.639,0,0,1-.437.6l-2.3.656.055.82c1.749-.055,3.224-.055,4.481-.055s2.678,0,4.208.055l-.055-.82Zm13.443.546a5.834,5.834,0,0,1-1.967-.765A10.7,10.7,0,0,1,70.236,69.4L63.952,61.7l4.153-3.825a7.153,7.153,0,0,1,1.967-1.421,15.523,15.523,0,0,1,2.787-.874l-.055-.82c-1.967.055-3.333.055-4.044.055-.765,0-2.022,0-3.661-.055l.055.765,2.131.6-6.94,6.722a87.98,87.98,0,0,1,5.738,7.268c.656.929,1.2,1.749,1.694,2.514.929,0,1.639-.055,2.186-.055.82,0,2.131,0,3.825.055Z" transform="translate(-4168.513 -4896.72)" fill="#fff"/>
  </g>
</svg>
