<svg xmlns="http://www.w3.org/2000/svg" width="888.08" height="534.97" viewBox="0 0 888.08 534.97">
  <g id="undraw_online_payments_luau" transform="translate(0 0)">
    <path id="Path_1282" data-name="Path 1282" d="M214.195,574.215l-5.333-21.034a273.107,273.107,0,0,0-28.978-10.4l-.673,9.776-2.73-10.77c-12.212-3.487-20.52-5.023-20.52-5.023s11.222,42.674,34.759,75.3l27.426,4.818-21.307,3.072a110.511,110.511,0,0,0,9.531,10.1c34.24,31.782,72.377,46.364,85.181,32.569s-4.573-50.742-38.813-82.524c-10.615-9.853-23.949-17.76-37.3-23.982Z" transform="translate(-155.96 -182.515)" fill="#e6e6e6"/>
    <path id="Path_1283" data-name="Path 1283" d="M264.915,551.373l6.307-20.763a273.129,273.129,0,0,0-19.432-23.878l-5.629,8.02,3.229-10.631c-8.652-9.3-14.969-14.907-14.969-14.907s-12.452,42.331-9.166,82.426l20.988,18.3-19.827-8.384a110.509,110.509,0,0,0,2.938,13.573c12.883,44.906,37.992,77.1,56.084,71.911s22.314-45.8,9.431-90.706c-3.994-13.921-11.322-27.582-19.531-39.809Z" transform="translate(-155.96 -182.515)" fill="#e6e6e6"/>
    <rect id="Rectangle_941" data-name="Rectangle 941" width="888" height="2.241" transform="translate(0.08 487.65)" fill="#3f3d56"/>
    <path id="Path_1284" data-name="Path 1284" d="M296.338,438.128s-6.915,83.148-8.4,100.966a126.71,126.71,0,0,1-7.424,32.665s-2.97,5.939-2.97,11.878V659.36s-5.939,0-4.454,5.939,2.97,16.332,2.97,16.332h22.272s-1.485-4.454,2.97-5.939,0-13.363,0-13.363l23.756-89.086L360.692,499s20.787,66.815,25.241,74.238c0,0,16.332,83.147,19.3,90.571s4.454,7.424,2.97,10.393-1.485,5.939,0,7.424,29.7,0,29.7,0l-7.424-105.419L417.113,450.008l-68.3-20.787Z" transform="translate(-155.96 -182.515)" fill="#2f2e41"/>
    <path id="Path_1285" data-name="Path 1285" d="M292.392,669.753s-7.424-26.726-19.3-5.939-11.878,28.211-11.878,28.211-19.3,28.211,7.424,25.241,20.787-16.332,20.787-16.332,10.393-5.939,10.393-10.393S292.392,669.753,292.392,669.753Z" transform="translate(-155.96 -182.515)" fill="#2f2e41"/>
    <path id="Path_1286" data-name="Path 1286" d="M412.659,666.784s7.424-26.726,19.3-5.939,11.878,28.211,11.878,28.211,19.3,28.211-7.424,25.241-20.787-16.332-20.787-16.332-10.393-5.939-10.393-10.393S412.659,666.784,412.659,666.784Z" transform="translate(-155.96 -182.515)" fill="#2f2e41"/>
    <path id="Path_1287" data-name="Path 1287" d="M342.874,237.686s2.97,19.3-5.939,23.756,19.3,20.787,26.726,20.787,20.787-14.848,20.787-14.848-7.424-22.272-5.939-26.726Z" transform="translate(-155.96 -182.515)" fill="#a0616a"/>
    <circle id="Ellipse_185" data-name="Ellipse 185" cx="31.18" cy="31.18" r="31.18" transform="translate(172.067 7.658)" fill="#a0616a"/>
    <path id="Path_1288" data-name="Path 1288" d="M420.082,285.2,382.964,262.71S361.845,286.683,339,259.957l-39.181,10.393,5.939,100.964s-8.909,40.089-5.939,47.513-7.424,10.393-4.454,11.878,0,11.878,0,11.878,57.906,29.7,121.751,7.424l-5.939-19.3a15.58,15.58,0,0,0-2.97-14.848s5.939-8.909-1.485-16.332c0,0,2.97-13.363-4.454-19.3l-1.485-20.787,4.454-10.393Z" transform="translate(-155.96 -182.515)" fill="#cfcce0"/>
    <path id="Path_1289" data-name="Path 1289" d="M343.25,206.875s-3.717,8.045,11.152,4.827c0,0,5.576,3.218,5.576-1.609,0,0,7.435,8.045,9.293,3.218s5.576,1.609,5.576,1.609l3.717-8.045,3.717,4.827h13.01s3.717-32.179-40.89-28.961-22.663,54.2-22.663,54.2.359-9.152,4.077-4.325S343.25,206.875,343.25,206.875Z" transform="translate(-155.96 -182.515)" fill="#2f2e41"/>
    <path id="Path_1290" data-name="Path 1290" d="M433.445,344.589l1.485,31.18s5.939,57.906-5.939,83.147v13.363s-2.97,34.15-17.817,32.665,4.454-49,4.454-49l-2.97-65.33-2.97-37.119Z" transform="translate(-155.96 -182.515)" fill="#a0616a"/>
    <path id="Path_1291" data-name="Path 1291" d="M403.75,286.683l14.811-2.406a72.313,72.313,0,0,1,20.823,38.041c4.454,23.756,5.939,28.211,5.939,28.211l-35.634,8.909-19.3-37.119Z" transform="translate(-155.96 -182.515)" fill="#cfcce0"/>
    <rect id="Rectangle_942" data-name="Rectangle 942" width="234.311" height="116.395" transform="translate(184.017 87.223)" fill="#fff"/>
    <path id="Path_1292" data-name="Path 1292" d="M365.562,276.738c-6.02-3.62-13.278-3.344-16.037-3.067,1.051,2.565,4.2,9.109,10.223,12.731s13.283,3.344,16.038,3.07C374.736,286.907,371.583,280.361,365.562,276.738Z" transform="translate(-155.96 -182.515)" fill="#6adbbd"/>
    <path id="Path_1293" data-name="Path 1293" d="M393.849,348.571H356.226a8.465,8.465,0,0,0,0,16.931h37.624a8.465,8.465,0,0,0,0-16.931Z" transform="translate(-155.96 -182.515)" fill="#6adbbd"/>
    <path id="Path_1294" data-name="Path 1294" d="M564.221,259.215H353.278A18.686,18.686,0,0,0,334.592,277.9V380.677a18.686,18.686,0,0,0,18.686,18.686H564.221a18.686,18.686,0,0,0,18.686-18.686V277.9a18.686,18.686,0,0,0-18.686-18.686ZM348.059,271.961c.417-.075,10.294-1.756,18.473,3.165s11.321,14.436,11.451,14.838l.331,1.026-1.061.188a28.178,28.178,0,0,1-4.578.336,27.257,27.257,0,0,1-13.9-3.5c-8.179-4.92-11.321-14.435-11.45-14.837L347,272.15Zm45.79,95.421H356.226a10.346,10.346,0,1,1,0-20.693h37.624a10.346,10.346,0,0,1,0,20.693ZM565.036,365.5a11.32,11.32,0,0,1-11.287,11.287H525.531A11.32,11.32,0,0,1,514.244,365.5V348.571a11.32,11.32,0,0,1,11.287-11.287h28.218a11.32,11.32,0,0,1,11.287,11.287Z" transform="translate(-155.96 -182.515)" fill="#6adbbd"/>
    <path id="Path_1295" data-name="Path 1295" d="M534.467,362.209H522.239a3.292,3.292,0,0,0,0,6.584h12.228a3.292,3.292,0,0,0,0-6.584Zm0,4.7H522.239a1.411,1.411,0,0,1,0-2.822h12.228a1.411,1.411,0,0,1,0,2.822Z" transform="translate(-155.96 -182.515)" fill="#6adbbd"/>
    <path id="Path_1296" data-name="Path 1296" d="M557.041,362.209H544.813a3.292,3.292,0,0,0,0,6.584h12.228a3.292,3.292,0,0,0,0-6.584Zm0,4.7H544.813a1.411,1.411,0,0,1,0-2.822h12.228a1.411,1.411,0,0,1,0,2.822Z" transform="translate(-155.96 -182.515)" fill="#6adbbd"/>
    <path id="Path_1297" data-name="Path 1297" d="M534.467,353.744H522.239a3.292,3.292,0,1,0,0,6.584h12.228a3.292,3.292,0,1,0,0-6.584Zm0,4.7H522.239a1.411,1.411,0,0,1,0-2.822h12.228a1.411,1.411,0,1,1,0,2.822Z" transform="translate(-155.96 -182.515)" fill="#6adbbd"/>
    <path id="Path_1298" data-name="Path 1298" d="M557.041,353.744H544.813a3.292,3.292,0,1,0,0,6.584h12.228a3.292,3.292,0,1,0,0-6.584Zm0,4.7H544.813a1.411,1.411,0,1,1,0-2.822h12.228a1.411,1.411,0,0,1,0,2.822Z" transform="translate(-155.96 -182.515)" fill="#6adbbd"/>
    <path id="Path_1299" data-name="Path 1299" d="M534.467,345.279H522.239a3.292,3.292,0,0,0,0,6.584h12.228a3.292,3.292,0,0,0,0-6.584Zm0,4.7H522.239a1.411,1.411,0,0,1,0-2.822h12.228a1.411,1.411,0,0,1,0,2.822Z" transform="translate(-155.96 -182.515)" fill="#6adbbd"/>
    <path id="Path_1300" data-name="Path 1300" d="M557.041,345.279H544.813a3.292,3.292,0,0,0,0,6.584h12.228a3.292,3.292,0,0,0,0-6.584Zm0,4.7H544.813a1.411,1.411,0,0,1,0-2.822h12.228a1.411,1.411,0,0,1,0,2.822Z" transform="translate(-155.96 -182.515)" fill="#6adbbd"/>
    <path id="Path_1301" data-name="Path 1301" d="M277.545,326.772s-13.363,56.421,2.97,56.421,54.936-63.845,54.936-63.845,40.089-20.787,23.756-28.211-37.119,11.878-37.119,11.878l-23.985,33.3-1.256-16.967Z" transform="translate(-155.96 -182.515)" fill="#a0616a"/>
    <path id="Path_1302" data-name="Path 1302" d="M308.725,279.259l-8.909-8.909s-17.817,10.393-19.3,20.787-8.909,43.058-8.909,43.058l27.468,2.227,8.909-13.363Z" transform="translate(-155.96 -182.515)" fill="#cfcce0"/>
    <path id="Path_1303" data-name="Path 1303" d="M730.743,258.138c-1.119-3.3-15.145-14.53-6.55-16.417l7.049,9.4,32.407-32.406,3.259,3.259Z" transform="translate(-155.96 -182.515)" fill="#6adbbd"/>
    <path id="Path_1304" data-name="Path 1304" d="M730.743,368.332c-1.119-3.3-15.145-14.53-6.55-16.417l7.049,9.4,32.407-32.406,3.259,3.259Z" transform="translate(-155.96 -182.515)" fill="#6adbbd"/>
    <path id="Path_1305" data-name="Path 1305" d="M730.743,480.1c-1.119-3.3-15.145-14.53-6.55-16.417l7.049,9.4,32.407-32.406,3.259,3.259Z" transform="translate(-155.96 -182.515)" fill="#6adbbd"/>
    <circle id="Ellipse_186" data-name="Ellipse 186" cx="10" cy="10" r="10" transform="translate(662.941 52.223)" fill="#3f3d56"/>
    <rect id="Rectangle_943" data-name="Rectangle 943" width="161" height="2" transform="translate(710.441 61.223)" fill="#3f3d56"/>
    <circle id="Ellipse_187" data-name="Ellipse 187" cx="10" cy="10" r="10" transform="translate(662.941 162.417)" fill="#3f3d56"/>
    <rect id="Rectangle_944" data-name="Rectangle 944" width="161" height="2" transform="translate(710.441 171.417)" fill="#3f3d56"/>
    <circle id="Ellipse_188" data-name="Ellipse 188" cx="10" cy="10" r="10" transform="translate(662.941 274.185)" fill="#3f3d56"/>
    <rect id="Rectangle_945" data-name="Rectangle 945" width="161" height="2" transform="translate(710.441 283.185)" fill="#3f3d56"/>
    <path id="Path_1306" data-name="Path 1306" d="M600.04,312.485h-50v-51h34v2h-32v47h46v-23h2Z" fill="#3f3d56"/>
    <path id="Path_1307" data-name="Path 1307" d="M600.04,200.485h-50v-51h34v2h-32v47h46v-23h2Z" fill="#3f3d56"/>
    <path id="Path_1308" data-name="Path 1308" d="M600.04,86.485h-50v-51h34v2h-32v47h46v-23h2Z" fill="#3f3d56"/>
  </g>
</svg>
