<svg xmlns="http://www.w3.org/2000/svg" width="105" height="60" viewBox="0 0 105 60">
  <g id="Group_789" data-name="Group 789" transform="translate(2153 2648)">
    <rect id="Rectangle_852" data-name="Rectangle 852" width="105" height="60" transform="translate(-2153 -2648)" fill="none"/>
    <g id="privacy" transform="translate(-2134 -2648)">
      <circle id="Ellipse_132" data-name="Ellipse 132" cx="15.563" cy="15.563" r="15.563" transform="translate(15.818 25.889)" fill="#f2f2f2"/>
      <ellipse id="Ellipse_133" data-name="Ellipse 133" cx="14.768" cy="2.017" rx="14.768" ry="2.017" transform="translate(14.414 55.732)" fill="#3f3d56"/>
      <ellipse id="Ellipse_134" data-name="Ellipse 134" cx="1.045" cy="0.507" rx="1.045" ry="0.507" transform="translate(28.452 16.241) rotate(-18.58)" fill="#3f3d56"/>
      <path id="Path_957" data-name="Path 957" d="M430.64,253.03l5.484-2.5s9.291-3.512,17.238,5.06c0,0-3.562-2.286-6.262.734,0,0-5.08-1.374-9.344,3.676,0,0-6.668,1.01-9.445,4.549,0,0-3.1-.476-4.328,3.449a.118.118,0,0,1-.195.048h0a.117.117,0,0,1-.033-.062C423.64,267.378,422.278,259.286,430.64,253.03Z" transform="translate(-403.155 -234.328)" fill="#6adbbd"/>
      <path id="Path_958" data-name="Path 958" d="M430.64,253.03l5.484-2.5s9.291-3.512,17.238,5.06c0,0-3.562-2.286-6.262.734,0,0-5.08-1.374-9.344,3.676,0,0-6.668,1.01-9.445,4.549,0,0-3.1-.476-4.328,3.449a.118.118,0,0,1-.195.048h0a.117.117,0,0,1-.033-.062C423.64,267.378,422.278,259.286,430.64,253.03Z" transform="translate(-403.155 -234.328)" opacity="0.2"/>
      <path id="Path_959" data-name="Path 959" d="M405.524,352.539l2.284.381.761-3.616-1.839-.761Z" transform="translate(-376.368 -323.484)" fill="#2f2e41"/>
      <circle id="Ellipse_135" data-name="Ellipse 135" cx="1.966" cy="1.966" r="1.966" transform="translate(30.329 24.393)" fill="#a0616a"/>
      <path id="Path_960" data-name="Path 960" d="M554.613,416.421s.19,2.41-1.269,2.6,1.269,4.5,1.966,4.44,1.966-4.694,1.966-4.694-1.649-1.142-1.078-2.157Z" transform="translate(-523.174 -388.952)" fill="#a0616a"/>
      <path id="Path_961" data-name="Path 961" d="M542.483,535.338s.254,1.839,1.015,1.839-.507-2.093-.507-2.093Z" transform="translate(-513.486 -499.084)" fill="#a0616a"/>
      <path id="Path_962" data-name="Path 962" d="M691.965,564.2s1.9,1.586,1.649,2.093-1.9-.571-2.03-1.839Z" transform="translate(-651.868 -526.105)" fill="#a0616a"/>
      <path id="Path_963" data-name="Path 963" d="M504.436,648.9l-1.205,4.5-1.332,5.455h1.269a7.3,7.3,0,0,1,1.269-2.6,6.13,6.13,0,0,0,.825-2.347l1.966-4.63Z" transform="translate(-475.82 -604.713)" fill="#a0616a"/>
      <path id="Path_964" data-name="Path 964" d="M609.535,641.78l.381,4.25s-.063,3.045,0,3.742a13.979,13.979,0,0,1,0,1.713h1.142s1.078-3.742.761-5.772l.444-4.757Z" transform="translate(-575.717 -597.343)" fill="#a0616a"/>
      <path id="Path_965" data-name="Path 965" d="M530.394,445.224a3.5,3.5,0,0,1-1.267-3.246,4.511,4.511,0,0,0-2.412.772c-.7.7.19,3.045.19,3.045s1.522,2.537,1.269,3.679-2.981,7.168-2.093,7.548,6.28,1.713,9.007-.507c0,0,.7-6.28-2.093-8.309v-1.586s.507-.444.254-1.586c0,0,1.078-1.966.444-2.347a18.867,18.867,0,0,0-2.091-.938S531.726,444.589,530.394,445.224Z" transform="translate(-498.099 -412.458)" fill="#2f2e41"/>
      <path id="Path_966" data-name="Path 966" d="M492.374,455.632s-.825-.127-1.649,1.078-2.981,3.108-1.966,4.06a10.905,10.905,0,0,0,3.742,1.586l.634-1.142-2.728-1.332,2.284-1.713Z" transform="translate(-463.377 -425.34)" fill="#2f2e41"/>
      <path id="Path_967" data-name="Path 967" d="M622.457,455.682a1.444,1.444,0,0,1,1.269,1.078,52.194,52.194,0,0,0,2.6,4.757l1.269,1.966-.888,1.015-2.474-2.791-2.347-3.869Z" transform="translate(-587.181 -425.39)" fill="#2f2e41"/>
      <path id="Path_968" data-name="Path 968" d="M490.955,785.646h-1.776l-.381,3.108s-1.015,1.649.507,1.459,1.015-1.9,1.015-1.9l.381-.634.127,1.332.127-.063v-1.459S491.653,786.851,490.955,785.646Z" transform="translate(-463.354 -731.631)" fill="#2f2e41"/>
      <path id="Path_969" data-name="Path 969" d="M609.583,784.008l-1.649-.127-.317,3.552s-.19,1.332.951,1.142a.918.918,0,0,0,.761-1.269V785.34Z" transform="translate(-573.926 -729.993)" fill="#2f2e41"/>
      <path id="Path_970" data-name="Path 970" d="M543.126,366.911a1.6,1.6,0,0,0-.971,1.525,2.162,2.162,0,0,0,.064.578,1.693,1.693,0,0,1-.318,1.315,13.007,13.007,0,0,0-.739,1.271l0,.006,1.015.127.216-1.682a8.377,8.377,0,0,1,.665-2.362l.007-.016a1.634,1.634,0,0,0,1.332.825l-.317-.317a8.747,8.747,0,0,0,1.9.571s.381.254,0,.634-1.142,1.269-.7,1.966.063.888.063.888l.7-.381.317-.19v.254l1.649-.19s.444-.063-.507-1.142a1.13,1.13,0,0,1-.141-.78,1.822,1.822,0,0,0,.069-.852C547.218,367.769,546.381,365.405,543.126,366.911Z" transform="translate(-512.258 -342.55)" fill="#2f2e41"/>
      <path id="Path_971" data-name="Path 971" d="M607.792,374.843c.628-.638-.068-1.96-.122-2.061L600.5,358.145a.187.187,0,1,0-.335.164l7.172,14.645,0,0c.007.013.7,1.328.083,1.7-.664.406-1.438-.252-1.446-.258a.187.187,0,1,0-.244.282,1.722,1.722,0,0,0,1.884.294A.905.905,0,0,0,607.792,374.843Z" transform="translate(-567.005 -334.768)" fill="#3f3d56"/>
      <path id="Path_972" data-name="Path 972" d="M426.367,239.736l5.311-2.42s9-3.4,16.7,4.9c0,0-3.45-2.214-6.065.711,0,0-4.92-1.331-9.049,3.56,0,0-6.458.978-9.148,4.405,0,0-3.092-.476-4.246,3.52l-.16-.157S417.948,246.036,426.367,239.736Z" transform="translate(-399.394 -222.084)" fill="#6adbbd"/>
      <path id="Path_973" data-name="Path 973" d="M484.868,279.671s-2.6,8.753-2.284,11.164" transform="translate(-457.869 -262.034)" fill="#3f3d56"/>
      <path id="Path_974" data-name="Path 974" d="M552.922,262.3s3.277,7.4,4.1,8.036" transform="translate(-523.174 -245.907)" fill="#3f3d56"/>
      <path id="Path_975" data-name="Path 975" d="M587.919,246.145s8.436,5.074,10.656,5.645" transform="translate(-555.656 -230.918)" fill="#3f3d56"/>
      <path id="Path_976" data-name="Path 976" d="M404.54,614.206a4.73,4.73,0,0,1-.5-1.871,12.975,12.975,0,0,1,.959-5.759,11.614,11.614,0,0,0-.46-9.244l.115-.067a10.2,10.2,0,0,1,.962,2.727,11.9,11.9,0,0,1-.493,6.63c-1.89,5.085-.485,7.491-.471,7.515Z" transform="translate(-384.96 -556.794)" fill="#3f3d56"/>
      <circle id="Ellipse_136" data-name="Ellipse 136" cx="0.864" cy="0.864" r="0.864" transform="translate(17.976 38.512)" fill="#3f3d56"/>
      <circle id="Ellipse_137" data-name="Ellipse 137" cx="0.864" cy="0.864" r="0.864" transform="translate(20.7 41.7)" fill="#3f3d56"/>
      <circle id="Ellipse_138" data-name="Ellipse 138" cx="0.864" cy="0.864" r="0.864" transform="translate(18.84 43.826)" fill="#6adbbd"/>
      <circle id="Ellipse_139" data-name="Ellipse 139" cx="0.864" cy="0.864" r="0.864" transform="translate(21.098 45.62)" fill="#6adbbd"/>
      <circle id="Ellipse_140" data-name="Ellipse 140" cx="0.864" cy="0.864" r="0.864" transform="translate(18.176 48.41)" fill="#3f3d56"/>
      <path id="Path_977" data-name="Path 977" d="M416.979,785.318s-.864-2.126,1.727-3.72Z" transform="translate(-396.877 -727.875)" fill="#3f3d56"/>
      <path id="Path_978" data-name="Path 978" d="M359.649,803.871s-.393-2.261-3.435-2.241Z" transform="translate(-340.609 -746.466)" fill="#3f3d56"/>
      <path id="Path_979" data-name="Path 979" d="M118.6,0l3.04,1.663-5.89,3.9-2.817-1.859Z" transform="translate(-104.816)" fill="#3f3d56"/>
      <path id="Path_980" data-name="Path 980" d="M6.477,73.493,0,77.669l3.008,1.788,6.475-4.322Z" transform="translate(0 -68.209)" fill="#3f3d56"/>
      <path id="Path_981" data-name="Path 981" d="M227.822,77.953a2.553,2.553,0,0,0-1.374,1.74.754.754,0,0,0,.247.755l1.872,1.581a.868.868,0,0,0,.981.095c.761-.422,1.984-1.308,1.438-2.431a.776.776,0,0,0-.27-.307l-2.087-1.38A.815.815,0,0,0,227.822,77.953Z" transform="translate(-220.153 -74.741)" fill="#d0cde1"/>
      <ellipse id="Ellipse_141" data-name="Ellipse 141" cx="3.08" cy="2.092" rx="3.08" ry="2.092" transform="matrix(0.597, -0.802, 0.802, 0.597, 8.146, 8.169)" fill="#3f3d56"/>
      <path id="Path_982" data-name="Path 982" d="M285.922,109.857c.38.283,1.283-.275,2.094-1.264q.108-.131.213-.272.077-.1.149-.207c.753-1.087,1.05-2.154.661-2.444s-1.339.31-2.17,1.357q-.07.088-.138.179a7.112,7.112,0,0,0-.435.657C285.762,108.782,285.588,109.608,285.922,109.857Z" transform="translate(-275.213 -100.474)" opacity="0.2"/>
      <path id="Path_983" data-name="Path 983" d="M293.339,126.326l1.72.73,1.23.522.182-.246-1.05-.757-1.508-1.087q-.07.088-.138.179A7.112,7.112,0,0,0,293.339,126.326Z" transform="translate(-282.254 -118.937)" fill="#d0cde1"/>
      <circle id="Ellipse_142" data-name="Ellipse 142" cx="0.374" cy="0.374" r="0.374" transform="translate(13.994 8.313)" fill="#d0cde1"/>
      <path id="Path_984" data-name="Path 984" d="M339.782,162.143a.178.178,0,0,1,.085-.043,4.759,4.759,0,0,0,3.873-3.544.179.179,0,1,1,.343.1,5.152,5.152,0,0,1-4.143,3.791.179.179,0,0,1-.157-.308Z" transform="translate(-325.304 -149.509)" fill="#6adbbd"/>
      <path id="Path_985" data-name="Path 985" d="M332.89,151.912a.178.178,0,0,1,.085-.043,3.569,3.569,0,0,0,2.9-2.657.179.179,0,1,1,.343.1,3.947,3.947,0,0,1-3.174,2.9.179.179,0,0,1-.157-.308Z" transform="translate(-318.908 -140.836)" fill="#6adbbd"/>
      <path id="Path_986" data-name="Path 986" d="M349.964,173.416a.178.178,0,0,1,.085-.043,7.106,7.106,0,0,0,4.8-4.39.179.179,0,0,1,.343.1,7.507,7.507,0,0,1-5.068,4.638.179.179,0,0,1-.157-.308Z" transform="translate(-334.754 -159.185)" fill="#6adbbd"/>
      <path id="Path_987" data-name="Path 987" d="M690.67,0l-3.04,1.663,5.89,3.9,2.817-1.859Z" transform="translate(-638.192)" fill="#3f3d56"/>
      <path id="Path_988" data-name="Path 988" d="M792.784,73.493l6.477,4.176-3.008,1.788-6.475-4.322Z" transform="translate(-732.997 -68.209)" fill="#3f3d56"/>
      <path id="Path_989" data-name="Path 989" d="M911.549,77.953a2.553,2.553,0,0,1,1.374,1.74.754.754,0,0,1-.247.755L910.8,82.029a.868.868,0,0,1-.981.095c-.761-.422-1.984-1.308-1.438-2.431a.776.776,0,0,1,.27-.307l2.087-1.38A.815.815,0,0,1,911.549,77.953Z" transform="translate(-852.954 -74.741)" fill="#d0cde1"/>
      <ellipse id="Ellipse_143" data-name="Ellipse 143" cx="2.092" cy="3.08" rx="2.092" ry="3.08" transform="matrix(0.802, -0.597, 0.597, 0.802, 51.084, 5.726)" fill="#3f3d56"/>
      <path id="Path_990" data-name="Path 990" d="M869.422,109.857c-.38.283-1.283-.275-2.094-1.264q-.108-.131-.213-.272-.077-.1-.149-.207c-.753-1.087-1.05-2.154-.661-2.444s1.339.31,2.17,1.357q.07.088.138.179a7.112,7.112,0,0,1,.435.657C869.583,108.782,869.757,109.608,869.422,109.857Z" transform="translate(-813.867 -100.474)" opacity="0.2"/>
      <path id="Path_991" data-name="Path 991" d="M866.231,126.326l-1.72.73-1.23.522-.182-.246,1.05-.757,1.508-1.087q.07.088.138.179a7.125,7.125,0,0,1,.435.657Z" transform="translate(-811.051 -118.937)" fill="#d0cde1"/>
      <circle id="Ellipse_144" data-name="Ellipse 144" cx="0.374" cy="0.374" r="0.374" transform="translate(51.523 8.313)" fill="#d0cde1"/>
      <path id="Path_992" data-name="Path 992" d="M803.855,162.143a.178.178,0,0,0-.085-.043,4.759,4.759,0,0,1-3.873-3.544.179.179,0,0,0-.343.1,5.152,5.152,0,0,0,4.143,3.791.179.179,0,0,0,.157-.308Z" transform="translate(-752.068 -149.509)" fill="#6adbbd"/>
      <path id="Path_993" data-name="Path 993" d="M823.255,151.912a.178.178,0,0,0-.085-.043,3.569,3.569,0,0,1-2.9-2.657.179.179,0,0,0-.343.1,3.947,3.947,0,0,0,3.174,2.9.179.179,0,0,0,.157-.308Z" transform="translate(-770.972 -140.836)" fill="#6adbbd"/>
      <path id="Path_994" data-name="Path 994" d="M781.733,173.416a.178.178,0,0,0-.085-.043,7.106,7.106,0,0,1-4.8-4.39.179.179,0,0,0-.343.1,7.507,7.507,0,0,0,5.068,4.638.179.179,0,0,0,.157-.308Z" transform="translate(-730.678 -159.185)" fill="#6adbbd"/>
    </g>
  </g>
</svg>
